<svg width="36" height="36" viewBox="0 0 36 36" fill="none" xmlns="http://www.w3.org/2000/svg">
<path fill-rule="evenodd" clip-rule="evenodd" d="M18.3572 35.2857C28.1011 35.2857 36.0001 27.3867 36.0001 17.6429C36.0001 7.89898 28.1011 0 18.3572 0C8.61333 0 0.714355 7.89898 0.714355 17.6429C0.714355 27.3867 8.61333 35.2857 18.3572 35.2857ZM29.4083 9.80701C29.0212 9.31688 28.406 9 27.7133 9L8.83546 9C8.06845 9 7.39653 9.38843 7.024 9.97038L18.1661 18.8035L29.4083 9.80701ZM6.71436 11.5668L6.71436 23.9762C6.71436 24.062 6.71996 24.1467 6.73084 24.2297L14.7091 17.9048L6.71436 11.5668ZM8.83546 26C8.30377 26 7.81778 25.8133 7.44552 25.505L15.8708 18.8257L17.4215 20.0551C17.8552 20.3989 18.4846 20.3975 18.9167 20.0518L20.4444 18.8292L28.9398 25.6276C28.5935 25.8621 28.1702 26 27.7133 26L8.83546 26ZM29.7764 24.4481L21.5997 17.9048L29.8344 11.315V23.9762C29.8344 24.1387 29.8143 24.2967 29.7764 24.4481Z" fill="white"/>
</svg>
