<svg width="36" height="37" viewBox="0 0 36 37" fill="none" xmlns="http://www.w3.org/2000/svg">
<path fill-rule="evenodd" clip-rule="evenodd" d="M36 18.2852C36 28.2263 27.9411 36.2852 18 36.2852C8.05887 36.2852 0 28.2263 0 18.2852C0 8.34403 8.05887 0.285156 18 0.285156C27.9411 0.285156 36 8.34403 36 18.2852ZM17.8501 7.28516C14.8355 7.28516 14.4575 7.29795 13.2735 7.35194C12.0921 7.40584 11.2852 7.59351 10.5791 7.86786C9.84916 8.15153 9.23013 8.53111 8.61306 9.14818C7.99595 9.76526 7.61638 10.3843 7.33274 11.1143C7.05832 11.8203 6.87072 12.6272 6.81675 13.8087C6.76276 14.9926 6.75 15.3707 6.75 18.3853C6.75 21.3998 6.76276 21.7779 6.81675 22.9618C6.87072 24.1433 7.05832 24.9502 7.33274 25.6562C7.61641 26.3862 7.99598 27.0052 8.61306 27.6223C9.23017 28.2394 9.84916 28.619 10.5791 28.9026C11.2852 29.177 12.0921 29.3646 13.2735 29.4186C14.4575 29.4726 14.8355 29.4854 17.8501 29.4854C20.8647 29.4854 21.2427 29.4726 22.4267 29.4186C23.6081 29.3647 24.415 29.177 25.1211 28.9026C25.851 28.619 26.47 28.2394 27.0872 27.6223C27.7042 27.0052 28.0838 26.3862 28.3675 25.6562C28.6418 24.9502 28.8295 24.1433 28.8834 22.9618C28.9374 21.7779 28.9502 21.3998 28.9502 18.3853C28.9502 15.3707 28.9374 14.9926 28.8834 13.8087C28.8295 12.6272 28.6418 11.8203 28.3675 11.1143C28.0838 10.3843 27.7042 9.76526 27.0872 9.14818C26.47 8.53111 25.851 8.15153 25.1211 7.86786C24.415 7.59351 23.6081 7.40584 22.4267 7.35194C21.2427 7.29795 20.8647 7.28516 17.8501 7.28516ZM17.8501 9.28516C20.8139 9.28516 21.165 9.29649 22.3355 9.3499C23.4178 9.39924 24.0055 9.58007 24.3966 9.73208C24.9148 9.93346 25.2845 10.174 25.6729 10.5624C26.0614 10.9508 26.3019 11.3206 26.5033 11.8387C26.6553 12.2299 26.8361 12.8176 26.8855 13.8999C26.9389 15.0703 26.9502 15.4214 26.9502 18.3853C26.9502 21.3491 26.9389 21.7002 26.8855 22.8706C26.8361 23.9529 26.6553 24.5406 26.5033 24.9318C26.3019 25.4499 26.0614 25.8197 25.6729 26.2081C25.2845 26.5965 24.9147 26.837 24.3966 27.0384C24.0055 27.1904 23.4177 27.3713 22.3355 27.4206C21.1652 27.474 20.8142 27.4853 17.8501 27.4853C14.886 27.4853 14.535 27.474 13.3647 27.4206C12.2824 27.3713 11.6947 27.1904 11.3036 27.0384C10.7854 26.837 10.4157 26.5965 10.0273 26.2081C9.63885 25.8197 9.39831 25.4499 9.19692 24.9318C9.04491 24.5406 8.86411 23.9529 8.81474 22.8706C8.76134 21.7002 8.75 21.3491 8.75 18.3853C8.75 15.4214 8.76134 15.0703 8.81474 13.8999C8.86411 12.8176 9.04491 12.2299 9.19692 11.8388C9.39831 11.3206 9.63885 10.9508 10.0272 10.5624C10.4157 10.174 10.7855 9.93346 11.3036 9.73208C11.6947 9.58007 12.2825 9.39924 13.3647 9.3499C14.5352 9.29649 14.8863 9.28516 17.8501 9.28516H17.8501ZM14.1501 18.3853C14.1501 20.4287 15.8067 22.0853 17.8502 22.0853C19.8937 22.0853 21.5502 20.4287 21.5502 18.3853C21.5502 16.3417 19.8937 14.6852 17.8502 14.6852C15.8067 14.6852 14.1501 16.3417 14.1501 18.3853ZM12.1501 18.3853C12.1501 15.2372 14.7021 12.6852 17.8502 12.6852C20.9983 12.6852 23.5502 15.2372 23.5502 18.3853C23.5502 21.5333 20.9983 24.0853 17.8502 24.0853C14.7021 24.0853 12.1501 21.5333 12.1501 18.3853ZM23.7755 13.792C24.5111 13.792 25.1075 13.1956 25.1075 12.46C25.1075 11.7243 24.5111 11.1279 23.7755 11.1279C23.0398 11.1279 22.4434 11.7243 22.4434 12.46C22.4434 13.1956 23.0398 13.792 23.7755 13.792Z" fill="white"/>
</svg>
