<svg viewBox="0 0 80 28" fill="none" xmlns="http://www.w3.org/2000/svg">
<path d="M11.6499 23.152H12.1539V5.4H15.8499V25H8.62588L6.32988 7.248H5.82588V25H2.12988V5.4H9.35388L11.6499 23.152ZM19.8624 5.4H32.2384V8.928H23.5584V13.408H31.9024V16.936H23.5584V21.472H32.5744V25H19.8624V5.4ZM39.6389 5.4L42.9429 13.408H43.6149L46.9189 5.4H50.9229L46.8909 14.92V15.424L50.9229 25H46.9189L43.6149 16.936H42.9429L39.6389 25H35.6349L39.6669 15.424V14.92L35.6349 5.4H39.6389ZM53.3675 5.4H67.4795V8.928H62.2715V25H58.5755V8.928H53.3675V5.4Z" fill="white"/>
<path d="M80 15L73 5L73 25L80 15Z" fill="white"/>
</svg>
