<svg viewBox="0 0 80 28" fill="none" xmlns="http://www.w3.org/2000/svg">
<path d="M17.1339 17.608V25H13.4379V5.4H21.1099C22.1179 5.4 22.9952 5.568 23.7419 5.904C24.4885 6.22133 25.1045 6.65067 25.5899 7.192C26.0939 7.71467 26.4672 8.32133 26.7099 9.012C26.9712 9.684 27.1019 10.3747 27.1019 11.084V11.756C27.1019 12.484 26.9712 13.2027 26.7099 13.912C26.4672 14.6027 26.0939 15.228 25.5899 15.788C25.1045 16.3293 24.4885 16.768 23.7419 17.104C22.9952 17.44 22.1179 17.608 21.1099 17.608H17.1339ZM17.1339 14.08H20.7459C21.5672 14.08 22.2112 13.856 22.6779 13.408C23.1632 12.96 23.4059 12.3813 23.4059 11.672V11.336C23.4059 10.6267 23.1632 10.048 22.6779 9.6C22.2112 9.152 21.5672 8.928 20.7459 8.928H17.1339V14.08ZM43.7704 25H40.0744V19.12C40.0744 18.672 39.9531 18.308 39.7104 18.028C39.4864 17.748 39.1037 17.608 38.5624 17.608H34.3064V25H30.6104V5.4H38.1144C39.1224 5.4 40.0091 5.54 40.7744 5.82C41.5397 6.1 42.1744 6.492 42.6784 6.996C43.2011 7.48133 43.5931 8.05067 43.8544 8.704C44.1344 9.35733 44.2744 10.0573 44.2744 10.804V11.476C44.2744 12.2787 44.0597 13.0347 43.6304 13.744C43.2011 14.4347 42.5384 14.9667 41.6424 15.34V15.844C42.2957 15.9187 42.8091 16.1707 43.1824 16.6C43.5744 17.0293 43.7704 17.5707 43.7704 18.224V25ZM34.3064 14.08H37.8344C38.7304 14.08 39.4117 13.8747 39.8784 13.464C40.3451 13.0347 40.5784 12.4373 40.5784 11.672V11.336C40.5784 10.6827 40.3451 10.1227 39.8784 9.656C39.4117 9.17067 38.7304 8.928 37.8344 8.928H34.3064V14.08ZM48.0069 5.4H60.3829V8.928H51.7029V13.408H60.0469V16.936H51.7029V21.472H60.7189V25H48.0069V5.4ZM63.5275 5.4H67.3355L71.1715 23.152H71.6755L75.5115 5.4H79.3195L74.8955 25H67.9515L63.5275 5.4Z" fill="white"/>
<path d="M0 15L7 5L7 25L0 15Z" fill="white"/>
</svg>
