<svg width="126" height="126" viewBox="0 0 126 126" fill="none" xmlns="http://www.w3.org/2000/svg">
<g style="mix-blend-mode:screen" opacity="0.25">
<path d="M83.2781 79.3804V89.8666H80.6178V92.4887H75.2982V95.1107H72.6379V97.7328H56.6793V95.1107H51.3597V92.4887H48.6994V89.8666H46.0391V87.2445H40.7196V84.6225H35.4V82.0004H30.0805V76.7573H27.4202V74.1352H24.7599V68.8921H22.0996V63.649L30.0795 32.1894H32.7397V29.5673H35.4V24.3242H38.0603V21.7021H40.7206V19.0801H43.3809V16.458H46.0412V13.8359H61.9999V24.3221H64.6602V34.8083H67.3204V37.4304H54.0211V40.0525H46.0412V71.5121L48.7015 79.3773H59.3406C59.3406 79.3773 56.6803 79.3773 59.3406 81.9994C62.0009 84.6214 75.2993 81.9994 75.2993 81.9994V79.3773H83.2791L83.2781 79.3804Z" fill="#A559EC"/>
<path d="M67.3184 13.8397V24.327H69.9787V32.1911H75.2983H80.6178V29.5701H85.9374V26.948H88.5977H91.2569V24.327H93.9172H96.5765V21.7049H101.897V19.0839V16.4618H99.2368V13.8397H96.5765V11.2187H93.9172V8.59662H91.2569V5.97558H88.5977V3.35352H85.9374V5.97558H83.2781H77.9575H75.2983V8.59662H69.9787H64.6592V11.2187V13.8397H67.3184Z" fill="#A559EC"/>
<path d="M69.9785 32.1913V34.8133H80.6176H83.2779V40.0564H85.9372V37.4354H88.5975V34.8133H91.2567V32.1913H93.917V29.5702H96.5763V26.9482H99.2366V21.7051H96.5763H93.917V24.3271H91.2567V26.9482H88.5975H85.9372H83.2779V29.5702H80.6176H75.2981V32.1913H69.9785Z" fill="#7941AE"/>
<path d="M24.7608 71.5161H19.4412V68.8951H14.1217H11.4614V66.273V63.652H30.0803V66.273H32.7406H35.3999V63.652H40.7205V61.0299V58.4078H43.3797H64.659V55.7868V53.1647H67.3182V47.9216V45.2995H64.659V42.6785H54.0188V45.2995H43.3797V42.6785H46.04H48.6993V40.0564H51.3596V37.4354H54.0188H56.6791V34.8133H59.3384V24.3271H51.3596V21.7051H46.04V24.3271H43.3797V26.9482H40.7205V29.5702H38.0602H35.3999V32.1913H32.7406H30.0803V34.8133H27.4211V37.4354H24.7608V34.8133H22.1015H19.4412V37.4354H14.1217V40.0564H11.4614V42.6785V45.2995H8.80211V47.9216H6.14182V58.4078V61.0299H3.48256V63.652V66.273H0.822266V68.8951H3.48256V71.5161H6.14182V74.1382H8.80211V76.7592H11.4614H14.1217V79.3813H16.7809V82.0033H19.4412H22.1015V84.6244H24.7608H27.4211V87.2464H30.0803V89.8675H35.3999V87.2464H32.7406V84.6244H30.0803V79.3813H27.4211V76.7592V74.1382H24.7608V71.5161Z" fill="white" stroke="white" stroke-width="0.156365" stroke-miterlimit="10"/>
<path d="M32.7404 82.002V87.2451L30.0801 84.623V82.002H32.7404Z" fill="white" stroke="#A2A2A2" stroke-width="0.156365" stroke-miterlimit="10"/>
<path d="M30.0812 76.7598H27.4209V79.3818H30.0812V76.7598Z" fill="white" stroke="#A2A2A2" stroke-width="0.156365" stroke-miterlimit="10"/>
<path d="M14.1216 40.0547V47.9199H16.7808V53.163H22.1014V47.9199H27.421V45.2978V40.0547" fill="white"/>
<path d="M14.1216 40.0547V47.9199H16.7808V53.163H22.1014V47.9199H27.421V45.2978V40.0547" stroke="#111111" stroke-width="0.625458" stroke-miterlimit="10"/>
<path d="M40.7202 58.4071V55.7861H38.0599V53.164H35.3996V50.543H32.7404V47.9209H30.0801V45.2988" fill="white"/>
<path d="M40.7202 58.4071V55.7861H38.0599V53.164H35.3996V50.543H32.7404V47.9209H30.0801V45.2988" stroke="#111111" stroke-width="0.625458" stroke-miterlimit="10"/>
<path d="M22.1016 53.166V58.4091H24.7608V61.0312H27.4211V63.6532" fill="white"/>
<path d="M22.1016 53.166V58.4091H24.7608V61.0312H27.4211V63.6532" stroke="#111111" stroke-width="0.625458" stroke-miterlimit="10"/>
<path d="M75.298 40.0547H72.6377V42.6768H64.6589V53.163H51.3595V61.0281V63.6502H48.6992V66.2712H51.3595V68.8933H54.0188V71.5143H56.6791V74.1364H59.3383V76.7574H75.298V74.1364H80.6176V71.5143L83.2779 50.5419H85.9371L88.5974 47.9199H83.2779V45.2978H77.9573V42.6768H75.298V40.0547Z" fill="#A559EC"/>
<path d="M88.5973 47.9199V68.8934H85.937V71.5144H83.2778V74.1365H80.6175H77.9572V76.7575H75.2979H61.9985V74.1365H69.9784V68.8934H75.2979V63.6503H77.9572V61.0282H80.6175V55.7851H83.2778V53.163V50.542V47.9199H88.5973Z" fill="#7941AE"/>
<path d="M112.536 63.6523H120.516V84.6247H117.856V87.2468H115.195V89.8678H109.876V92.4899H104.556V95.112H101.897V92.4899H99.2365V89.8678H96.5763V87.2468H93.917V84.6247V82.0037L112.536 63.6523Z" fill="#7941AE"/>
<path d="M85.9375 76.7596V74.1385H88.5978V71.5165H91.2571V68.8954H93.9173V63.6523H112.536V76.7596H107.217V79.3816H101.897H99.2369V82.0037H93.9173V84.6247H91.2571V82.0037V79.3816H85.9375V76.7596Z" fill="#A559EC"/>
<path d="M83.2775 79.3809V82.0029H85.9368V84.624H88.5971V87.246H91.2563V89.8671H93.9166V95.1112H91.2563H88.5971V97.7322H83.2775V100.354H77.9569V102.975H61.9983V100.354H54.0184V97.7322H43.3793V95.1112H38.0598V92.4891H35.3995V87.246H32.7402V82.0029H35.3995L83.2775 79.3809Z" fill="#7941AE"/>
<path d="M75.2982 79.3809H56.6792V84.624H75.2982V79.3809Z" fill="#A559EC"/>
<path d="M56.6792 100.354H61.9988V102.975H64.659V105.597H59.3385V102.975H56.6792V100.354Z" fill="#A2A2A2" stroke="white" stroke-width="0.781823" stroke-miterlimit="10"/>
<path d="M72.6377 102.975V105.597H75.298H80.6175V100.354H77.9572V102.975H72.6377Z" fill="#A2A2A2" stroke="white" stroke-width="0.781823" stroke-miterlimit="10"/>
<path d="M83.2778 100.354V102.976H88.5974V97.7324H83.2778V100.354Z" fill="#A2A2A2" stroke="#A2A2A2" stroke-width="0.781823" stroke-miterlimit="10"/>
<path d="M59.3384 105.598V108.22H61.9987V113.463H59.3384V116.084V118.706H64.659V116.084H69.9785V110.841H67.3182V108.22H64.659V105.598H59.3384Z" fill="white" stroke="white" stroke-width="0.781823" stroke-miterlimit="10"/>
<path d="M72.6377 105.598V118.706H75.298H77.9572V121.327H80.6175V118.706H83.2778V113.463H77.9572V105.598H72.6377Z" fill="white" stroke="white" stroke-width="0.781823" stroke-miterlimit="10"/>
<path d="M83.2778 97.7324V102.976H85.9371V105.598H88.5974V113.463H91.2566V108.22H93.9169V110.841H99.2365V108.22H96.5762V105.598H91.2566V100.354H88.5974V97.7324H83.2778Z" fill="white" stroke="white" stroke-width="0.781823" stroke-miterlimit="10"/>
<path d="M88.5977 42.6775H91.2569V45.2986H93.9172V50.5427H101.897V53.1637H109.876V50.5427H112.536V47.9206H115.195V45.2986H117.856V42.6775H125.836V40.0555H123.175V37.4344H120.516V34.8124H117.856V32.1903H115.195V29.5693H112.536V26.9472H109.876V24.3262H107.217H104.556V26.9472H101.897V29.5693H99.2368V32.1903L96.5765 34.8124H93.9172V37.4344H91.2569V40.0555H88.5977V42.6775Z" fill="#A559EC"/>
<path d="M93.917 55.7899H101.897V58.4109H117.856V61.033H123.175V47.9247H125.835V42.6816H120.516H117.856V45.3027H112.536V47.9247H104.556V50.5468H99.2365L93.917 55.7899Z" fill="#7941AE"/>
<path d="M99.2366 50.5449H93.917V55.788H99.2366V50.5449Z" fill="#7941AE"/>
<path d="M96.5762 32.1914V34.8135L99.2365 32.1914H96.5762Z" fill="#A559EC"/>
<path d="M83.278 45.2988V55.7861H80.6177L83.278 45.2988Z" fill="#A559EC"/>
</g>
</svg>
