<svg width="126" height="127" viewBox="0 0 126 127" fill="none" xmlns="http://www.w3.org/2000/svg">
<g style="mix-blend-mode:screen" opacity="0.25">
<path d="M82.5725 80.2202V90.7064H79.9122V93.3285H74.5927V95.9506H71.9324V98.5726H55.9737V95.9506H50.6542V93.3285H47.9939V90.7064H45.3336V88.0844H40.014V85.4623H34.6945V82.8402H29.3749V77.5971H26.7146V74.9751H24.0543V69.732H21.394V64.4889L29.3739 33.0292H32.0342V30.4072H34.6945V25.1641H37.3548V22.542H40.0151V19.9199H42.6754V17.2978H45.3356V14.6758H61.2943V25.162H63.9546V35.6482H66.6149V38.2703H53.3155V40.8923H45.3356V72.352L47.9959 80.2171H58.635C58.635 80.2171 55.9747 80.2171 58.635 82.8392C61.2953 85.4613 74.5937 82.8392 74.5937 82.8392V80.2171H82.5735L82.5725 80.2202Z" fill="#FF6660"/>
<path d="M66.6129 14.6796V25.1668H69.2732V33.0309H74.5927H79.9123V30.4099H85.2318V27.7878H87.8921H90.5514V25.1668H93.2117H95.8709V22.5447H101.192V19.9237V17.3016H98.5312V14.6796H95.8709V12.0585H93.2117V9.43646H90.5514V6.81543H87.8921V4.19336H85.2318V6.81543H82.5726H77.252H74.5927V9.43646H69.2732H63.9536V12.0585V14.6796H66.6129Z" fill="#FF6660"/>
<path d="M69.2729 33.0311V35.6532H79.9121H82.5723V40.8963H85.2316V38.2753H87.8919V35.6532H90.5512V33.0311H93.2114V30.4101H95.8707V27.788H98.531V22.5449H95.8707H93.2114V25.167H90.5512V27.788H87.8919H85.2316H82.5723V30.4101H79.9121H74.5925V33.0311H69.2729Z" fill="#B84843"/>
<path d="M24.0552 72.3559H18.7356V69.7349H13.4161H10.7558V67.1128V64.4918H29.3748V67.1128H32.035H34.6943V64.4918H40.0149V61.8697V59.2477H42.6742H63.9534V56.6266V54.0046H66.6127V48.7615V46.1394H63.9534V43.5184H53.3133V46.1394H42.6742V43.5184H45.3344H47.9937V40.8963H50.654V38.2753H53.3133H55.9735V35.6532H58.6328V25.167H50.654V22.5449H45.3344V25.167H42.6742V27.788H40.0149V30.4101H37.3546H34.6943V33.0311H32.035H29.3748V35.6532H26.7155V38.2753H24.0552V35.6532H21.3959H18.7356V38.2753H13.4161V40.8963H10.7558V43.5184V46.1394H8.09654V48.7615H5.43625V59.2477V61.8697H2.77699V64.4918V67.1128H0.116699V69.7349H2.77699V72.3559H5.43625V74.978H8.09654V77.599H10.7558H13.4161V80.2211H16.0754V82.8432H18.7356H21.3959V85.4642H24.0552H26.7155V88.0863H29.3748V90.7073H34.6943V88.0863H32.035V85.4642H29.3748V80.2211H26.7155V77.599V74.978H24.0552V72.3559Z" fill="white" stroke="white" stroke-width="0.156365" stroke-miterlimit="10"/>
<path d="M32.0353 82.8418V88.0849L29.375 85.4628V82.8418H32.0353Z" fill="white" stroke="#A2A2A2" stroke-width="0.156365" stroke-miterlimit="10"/>
<path d="M29.3756 77.5996H26.7153V80.2217H29.3756V77.5996Z" fill="white" stroke="#A2A2A2" stroke-width="0.156365" stroke-miterlimit="10"/>
<path d="M13.416 40.8945V48.7597H16.0753V54.0028H21.3959V48.7597H26.7154V46.1376V40.8945" fill="white"/>
<path d="M13.416 40.8945V48.7597H16.0753V54.0028H21.3959V48.7597H26.7154V46.1376V40.8945" stroke="#111111" stroke-width="0.625458" stroke-miterlimit="10"/>
<path d="M40.0151 59.2469V56.6259H37.3548V54.0038H34.6946V51.3828H32.0353V48.7607H29.375V46.1387" fill="white"/>
<path d="M40.0151 59.2469V56.6259H37.3548V54.0038H34.6946V51.3828H32.0353V48.7607H29.375V46.1387" stroke="#111111" stroke-width="0.625458" stroke-miterlimit="10"/>
<path d="M21.396 54.0059V59.249H24.0553V61.871H26.7155V64.4931" fill="white"/>
<path d="M21.396 54.0059V59.249H24.0553V61.871H26.7155V64.4931" stroke="#111111" stroke-width="0.625458" stroke-miterlimit="10"/>
<path d="M74.5929 40.8945H71.9326V43.5166H63.9538V54.0028H50.6544V61.868V64.49H47.9941V67.1111H50.6544V69.7331H53.3137V72.3542H55.974V74.9762H58.6332V77.5973H74.5929V74.9762H79.9125V72.3542L82.5728 51.3818H85.232L87.8923 48.7597H82.5728V46.1376H77.2522V43.5166H74.5929V40.8945Z" fill="#FF6660"/>
<path d="M87.8918 48.7598V69.7332H85.2315V72.3542H82.5722V74.9763H79.9119H77.2516V77.5973H74.5924H61.293V74.9763H69.2728V69.7332H74.5924V64.4901H77.2516V61.868H79.9119V56.6249H82.5722V54.0029V51.3818V48.7598H87.8918Z" fill="#B84843"/>
<path d="M111.83 64.4922H119.81V85.4646H117.15V88.0867H114.49V90.7077H109.17V93.3298H103.851V95.9518H101.191V93.3298H98.531V90.7077H95.8707V88.0867H93.2114V85.4646V82.8436L111.83 64.4922Z" fill="#B84843"/>
<path d="M85.2314 77.5994V74.9784H87.8917V72.3563H90.551V69.7353H93.2113V64.4922H111.83V77.5994H106.511V80.2215H101.191H98.5308V82.8436H93.2113V85.4646H90.551V82.8436V80.2215H85.2314V77.5994Z" fill="#FF6660"/>
<path d="M82.5725 80.2207V82.8428H85.2317V85.4638H87.892V88.0859H90.5513V90.7069H93.2116V95.951H90.5513H87.892V98.5721H82.5725V101.194H77.2519V103.815H61.2932V101.194H53.3134V98.5721H42.6743V95.951H37.3547V93.329H34.6944V88.0859H32.0352V82.8428H34.6944L82.5725 80.2207Z" fill="#B84843"/>
<path d="M74.5926 80.2207H55.9736V85.4638H74.5926V80.2207Z" fill="#FF6660"/>
<path d="M55.9736 101.193H61.2932V103.814H63.9535V106.436H58.6329V103.814H55.9736V101.193Z" fill="#A2A2A2" stroke="white" stroke-width="0.781823" stroke-miterlimit="10"/>
<path d="M71.9321 103.814V106.436H74.5924H79.912V101.193H77.2517V103.814H71.9321Z" fill="#A2A2A2" stroke="white" stroke-width="0.781823" stroke-miterlimit="10"/>
<path d="M82.5723 101.194V103.815H87.8918V98.5723H82.5723V101.194Z" fill="#A2A2A2" stroke="#A2A2A2" stroke-width="0.781823" stroke-miterlimit="10"/>
<path d="M58.6328 106.438V109.06H61.2931V114.303H58.6328V116.924V119.546H63.9534V116.924H69.2729V111.681H66.6127V109.06H63.9534V106.438H58.6328Z" fill="white" stroke="white" stroke-width="0.781823" stroke-miterlimit="10"/>
<path d="M71.9321 106.438V119.546H74.5924H77.2517V122.167H79.912V119.546H82.5723V114.303H77.2517V106.438H71.9321Z" fill="white" stroke="white" stroke-width="0.781823" stroke-miterlimit="10"/>
<path d="M82.5723 98.5723V103.815H85.2315V106.437H87.8918V114.303H90.5511V109.059H93.2114V111.681H98.5309V109.059H95.8706V106.437H90.5511V101.194H87.8918V98.5723H82.5723Z" fill="white" stroke="white" stroke-width="0.781823" stroke-miterlimit="10"/>
<path d="M87.8916 43.5174H90.5509V46.1384H93.2112V51.3826H101.191V54.0036H109.17V51.3826H111.83V48.7605H114.489V46.1384H117.15V43.5174H125.13V40.8953H122.469V38.2743H119.81V35.6522H117.15V33.0302H114.489V30.4091H111.83V27.7871H109.17V25.166H106.511H103.85V27.7871H101.191V30.4091H98.5307V33.0302L95.8704 35.6522H93.2112V38.2743H90.5509V40.8953H87.8916V43.5174Z" fill="#FF6660"/>
<path d="M93.2114 56.6298H101.191V59.2508H117.15V61.8729H122.469V48.7646H125.13V43.5215H119.81H117.15V46.1425H111.83V48.7646H103.851V51.3867H98.531L93.2114 56.6298Z" fill="#B84843"/>
<path d="M98.531 51.3848H93.2114V56.6279H98.531V51.3848Z" fill="#B84843"/>
<path d="M95.8706 33.0312V35.6533L98.5309 33.0312H95.8706Z" fill="#FF6660"/>
<path d="M82.5724 46.1387V56.6259H79.9121L82.5724 46.1387Z" fill="#FF6660"/>
</g>
</svg>
