<svg width="127" height="126" viewBox="0 0 127 126" fill="none" xmlns="http://www.w3.org/2000/svg">
<g style="mix-blend-mode:screen" opacity="0.25">
<path d="M83.4558 80.0601V90.5463H80.7955V93.1683H75.476V95.7904H72.8157V98.4125H56.857V95.7904H51.5375V93.1683H48.8772V90.5463H46.2169V87.9242H40.8973V85.3021H35.5778V82.6801H30.2582V77.437H27.5979V74.8149H24.9376V69.5718H22.2773V64.3287L30.2572 32.8691H32.9175V30.247H35.5778V25.0039H38.2381V22.3818H40.8984V19.7598H43.5587V17.1377H46.2189V14.5156H62.1776V25.0018H64.8379V35.488H67.4982V38.1101H54.1988V40.7322H46.2189V72.1918L48.8792 80.057H59.5183C59.5183 80.057 56.858 80.057 59.5183 82.679C62.1786 85.3011 75.477 82.679 75.477 82.679V80.057H83.4568L83.4558 80.0601Z" fill="#187DFF"/>
<path d="M67.4962 14.5194V25.0066H70.1565V32.8708H75.476H80.7956V30.2497H86.1151V27.6277H88.7754H91.4347V25.0066H94.095H96.7542V22.3846H102.075V19.7635V17.1415H99.4145V14.5194H96.7542V11.8984H94.095V9.2763H91.4347V6.65527H88.7754V4.0332H86.1151V6.65527H83.4559H78.1353H75.476V9.2763H70.1565H64.8369V11.8984V14.5194H67.4962Z" fill="#187DFF"/>
<path d="M70.1562 32.871V35.493H80.7954H83.4556V40.7361H86.1149V38.1151H88.7752V35.493H91.4345V32.871H94.0947V30.2499H96.754V27.6279H99.4143V22.3848H96.754H94.0947V25.0068H91.4345V27.6279H88.7752H86.1149H83.4556V30.2499H80.7954H75.4758V32.871H70.1562Z" fill="#2C568C"/>
<path d="M24.9385 72.1958H19.6189V69.5747H14.2994H11.6391V66.9527V64.3316H30.2581V66.9527H32.9184H35.5776V64.3316H40.8982V61.7096V59.0875H43.5575H64.8367V56.4665V53.8444H67.496V48.6013V45.9792H64.8367V43.3582H54.1966V45.9792H43.5575V43.3582H46.2177H48.877V40.7361H51.5373V38.1151H54.1966H56.8568V35.493H59.5161V25.0068H51.5373V22.3848H46.2177V25.0068H43.5575V27.6279H40.8982V30.2499H38.2379H35.5776V32.871H32.9184H30.2581V35.493H27.5988V38.1151H24.9385V35.493H22.2792H19.6189V38.1151H14.2994V40.7361H11.6391V43.3582V45.9792H8.97985V48.6013H6.31955V59.0875V61.7096H3.66029V64.3316V66.9527H1V69.5747H3.66029V72.1958H6.31955V74.8178H8.97985V77.4389H11.6391H14.2994V80.0609H16.9587V82.683H19.6189H22.2792V85.304H24.9385H27.5988V87.9261H30.2581V90.5471H35.5776V87.9261H32.9184V85.304H30.2581V80.0609H27.5988V77.4389V74.8178H24.9385V72.1958Z" fill="white" stroke="white" stroke-width="0.156365" stroke-miterlimit="10"/>
<path d="M32.9181 82.6816V87.9247L30.2578 85.3027V82.6816H32.9181Z" fill="white" stroke="#A2A2A2" stroke-width="0.156365" stroke-miterlimit="10"/>
<path d="M30.2589 77.4395H27.5986V80.0615H30.2589V77.4395Z" fill="white" stroke="#A2A2A2" stroke-width="0.156365" stroke-miterlimit="10"/>
<path d="M14.2993 40.7344V48.5995H16.9586V53.8426H22.2792V48.5995H27.5987V45.9775V40.7344" fill="white"/>
<path d="M14.2993 40.7344V48.5995H16.9586V53.8426H22.2792V48.5995H27.5987V45.9775V40.7344" stroke="#111111" stroke-width="0.625458" stroke-miterlimit="10"/>
<path d="M40.8979 59.0868V56.4657H38.2377V53.8437H35.5774V51.2226H32.9181V48.6006H30.2578V45.9785" fill="white"/>
<path d="M40.8979 59.0868V56.4657H38.2377V53.8437H35.5774V51.2226H32.9181V48.6006H30.2578V45.9785" stroke="#111111" stroke-width="0.625458" stroke-miterlimit="10"/>
<path d="M22.2793 53.8457V59.0888H24.9386V61.7109H27.5988V64.3329" fill="white"/>
<path d="M22.2793 53.8457V59.0888H24.9386V61.7109H27.5988V64.3329" stroke="#111111" stroke-width="0.625458" stroke-miterlimit="10"/>
<path d="M75.4757 40.7344H72.8155V43.3564H64.8366V53.8426H51.5372V61.7078V64.3299H48.877V66.9509H51.5372V69.573H54.1965V72.194H56.8568V74.8161H59.5161V77.4371H75.4757V74.8161H80.7953V72.194L83.4556 51.2216H86.1149L88.7751 48.5995H83.4556V45.9775H78.135V43.3564H75.4757V40.7344Z" fill="#187DFF"/>
<path d="M88.7751 48.5996V69.573H86.1148V72.1941H83.4555V74.8161H80.7952H78.1349V77.4372H75.4757H62.1763V74.8161H70.1561V69.573H75.4757V64.3299H78.1349V61.7079H80.7952V56.4648H83.4555V53.8427V51.2217V48.5996H88.7751Z" fill="#2C568C"/>
<path d="M112.714 64.332H120.694V85.3044H118.033V87.9265H115.373V90.5475H110.053V93.1696H104.734V95.7917H102.075V93.1696H99.4143V90.5475H96.754V87.9265H94.0947V85.3044V82.6834L112.714 64.332Z" fill="#2C568C"/>
<path d="M86.1152 77.4393V74.8182H88.7755V72.1962H91.4348V69.5751H94.0951V64.332H112.714V77.4393H107.394V80.0613H102.075H99.4146V82.6834H94.0951V85.3044H91.4348V82.6834V80.0613H86.1152V77.4393Z" fill="#187DFF"/>
<path d="M83.4553 80.0605V82.6826H86.1145V85.3036H88.7748V87.9257H91.4341V90.5467H94.0944V95.7909H91.4341H88.7748V98.4119H83.4553V101.034H78.1347V103.655H62.176V101.034H54.1962V98.4119H43.5571V95.7909H38.2375V93.1688H35.5772V87.9257H32.918V82.6826H35.5772L83.4553 80.0605Z" fill="#2C568C"/>
<path d="M75.4759 80.0605H56.8569V85.3036H75.4759V80.0605Z" fill="#187DFF"/>
<path d="M56.8569 101.033H62.1765V103.654H64.8368V106.276H59.5162V103.654H56.8569V101.033Z" fill="#A2A2A2" stroke="white" stroke-width="0.781823" stroke-miterlimit="10"/>
<path d="M72.8154 103.654V106.276H75.4757H80.7953V101.033H78.135V103.654H72.8154Z" fill="#A2A2A2" stroke="white" stroke-width="0.781823" stroke-miterlimit="10"/>
<path d="M83.4556 101.034V103.655H88.7751V98.4121H83.4556V101.034Z" fill="#A2A2A2" stroke="#A2A2A2" stroke-width="0.781823" stroke-miterlimit="10"/>
<path d="M59.5161 106.277V108.899H62.1764V114.143H59.5161V116.764V119.386H64.8367V116.764H70.1562V111.52H67.496V108.899H64.8367V106.277H59.5161Z" fill="white" stroke="white" stroke-width="0.781823" stroke-miterlimit="10"/>
<path d="M72.8154 106.277V119.386H75.4757H78.135V122.007H80.7953V119.386H83.4556V114.143H78.135V106.277H72.8154Z" fill="white" stroke="white" stroke-width="0.781823" stroke-miterlimit="10"/>
<path d="M83.4556 98.4121V103.655H86.1148V106.277H88.7751V114.142H91.4344V108.899H94.0947V111.52H99.4142V108.899H96.7539V106.277H91.4344V101.034H88.7751V98.4121H83.4556Z" fill="white" stroke="white" stroke-width="0.781823" stroke-miterlimit="10"/>
<path d="M88.7754 43.3572H91.4346V45.9783H94.0949V51.2224H102.075V53.8434H110.054V51.2224H112.714V48.6003H115.373V45.9783H118.033V43.3572H126.013V40.7352H123.353V38.1141H120.694V35.4921H118.033V32.87H115.373V30.249H112.714V27.6269H110.054V25.0059H107.394H104.734V27.6269H102.075V30.249H99.4145V32.87L96.7542 35.4921H94.0949V38.1141H91.4346V40.7352H88.7754V43.3572Z" fill="#187DFF"/>
<path d="M94.0947 56.4696H102.075V59.0906H118.033V61.7127H123.353V48.6044H126.013V43.3613H120.694H118.033V45.9824H112.714V48.6044H104.734V51.2265H99.4143L94.0947 56.4696Z" fill="#2C568C"/>
<path d="M99.4143 51.2246H94.0947V56.4677H99.4143V51.2246Z" fill="#2C568C"/>
<path d="M96.7539 32.8711V35.4932L99.4142 32.8711H96.7539Z" fill="#187DFF"/>
<path d="M83.4557 45.9785V56.4657H80.7954L83.4557 45.9785Z" fill="#187DFF"/>
</g>
</svg>
