<svg width="126" height="126" viewBox="0 0 126 126" fill="none" xmlns="http://www.w3.org/2000/svg">
<g style="mix-blend-mode:screen" opacity="0.25">
<path d="M83.1614 79.3804V89.8666H80.5011V92.4887H75.1815V95.1107H72.5212V97.7328H56.5626V95.1107H51.243V92.4887H48.5827V89.8666H45.9224V87.2445H40.6029V84.6225H35.2833V82.0004H29.9638V76.7573H27.3035V74.1352H24.6432V68.8921H21.9829V63.649L29.9628 32.1894H32.623V29.5673H35.2833V24.3242H37.9436V21.7021H40.6039V19.0801H43.2642V16.458H45.9245V13.8359H61.8832V24.3221H64.5435V34.8083H67.2037V37.4304H53.9044V40.0525H45.9245V71.5121L48.5848 79.3773H59.2239C59.2239 79.3773 56.5636 79.3773 59.2239 81.9994C61.8842 84.6214 75.1826 81.9994 75.1826 81.9994V79.3773H83.1624L83.1614 79.3804Z" fill="#6FCF97"/>
<path d="M67.2017 13.8397V24.327H69.862V32.1911H75.1816H80.5011V29.5701H85.8207V26.948H88.481H91.1402V24.327H93.8005H96.4598V21.7049H101.78V19.0839V16.4618H99.1201V13.8397H96.4598V11.2187H93.8005V8.59662H91.1402V5.97558H88.481V3.35352H85.8207V5.97558H83.1614H77.8408H75.1816V8.59662H69.862H64.5425V11.2187V13.8397H67.2017Z" fill="#6FCF97"/>
<path d="M69.8618 32.1913V34.8133H80.5009H83.1612V40.0564H85.8205V37.4354H88.4808V34.8133H91.14V32.1913H93.8003V29.5702H96.4596V26.9482H99.1199V21.7051H96.4596H93.8003V24.3271H91.14V26.9482H88.4808H85.8205H83.1612V29.5702H80.5009H75.1814V32.1913H69.8618Z" fill="#429966"/>
<path d="M24.6441 71.5161H19.3245V68.8951H14.005H11.3447V66.273V63.652H29.9636V66.273H32.6239H35.2832V63.652H40.6038V61.0299V58.4078H43.263H64.5423V55.7868V53.1647H67.2015V47.9216V45.2995H64.5423V42.6785H53.9021V45.2995H43.263V42.6785H45.9233H48.5826V40.0564H51.2429V37.4354H53.9021H56.5624V34.8133H59.2217V24.3271H51.2429V21.7051H45.9233V24.3271H43.263V26.9482H40.6038V29.5702H37.9435H35.2832V32.1913H32.6239H29.9636V34.8133H27.3044V37.4354H24.6441V34.8133H21.9848H19.3245V37.4354H14.005V40.0564H11.3447V42.6785V45.2995H8.68541V47.9216H6.02512V58.4078V61.0299H3.36586V63.652V66.273H0.705566V68.8951H3.36586V71.5161H6.02512V74.1382H8.68541V76.7592H11.3447H14.005V79.3813H16.6642V82.0033H19.3245H21.9848V84.6244H24.6441H27.3044V87.2464H29.9636V89.8675H35.2832V87.2464H32.6239V84.6244H29.9636V79.3813H27.3044V76.7592V74.1382H24.6441V71.5161Z" fill="white" stroke="white" stroke-width="0.156365" stroke-miterlimit="10"/>
<path d="M32.6242 82.002V87.2451L29.9639 84.623V82.002H32.6242Z" fill="white" stroke="#A2A2A2" stroke-width="0.156365" stroke-miterlimit="10"/>
<path d="M29.9645 76.7598H27.3042V79.3818H29.9645V76.7598Z" fill="white" stroke="#A2A2A2" stroke-width="0.156365" stroke-miterlimit="10"/>
<path d="M14.0049 40.0547V47.9199H16.6641V53.163H21.9847V47.9199H27.3043V45.2978V40.0547" fill="white"/>
<path d="M14.0049 40.0547V47.9199H16.6641V53.163H21.9847V47.9199H27.3043V45.2978V40.0547" stroke="#111111" stroke-width="0.625458" stroke-miterlimit="10"/>
<path d="M40.604 58.4071V55.7861H37.9437V53.164H35.2834V50.543H32.6242V47.9209H29.9639V45.2988" fill="white"/>
<path d="M40.604 58.4071V55.7861H37.9437V53.164H35.2834V50.543H32.6242V47.9209H29.9639V45.2988" stroke="#111111" stroke-width="0.625458" stroke-miterlimit="10"/>
<path d="M21.9849 53.166V58.4091H24.6441V61.0312H27.3044V63.6532" fill="white"/>
<path d="M21.9849 53.166V58.4091H24.6441V61.0312H27.3044V63.6532" stroke="#111111" stroke-width="0.625458" stroke-miterlimit="10"/>
<path d="M75.1818 40.0547H72.5215V42.6768H64.5427V53.163H51.2433V61.0281V63.6502H48.583V66.2712H51.2433V68.8933H53.9026V71.5143H56.5628V74.1364H59.2221V76.7574H75.1818V74.1364H80.5014V71.5143L83.1616 50.5419H85.8209L88.4812 47.9199H83.1616V45.2978H77.8411V42.6768H75.1818V40.0547Z" fill="#6FCF97"/>
<path d="M88.4806 47.9199V68.8934H85.8203V71.5144H83.1611V74.1365H80.5008H77.8405V76.7575H75.1812H61.8818V74.1365H69.8617V68.8934H75.1812V63.6503H77.8405V61.0282H80.5008V55.7851H83.1611V53.163V50.542V47.9199H88.4806Z" fill="#429966"/>
<path d="M112.419 63.6523H120.399V84.6247H117.739V87.2468H115.079V89.8678H109.759V92.4899H104.439V95.112H101.78V92.4899H99.1199V89.8678H96.4596V87.2468H93.8003V84.6247V82.0037L112.419 63.6523Z" fill="#429966"/>
<path d="M85.8203 76.7596V74.1385H88.4806V71.5165H91.1399V68.8954H93.8002V63.6523H112.419V76.7596H107.1V79.3816H101.78H99.1197V82.0037H93.8002V84.6247H91.1399V82.0037V79.3816H85.8203V76.7596Z" fill="#6FCF97"/>
<path d="M83.1613 79.3809V82.0029H85.8206V84.624H88.4809V87.246H91.1401V89.8671H93.8004V95.1112H91.1401H88.4809V97.7322H83.1613V100.354H77.8407V102.975H61.8821V100.354H53.9022V97.7322H43.2631V95.1112H37.9436V92.4891H35.2833V87.246H32.624V82.0029H35.2833L83.1613 79.3809Z" fill="#429966"/>
<path d="M75.1815 79.3809H56.5625V84.624H75.1815V79.3809Z" fill="#6FCF97"/>
<path d="M56.5625 100.354H61.8821V102.975H64.5424V105.597H59.2218V102.975H56.5625V100.354Z" fill="#A2A2A2" stroke="white" stroke-width="0.781823" stroke-miterlimit="10"/>
<path d="M72.521 102.975V105.597H75.1813H80.5008V100.354H77.8405V102.975H72.521Z" fill="#A2A2A2" stroke="white" stroke-width="0.781823" stroke-miterlimit="10"/>
<path d="M83.1611 100.354V102.976H88.4807V97.7324H83.1611V100.354Z" fill="#A2A2A2" stroke="#A2A2A2" stroke-width="0.781823" stroke-miterlimit="10"/>
<path d="M59.2217 105.598V108.22H61.882V113.463H59.2217V116.084V118.706H64.5423V116.084H69.8618V110.841H67.2015V108.22H64.5423V105.598H59.2217Z" fill="white" stroke="white" stroke-width="0.781823" stroke-miterlimit="10"/>
<path d="M72.521 105.598V118.706H75.1813H77.8405V121.327H80.5008V118.706H83.1611V113.463H77.8405V105.598H72.521Z" fill="white" stroke="white" stroke-width="0.781823" stroke-miterlimit="10"/>
<path d="M83.1611 97.7324V102.976H85.8204V105.598H88.4807V113.463H91.1399V108.22H93.8002V110.841H99.1198V108.22H96.4595V105.598H91.1399V100.354H88.4807V97.7324H83.1611Z" fill="white" stroke="white" stroke-width="0.781823" stroke-miterlimit="10"/>
<path d="M88.4805 42.6775H91.1397V45.2986H93.8V50.5427H101.78V53.1637H109.759V50.5427H112.419V47.9206H115.078V45.2986H117.739V42.6775H125.718V40.0555H123.058V37.4344H120.399V34.8124H117.739V32.1903H115.078V29.5693H112.419V26.9472H109.759V24.3262H107.099H104.439V26.9472H101.78V29.5693H99.1196V32.1903L96.4593 34.8124H93.8V37.4344H91.1397V40.0555H88.4805V42.6775Z" fill="#6FCF97"/>
<path d="M93.8003 55.7899H101.78V58.4109H117.739V61.033H123.058V47.9247H125.719V42.6816H120.399H117.739V45.3027H112.419V47.9247H104.439V50.5468H99.1199L93.8003 55.7899Z" fill="#429966"/>
<path d="M99.1199 50.5449H93.8003V55.788H99.1199V50.5449Z" fill="#429966"/>
<path d="M96.4595 32.1914V34.8135L99.1198 32.1914H96.4595Z" fill="#6FCF97"/>
<path d="M83.1613 45.2988V55.7861H80.501L83.1613 45.2988Z" fill="#6FCF97"/>
</g>
</svg>
