<svg width="126" height="126" viewBox="0 0 126 126" fill="none" xmlns="http://www.w3.org/2000/svg">
<g style="mix-blend-mode:screen" opacity="0.25">
<path d="M82.8669 79.3804V89.8666H80.2066V92.4887H74.8871V95.1107H72.2268V97.7328H56.2681V95.1107H50.9486V92.4887H48.2883V89.8666H45.628V87.2445H40.3085V84.6225H34.9889V82.0004H29.6694V76.7573H27.0091V74.1352H24.3488V68.8921H21.6885V63.649L29.6683 32.1894H32.3286V29.5673H34.9889V24.3242H37.6492V21.7021H40.3095V19.0801H42.9698V16.458H45.6301V13.8359H61.5887V24.3221H64.249V34.8083H66.9093V37.4304H53.6099V40.0525H45.6301V71.5121L48.2904 79.3773H58.9295C58.9295 79.3773 56.2692 79.3773 58.9295 81.9994C61.5898 84.6214 74.8881 81.9994 74.8881 81.9994V79.3773H82.868L82.8669 79.3804Z" fill="#FFBF3C"/>
<path d="M66.9073 13.8397V24.327H69.5676V32.1911H74.8871H80.2067V29.5701H85.5263V26.948H88.1865H90.8458V24.327H93.5061H96.1654V21.7049H101.486V19.0839V16.4618H98.8256V13.8397H96.1654V11.2187H93.5061V8.59662H90.8458V5.97558H88.1865V3.35352H85.5263V5.97558H82.867H77.5464H74.8871V8.59662H69.5676H64.248V11.2187V13.8397H66.9073Z" fill="#FFBF3C"/>
<path d="M69.5674 32.1913V34.8133H80.2065H82.8668V40.0564H85.526V37.4354H88.1863V34.8133H90.8456V32.1913H93.5059V29.5702H96.1651V26.9482H98.8254V21.7051H96.1651H93.5059V24.3271H90.8456V26.9482H88.1863H85.526H82.8668V29.5702H80.2065H74.8869V32.1913H69.5674Z" fill="#B7892B"/>
<path d="M24.3496 71.5161H19.0301V68.8951H13.7105H11.0502V66.273V63.652H29.6692V66.273H32.3295H34.9887V63.652H40.3093V61.0299V58.4078H42.9686H64.2478V55.7868V53.1647H66.9071V47.9216V45.2995H64.2478V42.6785H53.6077V45.2995H42.9686V42.6785H45.6289H48.2881V40.0564H50.9484V37.4354H53.6077H56.268V34.8133H58.9272V24.3271H50.9484V21.7051H45.6289V24.3271H42.9686V26.9482H40.3093V29.5702H37.649H34.9887V32.1913H32.3295H29.6692V34.8133H27.0099V37.4354H24.3496V34.8133H21.6904H19.0301V37.4354H13.7105V40.0564H11.0502V42.6785V45.2995H8.39098V47.9216H5.73069V58.4078V61.0299H3.07143V63.652V66.273H0.411133V68.8951H3.07143V71.5161H5.73069V74.1382H8.39098V76.7592H11.0502H13.7105V79.3813H16.3698V82.0033H19.0301H21.6904V84.6244H24.3496H27.0099V87.2464H29.6692V89.8675H34.9887V87.2464H32.3295V84.6244H29.6692V79.3813H27.0099V76.7592V74.1382H24.3496V71.5161Z" fill="white" stroke="white" stroke-width="0.156365" stroke-miterlimit="10"/>
<path d="M32.3292 82.002V87.2451L29.6689 84.623V82.002H32.3292Z" fill="white" stroke="#A2A2A2" stroke-width="0.156365" stroke-miterlimit="10"/>
<path d="M29.6701 76.7598H27.0098V79.3818H29.6701V76.7598Z" fill="white" stroke="#A2A2A2" stroke-width="0.156365" stroke-miterlimit="10"/>
<path d="M13.7104 40.0547V47.9199H16.3697V53.163H21.6903V47.9199H27.0098V45.2978V40.0547" fill="white"/>
<path d="M13.7104 40.0547V47.9199H16.3697V53.163H21.6903V47.9199H27.0098V45.2978V40.0547" stroke="#111111" stroke-width="0.625458" stroke-miterlimit="10"/>
<path d="M40.3091 58.4071V55.7861H37.6488V53.164H34.9885V50.543H32.3292V47.9209H29.6689V45.2988" fill="white"/>
<path d="M40.3091 58.4071V55.7861H37.6488V53.164H34.9885V50.543H32.3292V47.9209H29.6689V45.2988" stroke="#111111" stroke-width="0.625458" stroke-miterlimit="10"/>
<path d="M21.6904 53.166V58.4091H24.3497V61.0312H27.01V63.6532" fill="white"/>
<path d="M21.6904 53.166V58.4091H24.3497V61.0312H27.01V63.6532" stroke="#111111" stroke-width="0.625458" stroke-miterlimit="10"/>
<path d="M74.8869 40.0547H72.2266V42.6768H64.2478V53.163H50.9484V61.0281V63.6502H48.2881V66.2712H50.9484V68.8933H53.6076V71.5143H56.2679V74.1364H58.9272V76.7574H74.8869V74.1364H80.2064V71.5143L82.8667 50.5419H85.526L88.1863 47.9199H82.8667V45.2978H77.5461V42.6768H74.8869V40.0547Z" fill="#FFBF3C"/>
<path d="M88.1862 47.9199V68.8934H85.5259V71.5144H82.8666V74.1365H80.2064H77.5461V76.7575H74.8868H61.5874V74.1365H69.5672V68.8934H74.8868V63.6503H77.5461V61.0282H80.2064V55.7851H82.8666V53.163V50.542V47.9199H88.1862Z" fill="#B7892B"/>
<path d="M112.125 63.6523H120.105V84.6247H117.444V87.2468H114.784V89.8678H109.465V92.4899H104.145V95.112H101.486V92.4899H98.8254V89.8678H96.1651V87.2468H93.5059V84.6247V82.0037L112.125 63.6523Z" fill="#B7892B"/>
<path d="M85.5264 76.7596V74.1385H88.1867V71.5165H90.8459V68.8954H93.5062V63.6523H112.125V76.7596H106.806V79.3816H101.486H98.8258V82.0037H93.5062V84.6247H90.8459V82.0037V79.3816H85.5264V76.7596Z" fill="#FFBF3C"/>
<path d="M82.8664 79.3809V82.0029H85.5257V84.624H88.186V87.246H90.8452V89.8671H93.5055V95.1112H90.8452H88.186V97.7322H82.8664V100.354H77.5458V102.975H61.5872V100.354H53.6073V97.7322H42.9682V95.1112H37.6487V92.4891H34.9884V87.246H32.3291V82.0029H34.9884L82.8664 79.3809Z" fill="#B7892B"/>
<path d="M74.887 79.3809H56.2681V84.624H74.887V79.3809Z" fill="#FFBF3C"/>
<path d="M56.2681 100.354H61.5876V102.975H64.2479V105.597H58.9273V102.975H56.2681V100.354Z" fill="#A2A2A2" stroke="white" stroke-width="0.781823" stroke-miterlimit="10"/>
<path d="M72.2266 102.975V105.597H74.8869H80.2064V100.354H77.5461V102.975H72.2266Z" fill="#A2A2A2" stroke="white" stroke-width="0.781823" stroke-miterlimit="10"/>
<path d="M82.8667 100.354V102.976H88.1863V97.7324H82.8667V100.354Z" fill="#A2A2A2" stroke="#A2A2A2" stroke-width="0.781823" stroke-miterlimit="10"/>
<path d="M58.9272 105.598V108.22H61.5875V113.463H58.9272V116.084V118.706H64.2478V116.084H69.5674V110.841H66.9071V108.22H64.2478V105.598H58.9272Z" fill="white" stroke="white" stroke-width="0.781823" stroke-miterlimit="10"/>
<path d="M72.2266 105.598V118.706H74.8869H77.5461V121.327H80.2064V118.706H82.8667V113.463H77.5461V105.598H72.2266Z" fill="white" stroke="white" stroke-width="0.781823" stroke-miterlimit="10"/>
<path d="M82.8667 97.7324V102.976H85.526V105.598H88.1863V113.463H90.8455V108.22H93.5058V110.841H98.8254V108.22H96.1651V105.598H90.8455V100.354H88.1863V97.7324H82.8667Z" fill="white" stroke="white" stroke-width="0.781823" stroke-miterlimit="10"/>
<path d="M88.1865 42.6775H90.8458V45.2986H93.5061V50.5427H101.486V53.1637H109.465V50.5427H112.125V47.9206H114.784V45.2986H117.445V42.6775H125.424V40.0555H122.764V37.4344H120.105V34.8124H117.445V32.1903H114.784V29.5693H112.125V26.9472H109.465V24.3262H106.805H104.145V26.9472H101.486V29.5693H98.8256V32.1903L96.1653 34.8124H93.5061V37.4344H90.8458V40.0555H88.1865V42.6775Z" fill="#FFBF3C"/>
<path d="M93.5059 55.7899H101.486V58.4109H117.444V61.033H122.764V47.9247H125.424V42.6816H120.105H117.444V45.3027H112.125V47.9247H104.145V50.5468H98.8254L93.5059 55.7899Z" fill="#B7892B"/>
<path d="M98.8254 50.5449H93.5059V55.788H98.8254V50.5449Z" fill="#B7892B"/>
<path d="M96.165 32.1914V34.8135L98.8253 32.1914H96.165Z" fill="#FFBF3C"/>
<path d="M82.8668 45.2988V55.7861H80.2065L82.8668 45.2988Z" fill="#FFBF3C"/>
</g>
</svg>
