<svg width="77" height="76" viewBox="0 0 77 76" fill="none" xmlns="http://www.w3.org/2000/svg">
<path d="M48.7427 40.8243C48.7427 48.1704 42.756 54.129 35.366 54.129C27.976 54.129 21.9893 48.1745 21.9893 40.8243C21.9893 33.474 27.976 27.5195 35.366 27.5195C42.756 27.5195 48.7427 33.474 48.7427 40.8243Z" fill="#187DFF"/>
<path d="M35.4444 19.4592C36.3307 19.4592 37.2047 19.5123 38.0623 19.6184L40.4463 0.318334C38.7639 0.110193 37.0488 0 35.309 0C28.4688 0 22.0184 1.66513 16.3477 4.61176L25.4652 21.9038C28.4483 20.3448 31.8417 19.4592 35.4444 19.4592Z" fill="#187DFF"/>
<path d="M73.7032 26.422L55.5215 33.2622C56.416 35.6129 56.9084 38.1596 56.9084 40.8205C56.9084 42.5877 56.6909 44.3059 56.2847 45.9465L75.1516 50.5828C75.9231 47.4525 76.3375 44.1835 76.3375 40.8205C76.3375 35.7517 75.406 30.8991 73.7073 26.418" fill="#187DFF"/>
<path d="M53.0639 28.7032L69.0832 17.7288C64.4177 10.9785 57.7622 5.69332 49.9618 2.70996L43.019 20.855C47.1182 22.4059 50.6142 25.1729 53.0639 28.7073" fill="#187DFF"/>
<path d="M11.9324 14.4766L21.1402 24.8306C16.7004 28.7445 13.8979 34.4582 13.8979 40.8248C13.8979 52.6236 23.516 62.19 35.3786 62.19C43.6221 62.19 50.7783 57.57 54.3809 50.7911L64.4545 56.0437L66.6785 57.2027C60.7534 68.3811 48.9564 76.0008 35.3704 76.0008C15.8346 76.0008 0 60.2514 0 40.8248C0 30.3402 4.6121 20.9249 11.9324 14.4766Z" fill="#231F20"/>
</svg>
