<svg width="655" height="950" viewBox="0 0 655 950" fill="none" xmlns="http://www.w3.org/2000/svg">
<g clip-path="url(#clip0_12562_6168)">
<path d="M404.5 -100L404.5 -125L429.5 -125L429.5 -100L404.5 -100ZM254.5 -175L229.5 -175L229.5 -200L254.5 -200L254.5 -175ZM554.5 -175L579.5 -175L579.5 -150L554.5 -150L554.5 -175ZM529.5 -350C529.5 -363.807 540.693 -375 554.5 -375C568.307 -375 579.5 -363.807 579.5 -350L529.5 -350ZM254.5 -100L254.5 -75L229.5 -75L229.5 -100L254.5 -100ZM429.5 71.5L429.5 96.5L379.5 96.5L379.5 71.5L429.5 71.5ZM254.5 -200L554.5 -200L554.5 -150L254.5 -150L254.5 -200ZM529.5 -175L529.5 -350L579.5 -350L579.5 -175L529.5 -175ZM404.5 -75L254.5 -75L254.5 -125L404.5 -125L404.5 -75ZM229.5 -100L229.5 -175L279.5 -175L279.5 -100L229.5 -100ZM429.5 -100L429.5 71.5L379.5 71.5L379.5 -100L429.5 -100Z" fill="url(#paint0_linear_12562_6168)"/>
<path d="M404.5 174H379.5V199H404.5V174ZM578.5 174H603.5V149H578.5V174ZM578.5 374V399H603.5V374H578.5ZM152 374V349H127V374H152ZM152 449.5H127V474.5H152V449.5ZM303.5 449.5H328.5V424.5H303.5V449.5ZM54.5 727V702H29.5V727H54.5ZM329.5 1049C329.5 1062.81 340.693 1074 354.5 1074C368.307 1074 379.5 1062.81 379.5 1049H329.5ZM354.5 900H379.5V875H354.5V900ZM54.5 900H29.5V925H54.5V900ZM303.5 727V752H328.5V727H303.5ZM379.5 82V174H429.5V82H379.5ZM404.5 199H578.5V149H404.5V199ZM553.5 174V299.5H603.5V174H553.5ZM553.5 299.5V374H603.5V299.5H553.5ZM578.5 349H152V399H578.5V349ZM127 374V449.5H177V374H127ZM152 474.5H303.5V424.5H152V474.5ZM329.5 900V1049H379.5V900H329.5ZM29.5 727V900H79.5V727H29.5ZM54.5 925H213.75V875H54.5V925ZM213.75 925H354.5V875H213.75V925ZM278.5 449.5V727H328.5V449.5H278.5ZM303.5 702H54.5V752H303.5V702Z" fill="url(#paint1_linear_12562_6168)"/>
</g>
<defs>
<linearGradient id="paint0_linear_12562_6168" x1="404.75" y1="-359.5" x2="404.75" y2="141.5" gradientUnits="userSpaceOnUse">
<stop stop-color="#6FCF97"/>
<stop offset="0.771982" stop-color="#187DFF"/>
</linearGradient>
<linearGradient id="paint1_linear_12562_6168" x1="341.75" y1="272" x2="330" y2="2162.5" gradientUnits="userSpaceOnUse">
<stop offset="0.095" stop-color="#187DFF"/>
<stop offset="0.29" stop-color="#A559EC"/>
</linearGradient>
<clipPath id="clip0_12562_6168">
<rect width="655" height="950" fill="white"/>
</clipPath>
</defs>
</svg>
