<svg width="655" height="683" viewBox="0 0 655 683" fill="none" xmlns="http://www.w3.org/2000/svg">
<g clip-path="url(#clip0_12625_11175)">
<path d="M404.5 -801H379.5V-776H404.5V-801ZM578.5 -801H603.5V-826H578.5V-801ZM578.5 -601V-576H603.5V-601H578.5ZM152 -601V-626H127V-601H152ZM152 -525.5H127V-500.5H152V-525.5ZM303.5 -525.5H328.5V-550.5H303.5V-525.5ZM54.5 -248V-273H29.5V-248H54.5ZM329.5 74C329.5 87.8071 340.693 99 354.5 99C368.307 99 379.5 87.8071 379.5 74H329.5ZM354.5 -75H379.5V-100H354.5V-75ZM54.5 -75H29.5V-50H54.5V-75ZM303.5 -248V-223H328.5V-248H303.5ZM379.5 -893V-801H429.5V-893H379.5ZM404.5 -776H578.5V-826H404.5V-776ZM553.5 -801V-675.5H603.5V-801H553.5ZM553.5 -675.5V-601H603.5V-675.5H553.5ZM578.5 -626H152V-576H578.5V-626ZM127 -601V-525.5H177V-601H127ZM152 -500.5H303.5V-550.5H152V-500.5ZM329.5 -75V74H379.5V-75H329.5ZM29.5 -248V-75H79.5V-248H29.5ZM54.5 -50H213.75V-100H54.5V-50ZM213.75 -50H354.5V-100H213.75V-50ZM278.5 -525.5V-248H328.5V-525.5H278.5ZM303.5 -273H54.5V-223H303.5V-273Z" fill="url(#paint0_linear_12625_11175)"/>
<path d="M354.5 175V200H379.5V175H354.5ZM189.5 175V150H164.5V175H189.5ZM189.5 250.5H164.5V275.5H189.5V250.5ZM554.5 250.5H579.5V225.5H554.5V250.5ZM554.5 325V350H579.5V325H554.5ZM42 325V300H17V325H42ZM42 400.5H17V425.5H42V400.5ZM453.5 400.5H478.5V375.5H453.5V400.5ZM453.5 476V501H478.5V476H453.5ZM130.5 476V451H105.5V476H130.5ZM305 753C305 766.807 316.193 778 330 778C343.807 778 355 766.807 355 753H305ZM330 549H355V524H330V549ZM130.5 549H105.5V574H130.5V549ZM329.5 61V175H379.5V61H329.5ZM354.5 150H189.5V200H354.5V150ZM164.5 175V250.5H214.5V175H164.5ZM189.5 275.5H554.5V225.5H189.5V275.5ZM529.5 250.5V325H579.5V250.5H529.5ZM554.5 300H42V350H554.5V300ZM17 325V400.5H67V325H17ZM42 425.5H453.5V375.5H42V425.5ZM428.5 400.5V476H478.5V400.5H428.5ZM453.5 451H130.5V501H453.5V451ZM305 549V753H355V549H305ZM105.5 476V549H155.5V476H105.5ZM130.5 574H330V524H130.5V574Z" fill="url(#paint1_linear_12625_11175)"/>
</g>
<defs>
<linearGradient id="paint0_linear_12625_11175" x1="341.75" y1="-703" x2="330" y2="1187.5" gradientUnits="userSpaceOnUse">
<stop offset="0.095" stop-color="#187DFF"/>
<stop offset="0.29" stop-color="#A559EC"/>
</linearGradient>
<linearGradient id="paint1_linear_12625_11175" x1="291.75" y1="71" x2="280" y2="1961.5" gradientUnits="userSpaceOnUse">
<stop stop-color="#A559EC"/>
<stop offset="0.44" stop-color="#FF6660"/>
</linearGradient>
<clipPath id="clip0_12625_11175">
<rect width="655" height="683" fill="white"/>
</clipPath>
</defs>
</svg>
