<svg width="655" height="1017" viewBox="0 0 655 1017" fill="none" xmlns="http://www.w3.org/2000/svg">
<g clip-path="url(#clip0_12625_11194)">
<path d="M354.5 -497V-472H379.5V-497H354.5ZM189.5 -497V-522H164.5V-497H189.5ZM189.5 -421.5H164.5V-396.5H189.5V-421.5ZM554.5 -421.5H579.5V-446.5H554.5V-421.5ZM554.5 -347V-322H579.5V-347H554.5ZM42 -347V-372H17V-347H42ZM42 -271.5H17V-246.5H42V-271.5ZM453.5 -271.5H478.5V-296.5H453.5V-271.5ZM453.5 -196V-171H478.5V-196H453.5ZM130.5 -196V-221H105.5V-196H130.5ZM305 81C305 94.8071 316.193 106 330 106C343.807 106 355 94.8071 355 81H305ZM330 -123H355V-148H330V-123ZM130.5 -123H105.5V-98H130.5V-123ZM329.5 -611V-497H379.5V-611H329.5ZM354.5 -522H189.5V-472H354.5V-522ZM164.5 -497V-421.5H214.5V-497H164.5ZM189.5 -396.5H554.5V-446.5H189.5V-396.5ZM529.5 -421.5V-347H579.5V-421.5H529.5ZM554.5 -372H42V-322H554.5V-372ZM17 -347V-271.5H67V-347H17ZM42 -246.5H453.5V-296.5H42V-246.5ZM428.5 -271.5V-196H478.5V-271.5H428.5ZM453.5 -221H130.5V-171H453.5V-221ZM305 -123V81H355V-123H305ZM105.5 -196V-123H155.5V-196H105.5ZM130.5 -98H330V-148H130.5V-98Z" fill="url(#paint0_linear_12625_11194)"/>
</g>
<defs>
<linearGradient id="paint0_linear_12625_11194" x1="291.75" y1="-601" x2="280" y2="1289.5" gradientUnits="userSpaceOnUse">
<stop stop-color="#A559EC"/>
<stop offset="0.44" stop-color="#FF6660"/>
</linearGradient>
<clipPath id="clip0_12625_11194">
<rect width="655" height="1017" fill="white"/>
</clipPath>
</defs>
</svg>
