<svg width="1305" height="411" viewBox="0 0 1305 411" fill="none" xmlns="http://www.w3.org/2000/svg">
<path d="M808.539 33V48.0783" stroke="white" stroke-width="4.27147" stroke-miterlimit="10" stroke-linecap="square" stroke-linejoin="round"/>
<path d="M816.078 40.5391H801" stroke="white" stroke-width="4.27147" stroke-miterlimit="10" stroke-linecap="square" stroke-linejoin="round"/>
<path d="M808.539 33V48.0783" stroke="white" stroke-width="4.27147" stroke-miterlimit="10" stroke-linecap="square" stroke-linejoin="round"/>
<path d="M816.078 40.5391H801" stroke="white" stroke-width="4.27147" stroke-miterlimit="10" stroke-linecap="square" stroke-linejoin="round"/>
<path d="M808.539 33V48.0783" stroke="white" stroke-width="4.27147" stroke-miterlimit="10" stroke-linecap="square" stroke-linejoin="round"/>
<path d="M816.078 40.5391H801" stroke="white" stroke-width="4.27147" stroke-miterlimit="10" stroke-linecap="square" stroke-linejoin="round"/>
<path d="M1123 80V110" stroke="white" stroke-width="5" stroke-miterlimit="10" stroke-linecap="square" stroke-linejoin="round"/>
<path d="M1138 95H1108" stroke="white" stroke-width="5" stroke-miterlimit="10" stroke-linecap="square" stroke-linejoin="round"/>
<path d="M1012.54 158V173.078" stroke="white" stroke-width="4.27147" stroke-miterlimit="10" stroke-linecap="square" stroke-linejoin="round"/>
<path d="M1020.08 165.539H1005" stroke="white" stroke-width="4.27147" stroke-miterlimit="10" stroke-linecap="square" stroke-linejoin="round"/>
<path d="M907.539 221V236.078" stroke="white" stroke-width="4.27147" stroke-miterlimit="10" stroke-linecap="square" stroke-linejoin="round"/>
<path d="M915.078 228.539H900" stroke="white" stroke-width="4.27147" stroke-miterlimit="10" stroke-linecap="square" stroke-linejoin="round"/>
<path d="M927.539 57V72.0783" stroke="white" stroke-width="4.27147" stroke-miterlimit="10" stroke-linecap="square" stroke-linejoin="round"/>
<path d="M935.078 64.5391H920" stroke="white" stroke-width="4.27147" stroke-miterlimit="10" stroke-linecap="square" stroke-linejoin="round"/>
<path d="M1268.54 54V69.0783" stroke="white" stroke-width="4.27147" stroke-miterlimit="10" stroke-linecap="square" stroke-linejoin="round"/>
<path d="M1276.08 61.5391H1261" stroke="white" stroke-width="4.27147" stroke-miterlimit="10" stroke-linecap="square" stroke-linejoin="round"/>
<path d="M1279.5 231V276" stroke="white" stroke-width="5" stroke-miterlimit="10" stroke-linecap="square" stroke-linejoin="round"/>
<path d="M1302 253.5H1257" stroke="white" stroke-width="5" stroke-miterlimit="10" stroke-linecap="square" stroke-linejoin="round"/>
<rect x="1271" y="249" width="17" height="9" fill="white"/>
<rect x="1285" y="241" width="25" height="11" transform="rotate(90 1285 241)" fill="white"/>
<path d="M1200.54 204V219.078" stroke="white" stroke-width="4.27147" stroke-miterlimit="10" stroke-linecap="square" stroke-linejoin="round"/>
<path d="M1208.08 211.539H1193" stroke="white" stroke-width="4.27147" stroke-miterlimit="10" stroke-linecap="square" stroke-linejoin="round"/>
<path d="M1200.54 204V219.078" stroke="white" stroke-width="4.27147" stroke-miterlimit="10" stroke-linecap="square" stroke-linejoin="round"/>
<path d="M1208.08 211.539H1193" stroke="white" stroke-width="4.27147" stroke-miterlimit="10" stroke-linecap="square" stroke-linejoin="round"/>
<path d="M1200.54 204V219.078" stroke="white" stroke-width="4.27147" stroke-miterlimit="10" stroke-linecap="square" stroke-linejoin="round"/>
<path d="M1208.08 211.539H1193" stroke="white" stroke-width="4.27147" stroke-miterlimit="10" stroke-linecap="square" stroke-linejoin="round"/>
<path d="M182.5 204V249" stroke="white" stroke-width="5" stroke-miterlimit="10" stroke-linecap="square" stroke-linejoin="round"/>
<path d="M205 226.5H160" stroke="white" stroke-width="5" stroke-miterlimit="10" stroke-linecap="square" stroke-linejoin="round"/>
<rect x="174" y="222" width="17" height="9" fill="white"/>
<rect x="188" y="214" width="25" height="11" transform="rotate(90 188 214)" fill="white"/>
<path d="M10.5391 248V263.078" stroke="white" stroke-width="5" stroke-miterlimit="10" stroke-linecap="square" stroke-linejoin="round"/>
<path d="M18.0783 255.539H3" stroke="white" stroke-width="5" stroke-miterlimit="10" stroke-linecap="square" stroke-linejoin="round"/>
<path d="M10.5391 248V263.078" stroke="white" stroke-width="5" stroke-miterlimit="10" stroke-linecap="square" stroke-linejoin="round"/>
<path d="M18.0783 255.539H3" stroke="white" stroke-width="5" stroke-miterlimit="10" stroke-linecap="square" stroke-linejoin="round"/>
<path d="M10.5391 248V263.078" stroke="white" stroke-width="5" stroke-miterlimit="10" stroke-linecap="square" stroke-linejoin="round"/>
<path d="M18.0783 255.539H3" stroke="white" stroke-width="5" stroke-miterlimit="10" stroke-linecap="square" stroke-linejoin="round"/>
<path d="M272.539 117V132.078" stroke="white" stroke-width="5" stroke-miterlimit="10" stroke-linecap="square" stroke-linejoin="round"/>
<path d="M280.078 124.539H265" stroke="white" stroke-width="5" stroke-miterlimit="10" stroke-linecap="square" stroke-linejoin="round"/>
<path d="M272.539 117V132.078" stroke="white" stroke-width="5" stroke-miterlimit="10" stroke-linecap="square" stroke-linejoin="round"/>
<path d="M280.078 124.539H265" stroke="white" stroke-width="5" stroke-miterlimit="10" stroke-linecap="square" stroke-linejoin="round"/>
<path d="M272.539 117V132.078" stroke="white" stroke-width="5" stroke-miterlimit="10" stroke-linecap="square" stroke-linejoin="round"/>
<path d="M280.078 124.539H265" stroke="white" stroke-width="5" stroke-miterlimit="10" stroke-linecap="square" stroke-linejoin="round"/>
<path d="M438.539 77V92.0783" stroke="white" stroke-width="5" stroke-miterlimit="10" stroke-linecap="square" stroke-linejoin="round"/>
<path d="M446.078 84.5391H431" stroke="white" stroke-width="5" stroke-miterlimit="10" stroke-linecap="square" stroke-linejoin="round"/>
<path d="M438.539 77V92.0783" stroke="white" stroke-width="5" stroke-miterlimit="10" stroke-linecap="square" stroke-linejoin="round"/>
<path d="M446.078 84.5391H431" stroke="white" stroke-width="5" stroke-miterlimit="10" stroke-linecap="square" stroke-linejoin="round"/>
<path d="M438.539 77V92.0783" stroke="white" stroke-width="5" stroke-miterlimit="10" stroke-linecap="square" stroke-linejoin="round"/>
<path d="M446.078 84.5391H431" stroke="white" stroke-width="5" stroke-miterlimit="10" stroke-linecap="square" stroke-linejoin="round"/>
<path d="M684.539 211V226.078" stroke="white" stroke-width="5" stroke-miterlimit="10" stroke-linecap="square" stroke-linejoin="round"/>
<path d="M692.078 218.539H677" stroke="white" stroke-width="5" stroke-miterlimit="10" stroke-linecap="square" stroke-linejoin="round"/>
<path d="M684.539 211V226.078" stroke="white" stroke-width="5" stroke-miterlimit="10" stroke-linecap="square" stroke-linejoin="round"/>
<path d="M692.078 218.539H677" stroke="white" stroke-width="5" stroke-miterlimit="10" stroke-linecap="square" stroke-linejoin="round"/>
<path d="M684.539 211V226.078" stroke="white" stroke-width="5" stroke-miterlimit="10" stroke-linecap="square" stroke-linejoin="round"/>
<path d="M692.078 218.539H677" stroke="white" stroke-width="5" stroke-miterlimit="10" stroke-linecap="square" stroke-linejoin="round"/>
<path d="M834.5 194V239" stroke="white" stroke-width="5" stroke-miterlimit="10" stroke-linecap="square" stroke-linejoin="round"/>
<path d="M857 216.5H812" stroke="white" stroke-width="5" stroke-miterlimit="10" stroke-linecap="square" stroke-linejoin="round"/>
<rect x="826" y="212" width="17" height="9" fill="white"/>
<rect x="840" y="204" width="25" height="11" transform="rotate(90 840 204)" fill="white"/>
<path d="M572.5 152V197" stroke="white" stroke-width="5" stroke-miterlimit="10" stroke-linecap="square" stroke-linejoin="round"/>
<path d="M595 174.5H550" stroke="white" stroke-width="5" stroke-miterlimit="10" stroke-linecap="square" stroke-linejoin="round"/>
<rect x="564" y="170" width="17" height="9" fill="white"/>
<rect x="578" y="162" width="25" height="11" transform="rotate(90 578 162)" fill="white"/>
<path d="M495 226V256" stroke="white" stroke-width="5" stroke-miterlimit="10" stroke-linecap="square" stroke-linejoin="round"/>
<path d="M510 241H480" stroke="white" stroke-width="5" stroke-miterlimit="10" stroke-linecap="square" stroke-linejoin="round"/>
<path d="M103 36V66" stroke="white" stroke-width="5" stroke-miterlimit="10" stroke-linecap="square" stroke-linejoin="round"/>
<path d="M118 51H88" stroke="white" stroke-width="5" stroke-miterlimit="10" stroke-linecap="square" stroke-linejoin="round"/>
<path d="M764 141V171" stroke="white" stroke-width="5" stroke-miterlimit="10" stroke-linecap="square" stroke-linejoin="round"/>
<path d="M779 156H749" stroke="white" stroke-width="5" stroke-miterlimit="10" stroke-linecap="square" stroke-linejoin="round"/>
<path d="M359 169V199" stroke="white" stroke-width="5" stroke-miterlimit="10" stroke-linecap="square" stroke-linejoin="round"/>
<path d="M374 184H344" stroke="white" stroke-width="5" stroke-miterlimit="10" stroke-linecap="square" stroke-linejoin="round"/>
<path d="M1175 316V346" stroke="white" stroke-width="5" stroke-miterlimit="10" stroke-linecap="square" stroke-linejoin="round"/>
<path d="M1190 331H1160" stroke="white" stroke-width="5" stroke-miterlimit="10" stroke-linecap="square" stroke-linejoin="round"/>
<path d="M1286.54 393V408.078" stroke="white" stroke-width="4.27147" stroke-miterlimit="10" stroke-linecap="square" stroke-linejoin="round"/>
<path d="M1294.08 400.539H1279" stroke="white" stroke-width="4.27147" stroke-miterlimit="10" stroke-linecap="square" stroke-linejoin="round"/>
<path d="M1286.54 393V408.078" stroke="white" stroke-width="4.27147" stroke-miterlimit="10" stroke-linecap="square" stroke-linejoin="round"/>
<path d="M1294.08 400.539H1279" stroke="white" stroke-width="4.27147" stroke-miterlimit="10" stroke-linecap="square" stroke-linejoin="round"/>
<path d="M1286.54 393V408.078" stroke="white" stroke-width="4.27147" stroke-miterlimit="10" stroke-linecap="square" stroke-linejoin="round"/>
<path d="M1294.08 400.539H1279" stroke="white" stroke-width="4.27147" stroke-miterlimit="10" stroke-linecap="square" stroke-linejoin="round"/>
<path d="M1079.5 244V289" stroke="white" stroke-width="5" stroke-miterlimit="10" stroke-linecap="square" stroke-linejoin="round"/>
<path d="M1102 266.5H1057" stroke="white" stroke-width="5" stroke-miterlimit="10" stroke-linecap="square" stroke-linejoin="round"/>
<rect x="1071" y="262" width="17" height="9" fill="white"/>
<rect x="1085" y="254" width="25" height="11" transform="rotate(90 1085 254)" fill="white"/>
<path d="M33.5 109V154" stroke="white" stroke-width="5" stroke-miterlimit="10" stroke-linecap="square" stroke-linejoin="round"/>
<path d="M56 131.5H11" stroke="white" stroke-width="5" stroke-miterlimit="10" stroke-linecap="square" stroke-linejoin="round"/>
<rect x="25" y="127" width="17" height="9" fill="white"/>
<rect x="39" y="119" width="25" height="11" transform="rotate(90 39 119)" fill="white"/>
</svg>
