<svg width="54" height="68" viewBox="0 0 54 68" fill="none" xmlns="http://www.w3.org/2000/svg">
<path fill-rule="evenodd" clip-rule="evenodd" d="M48.4371 48.1349L22.6086 22.0013C22.3208 21.7101 22.1019 21.3581 21.968 20.9712C21.8341 20.5843 21.7887 20.1723 21.8349 19.7655C21.8812 19.3587 22.0181 18.9674 22.2355 18.6204C22.4529 18.2735 22.7453 17.9797 23.0912 17.7606L48.8762 1.42954C50.6982 0.274991 53.0789 1.58327 53.0812 3.74167L53.1245 46.2064C53.1276 48.657 50.1594 49.8778 48.4371 48.1349Z" fill="#187DFF"/>
<path fill-rule="evenodd" clip-rule="evenodd" d="M48.4371 48.1349L22.6086 22.0013C22.3208 21.7101 22.1019 21.3581 21.968 20.9712C21.8341 20.5843 21.7887 20.1723 21.8349 19.7655C21.8812 19.3587 22.0181 18.9674 22.2355 18.6204C22.4529 18.2735 22.7453 17.9797 23.0912 17.7606L48.8762 1.42954C50.6982 0.274991 53.0789 1.58327 53.0812 3.74167L53.1245 46.2064C53.1276 48.657 50.1587 49.8778 48.4363 48.1349H48.4371Z" stroke="#187DFF" stroke-width="0.191815" stroke-linejoin="round"/>
<path fill-rule="evenodd" clip-rule="evenodd" d="M31.21 47.3713L5.37162 63.6993C3.55189 64.8485 1.17735 63.5471 1.16898 61.3932L1.00002 18.3927C0.990131 15.9299 3.98266 14.7061 5.70192 16.4695L31.7077 43.1435C31.9926 43.4357 32.2085 43.7878 32.3399 44.1741C32.4713 44.5604 32.5147 44.9712 32.467 45.3764C32.4193 45.7817 32.2817 46.1711 32.0642 46.5164C31.8467 46.8617 31.5549 47.154 31.21 47.372" fill="#187DFF"/>
<path fill-rule="evenodd" clip-rule="evenodd" d="M31.21 47.3713L5.37162 63.6993C3.55189 64.8485 1.17735 63.5471 1.16898 61.3932L1.00002 18.3927C0.990131 15.9299 3.98266 14.7061 5.70192 16.4695L31.7077 43.1435C31.9926 43.4357 32.2085 43.7878 32.3399 44.1741C32.4713 44.5604 32.5147 44.9712 32.467 45.3764C32.4193 45.7817 32.2817 46.1711 32.0642 46.5164C31.8467 46.8617 31.5549 47.154 31.21 47.372V47.3713Z" stroke="#187DFF" stroke-width="0.191815" stroke-linejoin="round"/>
<path fill-rule="evenodd" clip-rule="evenodd" d="M37.9348 52.8391L23.6975 62.8853C21.5132 64.4272 22.6038 67.8642 25.2775 67.8642H51.1409C53.6791 67.8642 54.8527 64.7111 52.9325 63.0512L41.3071 53.0051C40.8444 52.605 40.261 52.3713 39.65 52.3412C39.0389 52.3111 38.4354 52.4864 37.9356 52.8391" fill="#187DFF"/>
<path fill-rule="evenodd" clip-rule="evenodd" d="M37.9348 52.8391L23.6975 62.8853C21.5132 64.4272 22.6038 67.8642 25.2775 67.8642H51.1409C53.6791 67.8642 54.8527 64.7111 52.9325 63.0512L41.3071 53.0051C40.8444 52.605 40.261 52.3713 39.65 52.3412C39.0389 52.3111 38.4354 52.4864 37.9356 52.8391H37.9348Z" stroke="#187DFF" stroke-width="0.191815" stroke-linejoin="round"/>
</svg>
