<svg width="409" height="104" viewBox="0 0 409 104" fill="none" xmlns="http://www.w3.org/2000/svg">
<path d="M10.5391 65V80.0783" stroke="white" stroke-width="4.27147" stroke-miterlimit="10" stroke-linecap="square" stroke-linejoin="round"/>
<path d="M18.0783 72.5391H3" stroke="white" stroke-width="4.27147" stroke-miterlimit="10" stroke-linecap="square" stroke-linejoin="round"/>
<path d="M398.539 51V66.0783" stroke="white" stroke-width="4.27147" stroke-miterlimit="10" stroke-linecap="square" stroke-linejoin="round"/>
<path d="M406.078 58.5391H391" stroke="white" stroke-width="4.27147" stroke-miterlimit="10" stroke-linecap="square" stroke-linejoin="round"/>
<path d="M137.539 48V63.0783" stroke="white" stroke-width="4.27147" stroke-miterlimit="10" stroke-linecap="square" stroke-linejoin="round"/>
<path d="M145.078 55.5391H130" stroke="white" stroke-width="4.27147" stroke-miterlimit="10" stroke-linecap="square" stroke-linejoin="round"/>
<path d="M137.539 48V63.0783" stroke="white" stroke-width="4.27147" stroke-miterlimit="10" stroke-linecap="square" stroke-linejoin="round"/>
<path d="M145.078 55.5391H130" stroke="white" stroke-width="4.27147" stroke-miterlimit="10" stroke-linecap="square" stroke-linejoin="round"/>
<path d="M137.539 48V63.0783" stroke="white" stroke-width="4.27147" stroke-miterlimit="10" stroke-linecap="square" stroke-linejoin="round"/>
<path d="M145.078 55.5391H130" stroke="white" stroke-width="4.27147" stroke-miterlimit="10" stroke-linecap="square" stroke-linejoin="round"/>
<path d="M183 71V101" stroke="white" stroke-width="5" stroke-miterlimit="10" stroke-linecap="square" stroke-linejoin="round"/>
<path d="M198 86H168" stroke="white" stroke-width="5" stroke-miterlimit="10" stroke-linecap="square" stroke-linejoin="round"/>
<path d="M290.539 24V39.0783" stroke="white" stroke-width="4.27147" stroke-miterlimit="10" stroke-linecap="square" stroke-linejoin="round"/>
<path d="M298.078 31.5391H283" stroke="white" stroke-width="4.27147" stroke-miterlimit="10" stroke-linecap="square" stroke-linejoin="round"/>
<path d="M290.539 24V39.0783" stroke="white" stroke-width="4.27147" stroke-miterlimit="10" stroke-linecap="square" stroke-linejoin="round"/>
<path d="M298.078 31.5391H283" stroke="white" stroke-width="4.27147" stroke-miterlimit="10" stroke-linecap="square" stroke-linejoin="round"/>
<path d="M290.539 24V39.0783" stroke="white" stroke-width="4.27147" stroke-miterlimit="10" stroke-linecap="square" stroke-linejoin="round"/>
<path d="M298.078 31.5391H283" stroke="white" stroke-width="4.27147" stroke-miterlimit="10" stroke-linecap="square" stroke-linejoin="round"/>
<path d="M89.5 12V57" stroke="white" stroke-width="5" stroke-miterlimit="10" stroke-linecap="square" stroke-linejoin="round"/>
<path d="M112 34.5H67" stroke="white" stroke-width="5" stroke-miterlimit="10" stroke-linecap="square" stroke-linejoin="round"/>
<rect x="81" y="30" width="17" height="9" fill="white"/>
<rect x="95" y="22" width="25" height="11" transform="rotate(90 95 22)" fill="white"/>
<path d="M246.5 49V94" stroke="white" stroke-width="5" stroke-miterlimit="10" stroke-linecap="square" stroke-linejoin="round"/>
<path d="M269 71.5H224" stroke="white" stroke-width="5" stroke-miterlimit="10" stroke-linecap="square" stroke-linejoin="round"/>
<rect x="238" y="67" width="17" height="9" fill="white"/>
<rect x="252" y="59" width="25" height="11" transform="rotate(90 252 59)" fill="white"/>
<path d="M355.5 3V48" stroke="white" stroke-width="5" stroke-miterlimit="10" stroke-linecap="square" stroke-linejoin="round"/>
<path d="M378 25.5H333" stroke="white" stroke-width="5" stroke-miterlimit="10" stroke-linecap="square" stroke-linejoin="round"/>
<rect x="347" y="21" width="17" height="9" fill="white"/>
<rect x="361" y="13" width="25" height="11" transform="rotate(90 361 13)" fill="white"/>
</svg>
