<svg width="71" height="71" viewBox="0 0 71 71" fill="none" xmlns="http://www.w3.org/2000/svg">
<path d="M27.2902 35.2501C27.2902 39.6381 30.8618 43.2098 35.2498 43.2098C39.6379 43.2098 43.2095 39.6381 43.2095 35.2501C43.2095 30.8621 39.6379 27.2904 35.2498 27.2904C30.8618 27.2904 27.2902 30.8621 27.2902 35.2501ZM40.9353 35.2501C40.9353 38.3852 38.385 40.9356 35.2498 40.9356C32.1147 40.9356 29.5644 38.3852 29.5644 35.2501C29.5644 32.1149 32.1147 29.5646 35.2498 29.5646C38.385 29.5646 40.9353 32.1149 40.9353 35.2501Z" fill="#FF6660"/>
<path d="M31.8386 35.2502C31.8386 37.131 33.3691 38.6614 35.2499 38.6614C37.1307 38.6614 38.6612 37.131 38.6612 35.2502C38.6612 33.3693 37.1307 31.8389 35.2499 31.8389C33.3691 31.8389 31.8386 33.3693 31.8386 35.2502ZM36.387 35.2502C36.387 35.8776 35.8773 36.3873 35.2499 36.3873C34.6225 36.3873 34.1128 35.8776 34.1128 35.2502C34.1128 34.6227 34.6225 34.1131 35.2499 34.1131C35.8773 34.1131 36.387 34.6227 36.387 35.2502Z" fill="#FF6660"/>
<path d="M64.8144 0.00012207H59.1289V9.0969H5.68536C2.55022 9.0969 -0.00012207 11.6472 -0.00012207 14.7824V64.8146C-0.00012207 67.9498 2.55022 70.5001 5.68536 70.5001H11.3708V61.4033H64.8144C67.9495 61.4033 70.4999 58.853 70.4999 55.7179V5.68561C70.4999 2.55047 67.9495 0.00012207 64.8144 0.00012207ZM9.09665 68.2259H5.68536C3.80454 68.2259 2.27407 66.6955 2.27407 64.8146V19.3282C3.22487 20.0429 4.4061 20.4673 5.68536 20.4673H9.09665V68.2259ZM64.8144 59.1292H11.3708V18.1937H5.68536C3.80454 18.1937 2.27407 16.6632 2.27407 14.7824C2.27407 12.9016 3.80454 11.3711 5.68536 11.3711H59.1289V52.3066H64.8144C66.6952 52.3066 68.2257 53.837 68.2257 55.7179C68.2257 57.5987 66.6952 59.1292 64.8144 59.1292ZM68.2257 51.1716C67.2749 50.4568 66.0937 50.0324 64.8144 50.0324H61.4031V2.27437H64.8144C66.6952 2.27437 68.2257 3.80484 68.2257 5.68566V51.1716Z" fill="#FF6660"/>
<path d="M38.296 21.4997C37.6549 20.855 36.7721 20.4682 35.8162 20.4682H34.6837C33.169 20.4682 31.8343 21.4357 31.3622 22.8733C31.2485 23.218 31.0028 23.485 30.6835 23.6089C30.5333 23.6678 30.3855 23.7272 30.2388 23.7922C29.9297 23.9252 29.5667 23.9104 29.2459 23.749C27.895 23.0688 26.2692 23.3272 25.1965 24.3963L24.394 25.1978C23.3249 26.2689 23.0645 27.8964 23.7483 29.2456C23.9107 29.5675 23.9254 29.9299 23.7904 30.2406C23.7269 30.3863 23.6675 30.534 23.6087 30.6853C23.4848 31.0025 23.2163 31.2492 22.8731 31.3629C21.434 31.8345 20.4674 33.1696 20.4674 34.6839V35.8164C20.4674 37.3312 21.4349 38.6658 22.8726 39.1379C23.2173 39.2516 23.4843 39.4973 23.6081 39.8166C23.667 39.9669 23.7264 40.1146 23.7914 40.2613C23.9254 40.5705 23.9097 40.9334 23.7483 41.2543C23.065 42.6051 23.3254 44.231 24.3955 45.3036L25.197 46.1062C26.2671 47.1737 27.8931 47.4356 29.2448 46.7519C29.5657 46.5905 29.9291 46.5747 30.2398 46.7098C30.3855 46.7732 30.5332 46.8326 30.6845 46.8915C30.7779 46.9281 30.8495 46.9996 30.9292 47.06L23.4081 54.5811H13.6448V56.8553H24.3492L32.2034 49.0012C32.8445 49.6458 33.7273 50.0327 34.6831 50.0327H35.8157C37.3304 50.0327 38.665 49.0651 39.1372 47.6275C39.2509 47.2828 39.4966 47.0158 39.8159 46.8919C39.9661 46.833 40.1139 46.7736 40.2606 46.7087C40.5697 46.5757 40.9327 46.5904 41.2535 46.7518C42.6044 47.4341 44.2318 47.1747 45.3029 46.1046L46.1044 45.303C47.1745 44.2329 47.4349 42.6059 46.7516 41.2552C46.5892 40.9334 46.5745 40.5709 46.7095 40.2603C46.773 40.1146 46.8324 39.9668 46.8912 39.8156C47.0151 39.4983 47.2836 39.2516 47.6268 39.1379C49.0654 38.6663 50.032 37.3313 50.032 35.8169V34.6844C50.032 33.1696 49.0644 31.835 47.6268 31.3629C47.2821 31.2492 47.0151 31.0035 46.8912 30.6842C46.8324 30.5339 46.773 30.3862 46.708 30.2395C46.574 29.9303 46.5897 29.5674 46.7511 29.2466C47.4344 27.8957 47.174 26.2683 46.1039 25.1972L45.3023 24.3946C44.2312 23.3256 42.6053 23.0642 41.2545 23.7489C40.9352 23.9114 40.5713 23.9276 40.2596 23.791C40.1139 23.7276 39.9662 23.6682 39.8149 23.6093C39.7215 23.5728 39.6499 23.5012 39.5702 23.4408L47.0913 15.9197H56.8546V13.6455H46.1502L38.296 21.4997ZM42.2794 25.7796C42.7489 25.5394 43.3185 25.6308 43.6942 26.005L44.4957 26.8065C44.8699 27.1806 44.9597 27.7492 44.7211 28.2224C44.2536 29.1478 44.2176 30.2143 44.6211 31.1448C44.6734 31.2651 44.7247 31.3869 44.7724 31.5087C45.143 32.4626 45.9268 33.1961 46.9192 33.5225C47.4203 33.688 47.7578 34.1545 47.7578 34.684V35.8165C47.7578 36.3465 47.4203 36.8125 46.9162 36.9775C45.9248 37.3039 45.1426 38.0384 44.7714 38.9912C44.7237 39.1141 44.6724 39.2359 44.6212 39.3552C44.2166 40.2867 44.2526 41.3532 44.7202 42.2797C44.9587 42.7518 44.8689 43.3203 44.4948 43.6945L43.6932 44.495C43.3201 44.8702 42.7531 44.96 42.2774 44.7214C41.353 44.2539 40.2839 44.2179 39.355 44.6214C39.2347 44.6737 39.1128 44.725 38.991 44.7727C38.0372 45.1433 37.3037 45.9271 36.9772 46.9195C36.8122 47.4211 36.3457 47.7587 35.8163 47.7587H34.6837C34.1538 47.7587 33.6878 47.4211 33.5228 46.917C33.1964 45.9256 32.4618 45.1434 31.509 44.7722C31.3862 44.7245 31.2643 44.6733 31.145 44.622C30.7151 44.4357 30.2572 44.3423 29.7963 44.3423C29.2582 44.3423 28.7196 44.4687 28.219 44.721C27.7469 44.9596 27.1784 44.8687 26.8042 44.4956L26.0037 43.694C25.6295 43.3199 25.5387 42.7514 25.7772 42.2782C26.2448 41.3528 26.2808 40.2863 25.8772 39.3558C25.825 39.2355 25.7737 39.1136 25.726 38.9918C25.3554 38.038 24.5716 37.3045 23.5791 36.978C23.0791 36.8131 22.7415 36.3465 22.7415 35.8171V34.6846C22.7415 34.1546 23.0791 33.6886 23.5832 33.5236C24.5746 33.1972 25.3568 32.4627 25.728 31.5098C25.7757 31.387 25.8269 31.2652 25.8782 31.1459C26.2828 30.2144 26.2467 29.1478 25.7792 28.2214C25.5406 27.7493 25.6315 27.1807 26.0046 26.8066L26.8062 26.006C27.1793 25.6309 27.7478 25.541 28.222 25.7796C29.1464 26.2472 30.2166 26.2847 31.1444 25.8796C31.2647 25.8273 31.3866 25.7761 31.5084 25.7284C32.4622 25.3578 33.1957 24.574 33.5222 23.5815C33.6871 23.08 34.1537 22.7424 34.6831 22.7424H35.8156C36.3456 22.7424 36.8116 23.08 36.9766 23.5841C37.303 24.5755 38.0376 25.3577 38.9904 25.7288C39.1132 25.7765 39.235 25.8278 39.3543 25.8791C40.2869 26.2832 41.3513 26.2471 42.2793 25.7796L42.2794 25.7796Z" fill="#FF6660"/>
<path d="M54.5805 18.1935H56.8547V20.4677H54.5805V18.1935Z" fill="#FF6660"/>
<path d="M47.7581 18.1935H52.3064V20.4677H47.7581V18.1935Z" fill="#FF6660"/>
<path d="M13.6448 50.0322H18.1932V52.3064H13.6448V50.0322Z" fill="#FF6660"/>
<path d="M20.4677 50.0322H22.7419V52.3064H20.4677V50.0322Z" fill="#FF6660"/>
<path d="M54.5805 54.5807H56.8547V56.8549H54.5805V54.5807Z" fill="#FF6660"/>
<path d="M45.4836 54.5807H52.3062V56.8549H45.4836V54.5807Z" fill="#FF6660"/>
<path d="M45.4836 50.0322H56.8545V52.3064H45.4836V50.0322Z" fill="#FF6660"/>
</svg>
