<svg width="126" height="126" viewBox="0 0 126 126" fill="none" xmlns="http://www.w3.org/2000/svg">
<path d="M83.2781 79.7378V90.224H80.6178V92.8461H75.2982V95.4681H72.6379V98.0902H56.6793V95.4681H51.3597V92.8461H48.6994V90.224H46.0391V87.6019H40.7196V84.9799H35.4V82.3578H30.0805V77.1147H27.4202V74.4926H24.7599V69.2495H22.0996V64.0064L30.0795 32.5468H32.7397V29.9247H35.4V24.6816H38.0603V22.0596H40.7206V19.4375H43.3809V16.8154H46.0412V14.1934H61.9999V24.6796H64.6602V35.1658H67.3204V37.7878H54.0211V40.4099H46.0412V71.8695L48.7015 79.7347H59.3406C59.3406 79.7347 56.6803 79.7347 59.3406 82.3568C62.0009 84.9788 75.2993 82.3568 75.2993 82.3568V79.7347H83.2791L83.2781 79.7378Z" fill="#A559EC"/>
<path d="M67.3184 14.1971V24.6844H69.9787V32.5485H75.2983H80.6178V29.9275H85.9374V27.3054H88.5977H91.2569V24.6844H93.9172H96.5765V22.0623H101.897V19.4413V16.8192H99.2368V14.1971H96.5765V11.5761H93.9172V8.95404H91.2569V6.333H88.5977V3.71094H85.9374V6.333H83.2781H77.9575H75.2983V8.95404H69.9787H64.6592V11.5761V14.1971H67.3184Z" fill="#A559EC"/>
<path d="M69.9785 32.5487V35.1708H80.6176H83.2779V40.4139H85.9372V37.7928H88.5975V35.1708H91.2567V32.5487H93.917V29.9277H96.5763V27.3056H99.2366V22.0625H96.5763H93.917V24.6846H91.2567V27.3056H88.5975H85.9372H83.2779V29.9277H80.6176H75.2981V32.5487H69.9785Z" fill="#7941AE"/>
<path d="M24.7608 71.8735H19.4412V69.2525H14.1217H11.4614V66.6304V64.0094H30.0803V66.6304H32.7406H35.3999V64.0094H40.7205V61.3873V58.7652H43.3797H64.659V56.1442V53.5221H67.3182V48.279V45.657H64.659V43.0359H54.0188V45.657H43.3797V43.0359H46.04H48.6993V40.4139H51.3596V37.7928H54.0188H56.6791V35.1708H59.3384V24.6846H51.3596V22.0625H46.04V24.6846H43.3797V27.3056H40.7205V29.9277H38.0602H35.3999V32.5487H32.7406H30.0803V35.1708H27.4211V37.7928H24.7608V35.1708H22.1015H19.4412V37.7928H14.1217V40.4139H11.4614V43.0359V45.657H8.80211V48.279H6.14182V58.7652V61.3873H3.48256V64.0094V66.6304H0.822266V69.2525H3.48256V71.8735H6.14182V74.4956H8.80211V77.1166H11.4614H14.1217V79.7387H16.7809V82.3607H19.4412H22.1015V84.9818H24.7608H27.4211V87.6038H30.0803V90.2249H35.3999V87.6038H32.7406V84.9818H30.0803V79.7387H27.4211V77.1166V74.4956H24.7608V71.8735Z" fill="white" stroke="white" stroke-width="0.156365" stroke-miterlimit="10"/>
<path d="M32.7404 82.3594V87.6025L30.0801 84.9804V82.3594H32.7404Z" fill="white" stroke="#A2A2A2" stroke-width="0.156365" stroke-miterlimit="10"/>
<path d="M30.0812 77.1172H27.4209V79.7393H30.0812V77.1172Z" fill="white" stroke="#A2A2A2" stroke-width="0.156365" stroke-miterlimit="10"/>
<path d="M14.1216 40.4121V48.2773H16.7808V53.5204H22.1014V48.2773H27.421V45.6552V40.4121" fill="white"/>
<path d="M14.1216 40.4121V48.2773H16.7808V53.5204H22.1014V48.2773H27.421V45.6552V40.4121" stroke="#111111" stroke-width="0.625458" stroke-miterlimit="10"/>
<path d="M40.7202 58.7645V56.1435H38.0599V53.5214H35.3996V50.9004H32.7404V48.2783H30.0801V45.6562" fill="white"/>
<path d="M40.7202 58.7645V56.1435H38.0599V53.5214H35.3996V50.9004H32.7404V48.2783H30.0801V45.6562" stroke="#111111" stroke-width="0.625458" stroke-miterlimit="10"/>
<path d="M22.1016 53.5234V58.7665H24.7608V61.3886H27.4211V64.0107" fill="white"/>
<path d="M22.1016 53.5234V58.7665H24.7608V61.3886H27.4211V64.0107" stroke="#111111" stroke-width="0.625458" stroke-miterlimit="10"/>
<path d="M75.298 40.4121H72.6377V43.0342H64.6589V53.5204H51.3595V61.3855V64.0076H48.6992V66.6287H51.3595V69.2507H54.0188V71.8718H56.6791V74.4938H59.3383V77.1149H75.298V74.4938H80.6176V71.8718L83.2779 50.8993H85.9371L88.5974 48.2773H83.2779V45.6552H77.9573V43.0342H75.298V40.4121Z" fill="#A559EC"/>
<path d="M88.5973 48.2773V69.2508H85.937V71.8718H83.2778V74.4939H80.6175H77.9572V77.1149H75.2979H61.9985V74.4939H69.9784V69.2508H75.2979V64.0077H77.9572V61.3856H80.6175V56.1425H83.2778V53.5204V50.8994V48.2773H88.5973Z" fill="#7941AE"/>
<path d="M112.536 64.0098H120.516V84.9822H117.856V87.6042H115.195V90.2253H109.876V92.8473H104.556V95.4694H101.897V92.8473H99.2365V90.2253H96.5763V87.6042H93.917V84.9822V82.3611L112.536 64.0098Z" fill="#7941AE"/>
<path d="M85.9375 77.117V74.496H88.5978V71.8739H91.2571V69.2529H93.9173V64.0098H112.536V77.117H107.217V79.7391H101.897H99.2369V82.3611H93.9173V84.9822H91.2571V82.3611V79.7391H85.9375V77.117Z" fill="#A559EC"/>
<path d="M83.2775 79.7383V82.3603H85.9368V84.9814H88.5971V87.6034H91.2563V90.2245H93.9166V95.4686H91.2563H88.5971V98.0897H83.2775V100.712H77.9569V103.333H61.9983V100.712H54.0184V98.0897H43.3793V95.4686H38.0598V92.8466H35.3995V87.6034H32.7402V82.3603H35.3995L83.2775 79.7383Z" fill="#7941AE"/>
<path d="M75.2982 79.7383H56.6792V84.9814H75.2982V79.7383Z" fill="#A559EC"/>
<path d="M56.6792 100.711H61.9988V103.332H64.659V105.954H59.3385V103.332H56.6792V100.711Z" fill="#A2A2A2" stroke="white" stroke-width="0.781823" stroke-miterlimit="10"/>
<path d="M72.6377 103.332V105.954H75.298H80.6175V100.711H77.9572V103.332H72.6377Z" fill="#A2A2A2" stroke="white" stroke-width="0.781823" stroke-miterlimit="10"/>
<path d="M83.2778 100.712V103.333H88.5974V98.0898H83.2778V100.712Z" fill="#A2A2A2" stroke="#A2A2A2" stroke-width="0.781823" stroke-miterlimit="10"/>
<path d="M59.3384 105.955V108.577H61.9987V113.82H59.3384V116.441V119.063H64.659V116.441H69.9785V111.198H67.3182V108.577H64.659V105.955H59.3384Z" fill="white" stroke="white" stroke-width="0.781823" stroke-miterlimit="10"/>
<path d="M72.6377 105.955V119.063H75.298H77.9572V121.684H80.6175V119.063H83.2778V113.82H77.9572V105.955H72.6377Z" fill="white" stroke="white" stroke-width="0.781823" stroke-miterlimit="10"/>
<path d="M83.2778 98.0898V103.333H85.9371V105.955H88.5974V113.82H91.2566V108.577H93.9169V111.198H99.2365V108.577H96.5762V105.955H91.2566V100.712H88.5974V98.0898H83.2778Z" fill="white" stroke="white" stroke-width="0.781823" stroke-miterlimit="10"/>
<path d="M88.5977 43.035H91.2569V45.656H93.9172V50.9001H101.897V53.5212H109.876V50.9001H112.536V48.2781H115.195V45.656H117.856V43.035H125.836V40.4129H123.175V37.7919H120.516V35.1698H117.856V32.5477H115.195V29.9267H112.536V27.3046H109.876V24.6836H107.217H104.556V27.3046H101.897V29.9267H99.2368V32.5477L96.5765 35.1698H93.9172V37.7919H91.2569V40.4129H88.5977V43.035Z" fill="#A559EC"/>
<path d="M93.917 56.1473H101.897V58.7684H117.856V61.3904H123.175V48.2822H125.835V43.0391H120.516H117.856V45.6601H112.536V48.2822H104.556V50.9042H99.2365L93.917 56.1473Z" fill="#7941AE"/>
<path d="M99.2366 50.9023H93.917V56.1454H99.2366V50.9023Z" fill="#7941AE"/>
<path d="M96.5762 32.5488V35.1709L99.2365 32.5488H96.5762Z" fill="#A559EC"/>
<path d="M83.278 45.6562V56.1435H80.6177L83.278 45.6562Z" fill="#A559EC"/>
</svg>
