<svg width="126" height="126" viewBox="0 0 126 126" fill="none" xmlns="http://www.w3.org/2000/svg">
<path d="M82.5725 79.8999V90.3861H79.9122V93.0082H74.5927V95.6302H71.9324V98.2523H55.9737V95.6302H50.6542V93.0082H47.9939V90.3861H45.3336V87.7641H40.014V85.142H34.6945V82.5199H29.3749V77.2768H26.7146V74.6548H24.0543V69.4116H21.394V64.1685L29.3739 32.7089H32.0342V30.0868H34.6945V24.8437H37.3548V22.2217H40.0151V19.5996H42.6754V16.9775H45.3356V14.3555H61.2943V24.8417H63.9546V35.3279H66.6149V37.9499H53.3155V40.572H45.3356V72.0316L47.9959 79.8968H58.635C58.635 79.8968 55.9747 79.8968 58.635 82.5189C61.2953 85.141 74.5937 82.5189 74.5937 82.5189V79.8968H82.5735L82.5725 79.8999Z" fill="#FF6660"/>
<path d="M66.6129 14.3592V24.8465H69.2732V32.7106H74.5927H79.9123V30.0896H85.2318V27.4675H87.8921H90.5514V24.8465H93.2117H95.8709V22.2244H101.192V19.6034V16.9813H98.5312V14.3592H95.8709V11.7382H93.2117V9.11615H90.5514V6.49511H87.8921V3.87305H85.2318V6.49511H82.5726H77.252H74.5927V9.11615H69.2732H63.9536V11.7382V14.3592H66.6129Z" fill="#FF6660"/>
<path d="M69.2729 32.7108V35.3329H79.9121H82.5723V40.576H85.2316V37.9549H87.8919V35.3329H90.5512V32.7108H93.2114V30.0898H95.8707V27.4677H98.531V22.2246H95.8707H93.2114V24.8467H90.5512V27.4677H87.8919H85.2316H82.5723V30.0898H79.9121H74.5925V32.7108H69.2729Z" fill="#B84843"/>
<path d="M24.0552 72.0356H18.7356V69.4146H13.4161H10.7558V66.7925V64.1715H29.3748V66.7925H32.035H34.6943V64.1715H40.0149V61.5494V58.9273H42.6742H63.9534V56.3063V53.6842H66.6127V48.4411V45.8191H63.9534V43.198H53.3133V45.8191H42.6742V43.198H45.3344H47.9937V40.576H50.654V37.9549H53.3133H55.9735V35.3329H58.6328V24.8467H50.654V22.2246H45.3344V24.8467H42.6742V27.4677H40.0149V30.0898H37.3546H34.6943V32.7108H32.035H29.3748V35.3329H26.7155V37.9549H24.0552V35.3329H21.3959H18.7356V37.9549H13.4161V40.576H10.7558V43.198V45.8191H8.09654V48.4411H5.43625V58.9273V61.5494H2.77699V64.1715V66.7925H0.116699V69.4146H2.77699V72.0356H5.43625V74.6577H8.09654V77.2787H10.7558H13.4161V79.9008H16.0754V82.5229H18.7356H21.3959V85.1439H24.0552H26.7155V87.766H29.3748V90.387H34.6943V87.766H32.035V85.1439H29.3748V79.9008H26.7155V77.2787V74.6577H24.0552V72.0356Z" fill="white" stroke="white" stroke-width="0.156365" stroke-miterlimit="10"/>
<path d="M32.0353 82.5215V87.7646L29.375 85.1425V82.5215H32.0353Z" fill="white" stroke="#A2A2A2" stroke-width="0.156365" stroke-miterlimit="10"/>
<path d="M29.3756 77.2793H26.7153V79.9014H29.3756V77.2793Z" fill="white" stroke="#A2A2A2" stroke-width="0.156365" stroke-miterlimit="10"/>
<path d="M13.416 40.5742V48.4394H16.0753V53.6825H21.3959V48.4394H26.7154V45.8173V40.5742" fill="white"/>
<path d="M13.416 40.5742V48.4394H16.0753V53.6825H21.3959V48.4394H26.7154V45.8173V40.5742" stroke="#111111" stroke-width="0.625458" stroke-miterlimit="10"/>
<path d="M40.0151 58.9266V56.3056H37.3548V53.6835H34.6946V51.0625H32.0353V48.4404H29.375V45.8184" fill="white"/>
<path d="M40.0151 58.9266V56.3056H37.3548V53.6835H34.6946V51.0625H32.0353V48.4404H29.375V45.8184" stroke="#111111" stroke-width="0.625458" stroke-miterlimit="10"/>
<path d="M21.396 53.6855V58.9286H24.0553V61.5507H26.7155V64.1728" fill="white"/>
<path d="M21.396 53.6855V58.9286H24.0553V61.5507H26.7155V64.1728" stroke="#111111" stroke-width="0.625458" stroke-miterlimit="10"/>
<path d="M74.5929 40.5742H71.9326V43.1963H63.9538V53.6825H50.6544V61.5477V64.1697H47.9941V66.7908H50.6544V69.4128H53.3137V72.0339H55.974V74.6559H58.6332V77.277H74.5929V74.6559H79.9125V72.0339L82.5728 51.0615H85.232L87.8923 48.4394H82.5728V45.8173H77.2522V43.1963H74.5929V40.5742Z" fill="#FF6660"/>
<path d="M87.8918 48.4395V69.4129H85.2315V72.0339H82.5722V74.656H79.9119H77.2516V77.277H74.5924H61.293V74.656H69.2728V69.4129H74.5924V64.1698H77.2516V61.5477H79.9119V56.3046H82.5722V53.6826V51.0615V48.4395H87.8918Z" fill="#B84843"/>
<path d="M111.83 64.1719H119.81V85.1443H117.15V87.7663H114.49V90.3874H109.17V93.0094H103.851V95.6315H101.191V93.0094H98.531V90.3874H95.8707V87.7663H93.2114V85.1443V82.5232L111.83 64.1719Z" fill="#B84843"/>
<path d="M85.2314 77.2791V74.6581H87.8917V72.036H90.551V69.415H93.2113V64.1719H111.83V77.2791H106.511V79.9012H101.191H98.5308V82.5232H93.2113V85.1443H90.551V82.5232V79.9012H85.2314V77.2791Z" fill="#FF6660"/>
<path d="M82.5725 79.9004V82.5225H85.2317V85.1435H87.892V87.7656H90.5513V90.3866H93.2116V95.6307H90.5513H87.892V98.2518H82.5725V100.874H77.2519V103.495H61.2932V100.874H53.3134V98.2518H42.6743V95.6307H37.3547V93.0087H34.6944V87.7656H32.0352V82.5225H34.6944L82.5725 79.9004Z" fill="#B84843"/>
<path d="M74.5926 79.9004H55.9736V85.1435H74.5926V79.9004Z" fill="#FF6660"/>
<path d="M55.9736 100.873H61.2932V103.494H63.9535V106.116H58.6329V103.494H55.9736V100.873Z" fill="#A2A2A2" stroke="white" stroke-width="0.781823" stroke-miterlimit="10"/>
<path d="M71.9321 103.494V106.116H74.5924H79.912V100.873H77.2517V103.494H71.9321Z" fill="#A2A2A2" stroke="white" stroke-width="0.781823" stroke-miterlimit="10"/>
<path d="M82.5723 100.874V103.495H87.8918V98.252H82.5723V100.874Z" fill="#A2A2A2" stroke="#A2A2A2" stroke-width="0.781823" stroke-miterlimit="10"/>
<path d="M58.6328 106.117V108.739H61.2931V113.982H58.6328V116.603V119.225H63.9534V116.603H69.2729V111.36H66.6127V108.739H63.9534V106.117H58.6328Z" fill="white" stroke="white" stroke-width="0.781823" stroke-miterlimit="10"/>
<path d="M71.9321 106.117V119.225H74.5924H77.2517V121.846H79.912V119.225H82.5723V113.982H77.2517V106.117H71.9321Z" fill="white" stroke="white" stroke-width="0.781823" stroke-miterlimit="10"/>
<path d="M82.5723 98.252V103.495H85.2315V106.117H87.8918V113.982H90.5511V108.739H93.2114V111.36H98.5309V108.739H95.8706V106.117H90.5511V100.874H87.8918V98.252H82.5723Z" fill="white" stroke="white" stroke-width="0.781823" stroke-miterlimit="10"/>
<path d="M87.8916 43.1971H90.5509V45.8181H93.2112V51.0622H101.191V53.6833H109.17V51.0622H111.83V48.4402H114.489V45.8181H117.15V43.1971H125.13V40.575H122.469V37.954H119.81V35.3319H117.15V32.7098H114.489V30.0888H111.83V27.4667H109.17V24.8457H106.511H103.85V27.4667H101.191V30.0888H98.5307V32.7098L95.8704 35.3319H93.2112V37.954H90.5509V40.575H87.8916V43.1971Z" fill="#FF6660"/>
<path d="M93.2114 56.3094H101.191V58.9305H117.15V61.5525H122.469V48.4443H125.13V43.2012H119.81H117.15V45.8222H111.83V48.4443H103.851V51.0663H98.531L93.2114 56.3094Z" fill="#B84843"/>
<path d="M98.531 51.0645H93.2114V56.3076H98.531V51.0645Z" fill="#B84843"/>
<path d="M95.8706 32.7109V35.333L98.5309 32.7109H95.8706Z" fill="#FF6660"/>
<path d="M82.5724 45.8184V56.3056H79.9121L82.5724 45.8184Z" fill="#FF6660"/>
</svg>
