<svg width="113" height="112" viewBox="0 0 113 112" fill="none" xmlns="http://www.w3.org/2000/svg">
<path d="M74.7755 71.0234V80.4057H72.3953V82.7518H67.6357V85.0978H65.2555V87.4438H50.9768V85.0978H46.2172V82.7518H43.837V80.4057H41.4568V78.0597H36.6972V75.7137H31.9376V73.3676H27.1781V68.6765H24.7978V66.3304H22.4176V61.6393H20.0374V56.9481L27.1772 28.8003H29.5574V26.4542H31.9376V21.7631H34.3179V19.417H36.6981V17.071H39.0784V14.7249H41.4586V12.3789H55.7373V21.7612H58.1175V31.1435H60.4977V33.4896H48.5984V35.8356H41.4586V63.9835L43.8388 71.0206H53.358C53.358 71.0206 50.9777 71.0206 53.358 73.3667C55.7382 75.7127 67.6366 73.3667 67.6366 73.3667V71.0206H74.7764L74.7755 71.0234Z" fill="#55C8EF"/>
<path d="M60.4958 12.3823V21.7655H62.876V28.8018H67.6356H72.3951V26.4567H77.1547V24.1107H79.5349H81.9142V21.7655H84.2945H86.6738V19.4195H91.4343V17.0744V14.7283H89.054V12.3823H86.6738V10.0372H84.2945V7.69115H81.9142V5.34604H79.5349V3H77.1547V5.34604H74.7754H70.0149H67.6356V7.69115H62.876H58.1165V10.0372V12.3823H60.4958Z" fill="#55C8EF"/>
<path d="M62.8761 28.8022V31.1483H72.3952H74.7755V35.8394H77.1548V33.4943H79.535V31.1483H81.9143V28.8022H84.2946V26.4571H86.6739V24.1111H89.0541V19.4199H86.6739H84.2946V21.766H81.9143V24.1111H79.535H77.1548H74.7755V26.4571H72.3952H67.6357V28.8022H62.8761Z" fill="#2983A2"/>
<path d="M22.4185 63.9873H17.6589V61.6422H12.8994H10.5191V59.2961V56.951H27.178V59.2961H29.5583H31.9376V56.951H36.6981V54.605V52.2589H39.0774H58.1165V49.9138V47.5678H60.4959V42.8766V40.5306H58.1165V38.1855H48.5965V40.5306H39.0774V38.1855H41.4576H43.8369V35.8394H46.2172V33.4943H48.5965H50.9767V31.1483H53.3561V21.766H46.2172V19.4199H41.4576V21.766H39.0774V24.1111H36.6981V26.4571H34.3178H31.9376V28.8022H29.5583H27.178V31.1483H24.7987V33.4943H22.4185V31.1483H20.0392H17.6589V33.4943H12.8994V35.8394H10.5191V38.1855V40.5306H8.1398V42.8766H5.75956V52.2589V54.605H3.38024V56.951V59.2961H1V61.6422H3.38024V63.9873H5.75956V66.3333H8.1398V68.6784H10.5191H12.8994V71.0245H15.2787V73.3705H17.6589H20.0392V75.7156H22.4185H24.7987V78.0617H27.178V80.4068H31.9376V78.0617H29.5583V75.7156H27.178V71.0245H24.7987V68.6784V66.3333H22.4185V63.9873Z" fill="white" stroke="white" stroke-width="0.0924365" stroke-miterlimit="10"/>
<path d="M29.5582 73.3711V78.0622L27.178 75.7162V73.3711H29.5582Z" fill="white" stroke="#A2A2A2" stroke-width="0.0924365" stroke-miterlimit="10"/>
<path d="M27.1788 68.6777H24.7986V71.0238H27.1788V68.6777Z" fill="white" stroke="#A2A2A2" stroke-width="0.0924365" stroke-miterlimit="10"/>
<path d="M12.8994 35.8398V42.877H15.2787V47.5682H20.0392V42.877H24.7988V40.531V35.8398" fill="white"/>
<path d="M12.8994 35.8398V42.877H15.2787V47.5682H20.0392V42.877H24.7988V40.531V35.8398" stroke="#111111" stroke-width="0.369746" stroke-miterlimit="10"/>
<path d="M36.698 52.2596V49.9145H34.3178V47.5684H31.9375V45.2233H29.5582V42.8773H27.178V40.5312" fill="white"/>
<path d="M36.698 52.2596V49.9145H34.3178V47.5684H31.9375V45.2233H29.5582V42.8773H27.178V40.5312" stroke="#111111" stroke-width="0.369746" stroke-miterlimit="10"/>
<path d="M20.0392 47.5664V52.2576H22.4185V54.6036H24.7987V56.9496" fill="white"/>
<path d="M20.0392 47.5664V52.2576H22.4185V54.6036H24.7987V56.9496" stroke="#111111" stroke-width="0.369746" stroke-miterlimit="10"/>
<path d="M67.6356 35.8398H65.2554V38.1859H58.1165V47.5682H46.2172V54.6054V56.9514H43.8369V59.2965H46.2172V61.6426H48.5965V63.9877H50.9767V66.3337H53.356V68.6789H67.6356V66.3337H72.3952V63.9877L74.7754 45.2231H77.1547L79.535 42.877H74.7754V40.531H70.0149V38.1859H67.6356V35.8398Z" fill="#55C8EF"/>
<path d="M79.535 42.875V61.6405H77.1548V63.9857H74.7755V66.3317H72.3952H70.015V68.6768H67.6357H55.7363V66.3317H62.8761V61.6405H67.6357V56.9494H70.015V54.6033H72.3952V49.9122H74.7755V47.5662V45.221V42.875H79.535Z" fill="#2983A2"/>
<path d="M100.953 56.9492H108.093V75.7138H105.713V78.0599H103.333V80.405H98.5732V82.751H93.8137V85.0971H91.4344V82.751H89.0541V80.405H86.6739V78.0599H84.2946V75.7138V73.3687L100.953 56.9492Z" fill="#2983A2"/>
<path d="M77.1548 68.6766V66.3315H79.535V63.9855H81.9143V61.6404H84.2946V56.9492H100.953V68.6766H96.1939V71.0227H91.4344H89.0541V73.3687H84.2946V75.7138H81.9143V73.3687V71.0227H77.1548V68.6766Z" fill="#55C8EF"/>
<path d="M74.7755 71.0234V73.3695H77.1548V75.7146H79.5351V78.0606H81.9144V80.4057H84.2946V85.0978H81.9144H79.5351V87.4429H74.7755V89.789H70.0151V92.1341H55.7364V89.789H48.5966V87.4429H39.0775V85.0978H34.3179V82.7518H31.9377V78.0606H29.5583V73.3695H31.9377L74.7755 71.0234Z" fill="#2983A2"/>
<path d="M67.6356 71.0234H50.9767V75.7146H67.6356V71.0234Z" fill="#55C8EF"/>
<path d="M50.9767 89.7891H55.7362V92.1342H58.1165V94.4802H53.356V92.1342H50.9767V89.7891Z" fill="#A2A2A2" stroke="white" stroke-width="0.462183" stroke-miterlimit="10"/>
<path d="M65.2554 92.1342V94.4802H67.6356H72.3952V89.7891H70.0149V92.1342H65.2554Z" fill="#A2A2A2" stroke="white" stroke-width="0.462183" stroke-miterlimit="10"/>
<path d="M74.7754 89.7894V92.1345H79.5349V87.4434H74.7754V89.7894Z" fill="#A2A2A2" stroke="#A2A2A2" stroke-width="0.462183" stroke-miterlimit="10"/>
<path d="M53.356 94.4805V96.8265H55.7362V101.518H53.356V103.863V106.209H58.1164V103.863H62.876V99.1716H60.4958V96.8265H58.1164V94.4805H53.356Z" fill="white" stroke="white" stroke-width="0.462183" stroke-miterlimit="10"/>
<path d="M65.2554 94.4805V106.209H67.6356H70.0149V108.554H72.3952V106.209H74.7754V101.518H70.0149V94.4805H65.2554Z" fill="white" stroke="white" stroke-width="0.462183" stroke-miterlimit="10"/>
<path d="M74.7754 87.4434V92.1345H77.1547V94.4805H79.5349V101.518H81.9143V96.8266H84.2945V99.1717H89.0541V96.8266H86.6738V94.4805H81.9143V89.7894H79.5349V87.4434H74.7754Z" fill="white" stroke="white" stroke-width="0.462183" stroke-miterlimit="10"/>
<path d="M79.5349 38.1851H81.9142V40.5302H84.2945V45.2223H91.4343V47.5674H98.5731V45.2223H100.953V42.8763H103.333V40.5302H105.713V38.1851H112.853V35.8391H110.473V33.494H108.093V31.1479H105.713V28.8019H103.333V26.4568H100.953V24.1107H98.5731V21.7656H96.1938H93.8136V24.1107H91.4343V26.4568H89.054V28.8019L86.6738 31.1479H84.2945V33.494H81.9142V35.8391H79.5349V38.1851Z" fill="#55C8EF"/>
<path d="M84.2946 49.9139H91.4344V52.259H105.713V54.6051H110.473V42.8767H112.853V38.1855H108.093H105.713V40.5307H100.953V42.8767H93.8137V45.2227H89.0541L84.2946 49.9139Z" fill="#2983A2"/>
<path d="M89.0541 45.2227H84.2946V49.9138H89.0541V45.2227Z" fill="#2983A2"/>
<path d="M86.6738 28.8008V31.1468L89.0541 28.8008H86.6738Z" fill="#55C8EF"/>
<path d="M74.7755 40.5312V49.9145H72.3953L74.7755 40.5312Z" fill="#55C8EF"/>
</svg>
