<svg width="126" height="126" viewBox="0 0 126 126" fill="none" xmlns="http://www.w3.org/2000/svg">
<path d="M82.8669 80.0601V90.5463H80.2066V93.1683H74.8871V95.7904H72.2268V98.4125H56.2681V95.7904H50.9486V93.1683H48.2883V90.5463H45.628V87.9242H40.3085V85.3021H34.9889V82.6801H29.6694V77.437H27.0091V74.8149H24.3488V69.5718H21.6885V64.3287L29.6683 32.8691H32.3286V30.247H34.9889V25.0039H37.6492V22.3818H40.3095V19.7598H42.9698V17.1377H45.6301V14.5156H61.5887V25.0018H64.249V35.488H66.9093V38.1101H53.6099V40.7322H45.6301V72.1918L48.2904 80.057H58.9295C58.9295 80.057 56.2692 80.057 58.9295 82.679C61.5898 85.3011 74.8881 82.679 74.8881 82.679V80.057H82.868L82.8669 80.0601Z" fill="#FFBF3C"/>
<path d="M66.9073 14.5194V25.0066H69.5676V32.8708H74.8871H80.2067V30.2497H85.5263V27.6277H88.1865H90.8458V25.0066H93.5061H96.1654V22.3846H101.486V19.7635V17.1415H98.8256V14.5194H96.1654V11.8984H93.5061V9.2763H90.8458V6.65527H88.1865V4.0332H85.5263V6.65527H82.867H77.5464H74.8871V9.2763H69.5676H64.248V11.8984V14.5194H66.9073Z" fill="#FFBF3C"/>
<path d="M69.5674 32.871V35.493H80.2065H82.8668V40.7361H85.526V38.1151H88.1863V35.493H90.8456V32.871H93.5059V30.2499H96.1651V27.6279H98.8254V22.3848H96.1651H93.5059V25.0068H90.8456V27.6279H88.1863H85.526H82.8668V30.2499H80.2065H74.8869V32.871H69.5674Z" fill="#B7892B"/>
<path d="M24.3496 72.1958H19.0301V69.5747H13.7105H11.0502V66.9527V64.3316H29.6692V66.9527H32.3295H34.9887V64.3316H40.3093V61.7096V59.0875H42.9686H64.2478V56.4665V53.8444H66.9071V48.6013V45.9792H64.2478V43.3582H53.6077V45.9792H42.9686V43.3582H45.6289H48.2881V40.7361H50.9484V38.1151H53.6077H56.268V35.493H58.9272V25.0068H50.9484V22.3848H45.6289V25.0068H42.9686V27.6279H40.3093V30.2499H37.649H34.9887V32.871H32.3295H29.6692V35.493H27.0099V38.1151H24.3496V35.493H21.6904H19.0301V38.1151H13.7105V40.7361H11.0502V43.3582V45.9792H8.39098V48.6013H5.73069V59.0875V61.7096H3.07143V64.3316V66.9527H0.411133V69.5747H3.07143V72.1958H5.73069V74.8178H8.39098V77.4389H11.0502H13.7105V80.0609H16.3698V82.683H19.0301H21.6904V85.304H24.3496H27.0099V87.9261H29.6692V90.5471H34.9887V87.9261H32.3295V85.304H29.6692V80.0609H27.0099V77.4389V74.8178H24.3496V72.1958Z" fill="white" stroke="white" stroke-width="0.156365" stroke-miterlimit="10"/>
<path d="M32.3292 82.6816V87.9247L29.6689 85.3027V82.6816H32.3292Z" fill="white" stroke="#A2A2A2" stroke-width="0.156365" stroke-miterlimit="10"/>
<path d="M29.6701 77.4395H27.0098V80.0615H29.6701V77.4395Z" fill="white" stroke="#A2A2A2" stroke-width="0.156365" stroke-miterlimit="10"/>
<path d="M13.7104 40.7344V48.5995H16.3697V53.8426H21.6903V48.5995H27.0098V45.9775V40.7344" fill="white"/>
<path d="M13.7104 40.7344V48.5995H16.3697V53.8426H21.6903V48.5995H27.0098V45.9775V40.7344" stroke="#111111" stroke-width="0.625458" stroke-miterlimit="10"/>
<path d="M40.3091 59.0868V56.4657H37.6488V53.8437H34.9885V51.2226H32.3292V48.6006H29.6689V45.9785" fill="white"/>
<path d="M40.3091 59.0868V56.4657H37.6488V53.8437H34.9885V51.2226H32.3292V48.6006H29.6689V45.9785" stroke="#111111" stroke-width="0.625458" stroke-miterlimit="10"/>
<path d="M21.6904 53.8457V59.0888H24.3497V61.7109H27.01V64.3329" fill="white"/>
<path d="M21.6904 53.8457V59.0888H24.3497V61.7109H27.01V64.3329" stroke="#111111" stroke-width="0.625458" stroke-miterlimit="10"/>
<path d="M74.8869 40.7344H72.2266V43.3564H64.2478V53.8426H50.9484V61.7078V64.3299H48.2881V66.9509H50.9484V69.573H53.6076V72.194H56.2679V74.8161H58.9272V77.4371H74.8869V74.8161H80.2064V72.194L82.8667 51.2216H85.526L88.1863 48.5995H82.8667V45.9775H77.5461V43.3564H74.8869V40.7344Z" fill="#FFBF3C"/>
<path d="M88.1862 48.5996V69.573H85.5259V72.1941H82.8666V74.8161H80.2064H77.5461V77.4372H74.8868H61.5874V74.8161H69.5672V69.573H74.8868V64.3299H77.5461V61.7079H80.2064V56.4648H82.8666V53.8427V51.2217V48.5996H88.1862Z" fill="#B7892B"/>
<path d="M112.125 64.332H120.105V85.3044H117.444V87.9265H114.784V90.5475H109.465V93.1696H104.145V95.7917H101.486V93.1696H98.8254V90.5475H96.1651V87.9265H93.5059V85.3044V82.6834L112.125 64.332Z" fill="#B7892B"/>
<path d="M85.5264 77.4393V74.8182H88.1867V72.1962H90.8459V69.5751H93.5062V64.332H112.125V77.4393H106.806V80.0613H101.486H98.8258V82.6834H93.5062V85.3044H90.8459V82.6834V80.0613H85.5264V77.4393Z" fill="#FFBF3C"/>
<path d="M82.8664 80.0605V82.6826H85.5257V85.3036H88.186V87.9257H90.8452V90.5467H93.5055V95.7909H90.8452H88.186V98.4119H82.8664V101.034H77.5458V103.655H61.5872V101.034H53.6073V98.4119H42.9682V95.7909H37.6487V93.1688H34.9884V87.9257H32.3291V82.6826H34.9884L82.8664 80.0605Z" fill="#B7892B"/>
<path d="M74.887 80.0605H56.2681V85.3036H74.887V80.0605Z" fill="#FFBF3C"/>
<path d="M56.2681 101.033H61.5876V103.654H64.2479V106.276H58.9273V103.654H56.2681V101.033Z" fill="#A2A2A2" stroke="white" stroke-width="0.781823" stroke-miterlimit="10"/>
<path d="M72.2266 103.654V106.276H74.8869H80.2064V101.033H77.5461V103.654H72.2266Z" fill="#A2A2A2" stroke="white" stroke-width="0.781823" stroke-miterlimit="10"/>
<path d="M82.8667 101.034V103.655H88.1863V98.4121H82.8667V101.034Z" fill="#A2A2A2" stroke="#A2A2A2" stroke-width="0.781823" stroke-miterlimit="10"/>
<path d="M58.9272 106.277V108.899H61.5875V114.143H58.9272V116.764V119.386H64.2478V116.764H69.5674V111.52H66.9071V108.899H64.2478V106.277H58.9272Z" fill="white" stroke="white" stroke-width="0.781823" stroke-miterlimit="10"/>
<path d="M72.2266 106.277V119.386H74.8869H77.5461V122.007H80.2064V119.386H82.8667V114.143H77.5461V106.277H72.2266Z" fill="white" stroke="white" stroke-width="0.781823" stroke-miterlimit="10"/>
<path d="M82.8667 98.4121V103.655H85.526V106.277H88.1863V114.142H90.8455V108.899H93.5058V111.52H98.8254V108.899H96.1651V106.277H90.8455V101.034H88.1863V98.4121H82.8667Z" fill="white" stroke="white" stroke-width="0.781823" stroke-miterlimit="10"/>
<path d="M88.1865 43.3572H90.8458V45.9783H93.5061V51.2224H101.486V53.8434H109.465V51.2224H112.125V48.6003H114.784V45.9783H117.445V43.3572H125.424V40.7352H122.764V38.1141H120.105V35.4921H117.445V32.87H114.784V30.249H112.125V27.6269H109.465V25.0059H106.805H104.145V27.6269H101.486V30.249H98.8256V32.87L96.1653 35.4921H93.5061V38.1141H90.8458V40.7352H88.1865V43.3572Z" fill="#FFBF3C"/>
<path d="M93.5059 56.4696H101.486V59.0906H117.444V61.7127H122.764V48.6044H125.424V43.3613H120.105H117.444V45.9824H112.125V48.6044H104.145V51.2265H98.8254L93.5059 56.4696Z" fill="#B7892B"/>
<path d="M98.8254 51.2246H93.5059V56.4677H98.8254V51.2246Z" fill="#B7892B"/>
<path d="M96.165 32.8711V35.4932L98.8253 32.8711H96.165Z" fill="#FFBF3C"/>
<path d="M82.8668 45.9785V56.4657H80.2065L82.8668 45.9785Z" fill="#FFBF3C"/>
</svg>
