<svg width="27" height="20" viewBox="0 0 27 20" fill="none" xmlns="http://www.w3.org/2000/svg">
<path d="M0.272 6.32C0.272 5.50933 0.421334 4.74133 0.72 4.016C1.06133 3.248 1.50933 2.608 2.064 2.096C2.61867 1.54133 3.25867 1.11466 3.984 0.815998C4.70933 0.474664 5.49867 0.303997 6.352 0.303997C7.16267 0.303997 7.93067 0.474664 8.656 0.815998C9.424 1.11466 10.0853 1.54133 10.64 2.096C11.1947 2.608 11.6213 3.248 11.92 4.016C12.2613 4.74133 12.432 5.50933 12.432 6.32V14.128C12.432 15.7493 11.8773 17.1147 10.768 18.224C9.70133 19.3333 8.35733 19.888 6.736 19.888H2.64V14.896H5.712C6.864 14.896 7.44 14.256 7.44 12.976V12.208C7.09867 12.336 6.736 12.4 6.352 12.4C5.49867 12.4 4.70933 12.2507 3.984 11.952C3.25867 11.6107 2.61867 11.1627 2.064 10.608C1.50933 10.0533 1.06133 9.41333 0.72 8.688C0.421334 7.96267 0.272 7.17333 0.272 6.32ZM14.736 6.32C14.736 5.50933 14.8853 4.74133 15.184 4.016C15.5253 3.248 15.9733 2.608 16.528 2.096C17.0827 1.54133 17.7227 1.11466 18.448 0.815998C19.1733 0.474664 19.9627 0.303997 20.816 0.303997C21.6267 0.303997 22.3947 0.474664 23.12 0.815998C23.888 1.11466 24.5493 1.54133 25.104 2.096C25.6587 2.608 26.0853 3.248 26.384 4.016C26.7253 4.74133 26.896 5.50933 26.896 6.32V14.128C26.896 15.7493 26.3413 17.1147 25.232 18.224C24.1653 19.3333 22.8213 19.888 21.2 19.888H17.104V14.896H20.176C21.328 14.896 21.904 14.256 21.904 12.976V12.208C21.5627 12.336 21.2 12.4 20.816 12.4C19.9627 12.4 19.1733 12.2507 18.448 11.952C17.7227 11.6107 17.0827 11.1627 16.528 10.608C15.9733 10.0533 15.5253 9.41333 15.184 8.688C14.8853 7.96267 14.736 7.17333 14.736 6.32Z" fill="#FFBF3C"/>
</svg>
