<svg width="27" height="20" viewBox="0 0 27 20" fill="none" xmlns="http://www.w3.org/2000/svg">
<path d="M26.896 13.872C26.896 14.7253 26.7253 15.5147 26.384 16.24C26.0853 16.9653 25.6587 17.6053 25.104 18.16C24.5493 18.672 23.888 19.0987 23.12 19.44C22.3947 19.7387 21.6267 19.888 20.816 19.888C19.9627 19.888 19.1733 19.7387 18.448 19.44C17.7227 19.0987 17.0827 18.672 16.528 18.16C15.9733 17.6053 15.5253 16.9653 15.184 16.24C14.8853 15.5147 14.736 14.7253 14.736 13.872V6.064C14.736 4.44266 15.2693 3.07733 16.336 1.968C17.4453 0.858664 18.8107 0.303997 20.432 0.303997H24.528V5.296H21.456C20.304 5.296 19.728 5.936 19.728 7.216V7.984C19.8987 7.89867 20.0907 7.856 20.304 7.856C20.5173 7.81333 20.7307 7.792 20.944 7.792C22.736 7.792 24.1653 8.368 25.232 9.52C26.3413 10.6293 26.896 12.08 26.896 13.872ZM12.432 13.872C12.432 14.7253 12.2613 15.5147 11.92 16.24C11.6213 16.9653 11.1947 17.6053 10.64 18.16C10.0853 18.672 9.424 19.0987 8.656 19.44C7.93067 19.7387 7.16267 19.888 6.352 19.888C5.49867 19.888 4.70933 19.7387 3.984 19.44C3.25867 19.0987 2.61867 18.672 2.064 18.16C1.50933 17.6053 1.06133 16.9653 0.72 16.24C0.421334 15.5147 0.272 14.7253 0.272 13.872V6.064C0.272 4.44266 0.805334 3.07733 1.872 1.968C2.98133 0.858664 4.34667 0.303997 5.968 0.303997H10.064V5.296H6.992C5.84 5.296 5.264 5.936 5.264 7.216V7.984C5.43467 7.89867 5.62667 7.856 5.84 7.856C6.05333 7.81333 6.26667 7.792 6.48 7.792C8.272 7.792 9.70133 8.368 10.768 9.52C11.8773 10.6293 12.432 12.08 12.432 13.872Z" fill="#FFBF3C"/>
</svg>
