<svg width="127" height="126" viewBox="0 0 127 126" fill="none" xmlns="http://www.w3.org/2000/svg">
<path d="M83.4558 79.3804V89.8666H80.7955V92.4887H75.476V95.1107H72.8157V97.7328H56.857V95.1107H51.5375V92.4887H48.8772V89.8666H46.2169V87.2445H40.8973V84.6225H35.5778V82.0004H30.2582V76.7573H27.5979V74.1352H24.9376V68.8921H22.2773V63.649L30.2572 32.1894H32.9175V29.5673H35.5778V24.3242H38.2381V21.7021H40.8984V19.0801H43.5587V16.458H46.2189V13.8359H62.1776V24.3221H64.8379V34.8083H67.4982V37.4304H54.1988V40.0525H46.2189V71.5121L48.8792 79.3773H59.5183C59.5183 79.3773 56.858 79.3773 59.5183 81.9994C62.1786 84.6214 75.477 81.9994 75.477 81.9994V79.3773H83.4568L83.4558 79.3804Z" fill="#187DFF"/>
<path d="M67.4962 13.8397V24.327H70.1565V32.1911H75.476H80.7956V29.5701H86.1151V26.948H88.7754H91.4347V24.327H94.095H96.7542V21.7049H102.075V19.0839V16.4618H99.4145V13.8397H96.7542V11.2187H94.095V8.59662H91.4347V5.97558H88.7754V3.35352H86.1151V5.97558H83.4559H78.1353H75.476V8.59662H70.1565H64.8369V11.2187V13.8397H67.4962Z" fill="#187DFF"/>
<path d="M70.1562 32.1913V34.8133H80.7954H83.4556V40.0564H86.1149V37.4354H88.7752V34.8133H91.4345V32.1913H94.0947V29.5702H96.754V26.9482H99.4143V21.7051H96.754H94.0947V24.3271H91.4345V26.9482H88.7752H86.1149H83.4556V29.5702H80.7954H75.4758V32.1913H70.1562Z" fill="#2C568C"/>
<path d="M24.9385 71.5161H19.6189V68.8951H14.2994H11.6391V66.273V63.652H30.2581V66.273H32.9184H35.5776V63.652H40.8982V61.0299V58.4078H43.5575H64.8367V55.7868V53.1647H67.496V47.9216V45.2995H64.8367V42.6785H54.1966V45.2995H43.5575V42.6785H46.2177H48.877V40.0564H51.5373V37.4354H54.1966H56.8568V34.8133H59.5161V24.3271H51.5373V21.7051H46.2177V24.3271H43.5575V26.9482H40.8982V29.5702H38.2379H35.5776V32.1913H32.9184H30.2581V34.8133H27.5988V37.4354H24.9385V34.8133H22.2792H19.6189V37.4354H14.2994V40.0564H11.6391V42.6785V45.2995H8.97985V47.9216H6.31955V58.4078V61.0299H3.66029V63.652V66.273H1V68.8951H3.66029V71.5161H6.31955V74.1382H8.97985V76.7592H11.6391H14.2994V79.3813H16.9587V82.0033H19.6189H22.2792V84.6244H24.9385H27.5988V87.2464H30.2581V89.8675H35.5776V87.2464H32.9184V84.6244H30.2581V79.3813H27.5988V76.7592V74.1382H24.9385V71.5161Z" fill="white" stroke="white" stroke-width="0.156365" stroke-miterlimit="10"/>
<path d="M32.9181 82.002V87.2451L30.2578 84.623V82.002H32.9181Z" fill="white" stroke="#A2A2A2" stroke-width="0.156365" stroke-miterlimit="10"/>
<path d="M30.2589 76.7598H27.5986V79.3818H30.2589V76.7598Z" fill="white" stroke="#A2A2A2" stroke-width="0.156365" stroke-miterlimit="10"/>
<path d="M14.2993 40.0547V47.9199H16.9586V53.163H22.2792V47.9199H27.5987V45.2978V40.0547" fill="white"/>
<path d="M14.2993 40.0547V47.9199H16.9586V53.163H22.2792V47.9199H27.5987V45.2978V40.0547" stroke="#111111" stroke-width="0.625458" stroke-miterlimit="10"/>
<path d="M40.8979 58.4071V55.7861H38.2377V53.164H35.5774V50.543H32.9181V47.9209H30.2578V45.2988" fill="white"/>
<path d="M40.8979 58.4071V55.7861H38.2377V53.164H35.5774V50.543H32.9181V47.9209H30.2578V45.2988" stroke="#111111" stroke-width="0.625458" stroke-miterlimit="10"/>
<path d="M22.2793 53.166V58.4091H24.9386V61.0312H27.5988V63.6533" fill="white"/>
<path d="M22.2793 53.166V58.4091H24.9386V61.0312H27.5988V63.6533" stroke="#111111" stroke-width="0.625458" stroke-miterlimit="10"/>
<path d="M75.4757 40.0547H72.8155V42.6768H64.8366V53.163H51.5372V61.0281V63.6502H48.877V66.2712H51.5372V68.8933H54.1965V71.5143H56.8568V74.1364H59.5161V76.7574H75.4757V74.1364H80.7953V71.5143L83.4556 50.5419H86.1149L88.7751 47.9199H83.4556V45.2978H78.135V42.6768H75.4757V40.0547Z" fill="#187DFF"/>
<path d="M88.7751 47.9199V68.8934H86.1148V71.5144H83.4555V74.1365H80.7952H78.1349V76.7575H75.4757H62.1763V74.1365H70.1561V68.8934H75.4757V63.6503H78.1349V61.0282H80.7952V55.7851H83.4555V53.163V50.542V47.9199H88.7751Z" fill="#2C568C"/>
<path d="M112.714 63.6523H120.694V84.6247H118.033V87.2468H115.373V89.8678H110.053V92.4899H104.734V95.112H102.075V92.4899H99.4143V89.8678H96.754V87.2468H94.0947V84.6247V82.0037L112.714 63.6523Z" fill="#2C568C"/>
<path d="M86.1152 76.7596V74.1385H88.7755V71.5165H91.4348V68.8954H94.0951V63.6523H112.714V76.7596H107.394V79.3816H102.075H99.4146V82.0037H94.0951V84.6247H91.4348V82.0037V79.3816H86.1152V76.7596Z" fill="#187DFF"/>
<path d="M83.4553 79.3809V82.0029H86.1145V84.624H88.7748V87.246H91.4341V89.8671H94.0944V95.1112H91.4341H88.7748V97.7322H83.4553V100.354H78.1347V102.975H62.176V100.354H54.1962V97.7322H43.5571V95.1112H38.2375V92.4891H35.5772V87.246H32.918V82.0029H35.5772L83.4553 79.3809Z" fill="#2C568C"/>
<path d="M75.4759 79.3809H56.8569V84.624H75.4759V79.3809Z" fill="#187DFF"/>
<path d="M56.8569 100.354H62.1765V102.975H64.8368V105.597H59.5162V102.975H56.8569V100.354Z" fill="#A2A2A2" stroke="white" stroke-width="0.781823" stroke-miterlimit="10"/>
<path d="M72.8154 102.975V105.597H75.4757H80.7953V100.354H78.135V102.975H72.8154Z" fill="#A2A2A2" stroke="white" stroke-width="0.781823" stroke-miterlimit="10"/>
<path d="M83.4556 100.354V102.976H88.7751V97.7324H83.4556V100.354Z" fill="#A2A2A2" stroke="#A2A2A2" stroke-width="0.781823" stroke-miterlimit="10"/>
<path d="M59.5161 105.598V108.22H62.1764V113.463H59.5161V116.084V118.706H64.8367V116.084H70.1562V110.841H67.496V108.22H64.8367V105.598H59.5161Z" fill="white" stroke="white" stroke-width="0.781823" stroke-miterlimit="10"/>
<path d="M72.8154 105.598V118.706H75.4757H78.135V121.327H80.7953V118.706H83.4556V113.463H78.135V105.598H72.8154Z" fill="white" stroke="white" stroke-width="0.781823" stroke-miterlimit="10"/>
<path d="M83.4556 97.7324V102.976H86.1148V105.598H88.7751V113.463H91.4344V108.22H94.0947V110.841H99.4142V108.22H96.7539V105.598H91.4344V100.354H88.7751V97.7324H83.4556Z" fill="white" stroke="white" stroke-width="0.781823" stroke-miterlimit="10"/>
<path d="M88.7754 42.6775H91.4346V45.2986H94.0949V50.5427H102.075V53.1637H110.054V50.5427H112.714V47.9206H115.373V45.2986H118.033V42.6775H126.013V40.0555H123.353V37.4344H120.694V34.8124H118.033V32.1903H115.373V29.5693H112.714V26.9472H110.054V24.3262H107.394H104.734V26.9472H102.075V29.5693H99.4145V32.1903L96.7542 34.8124H94.0949V37.4344H91.4346V40.0555H88.7754V42.6775Z" fill="#187DFF"/>
<path d="M94.0947 55.7899H102.075V58.4109H118.033V61.033H123.353V47.9247H126.013V42.6816H120.694H118.033V45.3027H112.714V47.9247H104.734V50.5468H99.4143L94.0947 55.7899Z" fill="#2C568C"/>
<path d="M99.4143 50.5449H94.0947V55.788H99.4143V50.5449Z" fill="#2C568C"/>
<path d="M96.7539 32.1914V34.8135L99.4142 32.1914H96.7539Z" fill="#187DFF"/>
<path d="M83.4557 45.2988V55.7861H80.7954L83.4557 45.2988Z" fill="#187DFF"/>
</svg>
