<svg width="126" height="127" viewBox="0 0 126 127" fill="none" xmlns="http://www.w3.org/2000/svg">
<path d="M83.1614 80.2202V90.7064H80.5011V93.3285H75.1815V95.9506H72.5212V98.5726H56.5626V95.9506H51.243V93.3285H48.5827V90.7064H45.9224V88.0844H40.6029V85.4623H35.2833V82.8402H29.9638V77.5971H27.3035V74.9751H24.6432V69.732H21.9829V64.4889L29.9628 33.0292H32.623V30.4072H35.2833V25.1641H37.9436V22.542H40.6039V19.9199H43.2642V17.2978H45.9245V14.6758H61.8832V25.162H64.5435V35.6482H67.2037V38.2703H53.9044V40.8923H45.9245V72.352L48.5848 80.2171H59.2239C59.2239 80.2171 56.5636 80.2171 59.2239 82.8392C61.8842 85.4613 75.1826 82.8392 75.1826 82.8392V80.2171H83.1624L83.1614 80.2202Z" fill="#6FCF97"/>
<path d="M67.2017 14.6796V25.1668H69.862V33.0309H75.1816H80.5011V30.4099H85.8207V27.7878H88.481H91.1402V25.1668H93.8005H96.4598V22.5447H101.78V19.9237V17.3016H99.1201V14.6796H96.4598V12.0585H93.8005V9.43646H91.1402V6.81543H88.481V4.19336H85.8207V6.81543H83.1614H77.8408H75.1816V9.43646H69.862H64.5425V12.0585V14.6796H67.2017Z" fill="#6FCF97"/>
<path d="M69.8618 33.0311V35.6532H80.5009H83.1612V40.8963H85.8205V38.2753H88.4808V35.6532H91.14V33.0311H93.8003V30.4101H96.4596V27.788H99.1199V22.5449H96.4596H93.8003V25.167H91.14V27.788H88.4808H85.8205H83.1612V30.4101H80.5009H75.1814V33.0311H69.8618Z" fill="#429966"/>
<path d="M24.6441 72.3559H19.3245V69.7349H14.005H11.3447V67.1128V64.4918H29.9636V67.1128H32.6239H35.2832V64.4918H40.6038V61.8697V59.2477H43.263H64.5423V56.6266V54.0046H67.2015V48.7615V46.1394H64.5423V43.5184H53.9021V46.1394H43.263V43.5184H45.9233H48.5826V40.8963H51.2429V38.2753H53.9021H56.5624V35.6532H59.2217V25.167H51.2429V22.5449H45.9233V25.167H43.263V27.788H40.6038V30.4101H37.9435H35.2832V33.0311H32.6239H29.9636V35.6532H27.3044V38.2753H24.6441V35.6532H21.9848H19.3245V38.2753H14.005V40.8963H11.3447V43.5184V46.1394H8.68541V48.7615H6.02512V59.2477V61.8697H3.36586V64.4918V67.1128H0.705566V69.7349H3.36586V72.3559H6.02512V74.978H8.68541V77.599H11.3447H14.005V80.2211H16.6642V82.8432H19.3245H21.9848V85.4642H24.6441H27.3044V88.0863H29.9636V90.7073H35.2832V88.0863H32.6239V85.4642H29.9636V80.2211H27.3044V77.599V74.978H24.6441V72.3559Z" fill="white" stroke="white" stroke-width="0.156365" stroke-miterlimit="10"/>
<path d="M32.6242 82.8418V88.0849L29.9639 85.4628V82.8418H32.6242Z" fill="white" stroke="#A2A2A2" stroke-width="0.156365" stroke-miterlimit="10"/>
<path d="M29.9645 77.5996H27.3042V80.2217H29.9645V77.5996Z" fill="white" stroke="#A2A2A2" stroke-width="0.156365" stroke-miterlimit="10"/>
<path d="M14.0049 40.8945V48.7597H16.6641V54.0028H21.9847V48.7597H27.3043V46.1376V40.8945" fill="white"/>
<path d="M14.0049 40.8945V48.7597H16.6641V54.0028H21.9847V48.7597H27.3043V46.1376V40.8945" stroke="#111111" stroke-width="0.625458" stroke-miterlimit="10"/>
<path d="M40.604 59.2469V56.6259H37.9437V54.0038H35.2834V51.3828H32.6242V48.7607H29.9639V46.1387" fill="white"/>
<path d="M40.604 59.2469V56.6259H37.9437V54.0038H35.2834V51.3828H32.6242V48.7607H29.9639V46.1387" stroke="#111111" stroke-width="0.625458" stroke-miterlimit="10"/>
<path d="M21.9849 54.0059V59.249H24.6441V61.871H27.3044V64.4931" fill="white"/>
<path d="M21.9849 54.0059V59.249H24.6441V61.871H27.3044V64.4931" stroke="#111111" stroke-width="0.625458" stroke-miterlimit="10"/>
<path d="M75.1818 40.8945H72.5215V43.5166H64.5427V54.0028H51.2433V61.868V64.49H48.583V67.1111H51.2433V69.7331H53.9026V72.3542H56.5628V74.9762H59.2221V77.5973H75.1818V74.9762H80.5014V72.3542L83.1616 51.3818H85.8209L88.4812 48.7597H83.1616V46.1376H77.8411V43.5166H75.1818V40.8945Z" fill="#6FCF97"/>
<path d="M88.4806 48.7598V69.7332H85.8203V72.3542H83.1611V74.9763H80.5008H77.8405V77.5973H75.1812H61.8818V74.9763H69.8617V69.7332H75.1812V64.4901H77.8405V61.868H80.5008V56.6249H83.1611V54.0029V51.3818V48.7598H88.4806Z" fill="#429966"/>
<path d="M112.419 64.4922H120.399V85.4646H117.739V88.0867H115.079V90.7077H109.759V93.3298H104.439V95.9518H101.78V93.3298H99.1199V90.7077H96.4596V88.0867H93.8003V85.4646V82.8436L112.419 64.4922Z" fill="#429966"/>
<path d="M85.8203 77.5994V74.9784H88.4806V72.3563H91.1399V69.7353H93.8002V64.4922H112.419V77.5994H107.1V80.2215H101.78H99.1197V82.8436H93.8002V85.4646H91.1399V82.8436V80.2215H85.8203V77.5994Z" fill="#6FCF97"/>
<path d="M83.1613 80.2207V82.8428H85.8206V85.4638H88.4809V88.0859H91.1401V90.7069H93.8004V95.951H91.1401H88.4809V98.5721H83.1613V101.194H77.8407V103.815H61.8821V101.194H53.9022V98.5721H43.2631V95.951H37.9436V93.329H35.2833V88.0859H32.624V82.8428H35.2833L83.1613 80.2207Z" fill="#429966"/>
<path d="M75.1815 80.2207H56.5625V85.4638H75.1815V80.2207Z" fill="#6FCF97"/>
<path d="M56.5625 101.193H61.8821V103.814H64.5424V106.436H59.2218V103.814H56.5625V101.193Z" fill="#A2A2A2" stroke="white" stroke-width="0.781823" stroke-miterlimit="10"/>
<path d="M72.521 103.814V106.436H75.1813H80.5008V101.193H77.8405V103.814H72.521Z" fill="#A2A2A2" stroke="white" stroke-width="0.781823" stroke-miterlimit="10"/>
<path d="M83.1611 101.194V103.815H88.4807V98.5723H83.1611V101.194Z" fill="#A2A2A2" stroke="#A2A2A2" stroke-width="0.781823" stroke-miterlimit="10"/>
<path d="M59.2217 106.438V109.06H61.882V114.303H59.2217V116.924V119.546H64.5423V116.924H69.8618V111.681H67.2015V109.06H64.5423V106.438H59.2217Z" fill="white" stroke="white" stroke-width="0.781823" stroke-miterlimit="10"/>
<path d="M72.521 106.438V119.546H75.1813H77.8405V122.167H80.5008V119.546H83.1611V114.303H77.8405V106.438H72.521Z" fill="white" stroke="white" stroke-width="0.781823" stroke-miterlimit="10"/>
<path d="M83.1611 98.5723V103.815H85.8204V106.437H88.4807V114.303H91.1399V109.059H93.8002V111.681H99.1198V109.059H96.4595V106.437H91.1399V101.194H88.4807V98.5723H83.1611Z" fill="white" stroke="white" stroke-width="0.781823" stroke-miterlimit="10"/>
<path d="M88.4805 43.5174H91.1397V46.1384H93.8V51.3826H101.78V54.0036H109.759V51.3826H112.419V48.7605H115.078V46.1384H117.739V43.5174H125.718V40.8953H123.058V38.2743H120.399V35.6522H117.739V33.0302H115.078V30.4091H112.419V27.7871H109.759V25.166H107.099H104.439V27.7871H101.78V30.4091H99.1196V33.0302L96.4593 35.6522H93.8V38.2743H91.1397V40.8953H88.4805V43.5174Z" fill="#6FCF97"/>
<path d="M93.8003 56.6298H101.78V59.2508H117.739V61.8729H123.058V48.7646H125.719V43.5215H120.399H117.739V46.1425H112.419V48.7646H104.439V51.3867H99.1199L93.8003 56.6298Z" fill="#429966"/>
<path d="M99.1199 51.3848H93.8003V56.6279H99.1199V51.3848Z" fill="#429966"/>
<path d="M96.4595 33.0312V35.6533L99.1198 33.0312H96.4595Z" fill="#6FCF97"/>
<path d="M83.1613 46.1387V56.6259H80.501L83.1613 46.1387Z" fill="#6FCF97"/>
</svg>
