<svg width="1127" height="425" viewBox="0 0 1127 425" fill="none" xmlns="http://www.w3.org/2000/svg">
<rect x="237.707" y="386.354" width="389.823" height="389.823" transform="rotate(-45 237.707 386.354)" fill="#111111" stroke="#111111"/>
<rect x="276.707" y="425.208" width="600.334" height="600.334" transform="rotate(-45 276.707 425.208)" fill="white" stroke="#111111"/>
<rect x="425.208" y="951.708" width="600.334" height="559.355" transform="rotate(-135 425.208 951.708)" fill="#6FCF97" stroke="#111111"/>
<circle cx="398.358" cy="164.856" r="3" transform="rotate(45 398.358 164.856)" fill="white"/>
<circle cx="355.225" cy="207.989" r="3" transform="rotate(45 355.225 207.989)" fill="white"/>
<circle cx="312.091" cy="251.123" r="3" transform="rotate(45 312.091 251.123)" fill="white"/>
<circle cx="268.958" cy="294.256" r="3" transform="rotate(45 268.958 294.256)" fill="white"/>
<circle cx="225.824" cy="337.39" r="3" transform="rotate(45 225.824 337.39)" fill="white"/>
<circle cx="182.69" cy="380.523" r="3" transform="rotate(45 182.69 380.523)" fill="white"/>
<circle cx="139.557" cy="423.657" r="3" transform="rotate(45 139.557 423.657)" fill="white"/>
<circle cx="484.625" cy="251.123" r="3" transform="rotate(45 484.625 251.123)" fill="white"/>
<circle cx="441.491" cy="294.256" r="3" transform="rotate(45 441.491 294.256)" fill="white"/>
<circle cx="398.358" cy="337.39" r="3" transform="rotate(45 398.358 337.39)" fill="white"/>
<circle cx="355.225" cy="380.523" r="3" transform="rotate(45 355.225 380.523)" fill="white"/>
<circle cx="312.091" cy="423.657" r="3" transform="rotate(45 312.091 423.657)" fill="white"/>
<circle cx="527.758" cy="294.256" r="3" transform="rotate(45 527.758 294.256)" fill="white"/>
<circle cx="484.625" cy="337.39" r="3" transform="rotate(45 484.625 337.39)" fill="white"/>
<circle cx="441.491" cy="380.523" r="3" transform="rotate(45 441.491 380.523)" fill="white"/>
<circle cx="398.358" cy="423.657" r="3" transform="rotate(45 398.358 423.657)" fill="white"/>
<circle cx="570.892" cy="337.39" r="3" transform="rotate(45 570.892 337.39)" fill="white"/>
<circle cx="527.758" cy="380.523" r="3" transform="rotate(45 527.758 380.523)" fill="white"/>
<circle cx="484.625" cy="423.657" r="3" transform="rotate(45 484.625 423.657)" fill="white"/>
<circle cx="614.025" cy="380.523" r="3" transform="rotate(45 614.025 380.523)" fill="white"/>
<circle cx="570.892" cy="423.657" r="3" transform="rotate(45 570.892 423.657)" fill="white"/>
<circle cx="657.159" cy="423.657" r="3" transform="rotate(45 657.159 423.657)" fill="white"/>
<circle cx="441.491" cy="207.989" r="3" transform="rotate(45 441.491 207.989)" fill="white"/>
<circle cx="398.358" cy="251.123" r="3" transform="rotate(45 398.358 251.123)" fill="white"/>
<circle cx="355.225" cy="294.256" r="3" transform="rotate(45 355.225 294.256)" fill="white"/>
<circle cx="312.091" cy="337.39" r="3" transform="rotate(45 312.091 337.39)" fill="white"/>
<circle cx="268.958" cy="380.523" r="3" transform="rotate(45 268.958 380.523)" fill="white"/>
<circle cx="225.824" cy="423.657" r="3" transform="rotate(45 225.824 423.657)" fill="white"/>
</svg>
