<svg width="341" height="510" viewBox="0 0 341 510" fill="none" xmlns="http://www.w3.org/2000/svg">
<path d="M183.6 227C203.667 227 219.3 220.7 230.5 208.1C242.167 195.5 248 178.933 248 158.4C248 138.8 241.233 122.233 227.7 108.7C214.167 95.1667 195.733 88.4 172.4 88.4C159.8 88.4 148.6 90.7333 138.8 95.4C129 99.6 120.6 105.667 113.6 113.6C106.6 121.067 101.233 129.933 97.5 140.2C94.2333 150 92.6 160.267 92.6 171V200.4H0.2V162.6C0.2 141.6 3.93333 121.3 11.4 101.7C19.3333 82.1 30.5333 64.8333 45 49.9C59.9333 34.9667 78.1333 23.0667 99.6 14.2C121.533 4.86664 146.267 0.199968 173.8 0.199968C198.533 0.199968 221.167 4.39997 241.7 12.8C262.233 20.7333 279.733 31.9333 294.2 46.4C309.133 60.8666 320.567 77.9 328.5 97.5C336.433 116.633 340.4 137.4 340.4 159.8V164C340.4 183.133 337.367 201.333 331.3 218.6C325.7 235.867 317.533 251.033 306.8 264.1C296.067 277.167 282.767 287.667 266.9 295.6C251.033 303.533 233.3 307.5 213.7 307.5C207.167 307.5 202.267 309.367 199 313.1C195.733 316.833 194.1 321.967 194.1 328.5V351.6H105.9V291.4C105.9 273.2 111.967 258.033 124.1 245.9C136.7 233.3 152.1 227 170.3 227H183.6ZM217.2 443.3C217.2 452.633 215.333 461.5 211.6 469.9C208.333 477.833 203.667 484.833 197.6 490.9C191.533 496.5 184.3 500.933 175.9 504.2C167.967 507.933 159.567 509.8 150.7 509.8C141.367 509.8 132.733 507.933 124.8 504.2C116.867 500.933 109.867 496.5 103.8 490.9C97.7333 484.833 92.8333 477.833 89.1 469.9C85.8333 461.5 84.2 452.633 84.2 443.3C84.2 433.967 85.8333 425.333 89.1 417.4C92.8333 409 97.7333 402 103.8 396.4C109.867 390.333 116.867 385.667 124.8 382.4C132.733 378.667 141.367 376.8 150.7 376.8C159.567 376.8 167.967 378.667 175.9 382.4C184.3 385.667 191.533 390.333 197.6 396.4C203.667 402 208.333 409 211.6 417.4C215.333 425.333 217.2 433.967 217.2 443.3Z" fill="#6FCF97" fill-opacity="0.1"/>
</svg>
