<svg width="102" height="103" viewBox="0 0 102 103" fill="none" xmlns="http://www.w3.org/2000/svg">
<rect x="12" y="13" width="90" height="90" fill="#111111"/>
<rect x="0.5" y="0.5" width="89" height="89" fill="white" stroke="#111111"/>
<path d="M54.3126 48.2285C54.3126 50.3059 53.696 52.3366 52.5406 54.0638C51.3853 55.791 49.7432 57.1372 47.822 57.9321C45.9007 58.727 43.7867 58.9349 41.7472 58.5295C39.7077 58.1241 37.8343 57.1236 36.364 55.6546C34.8937 54.1856 33.8925 52.314 33.487 50.2765C33.0815 48.2391 33.2899 46.1272 34.0859 44.2081C34.8819 42.289 36.2298 40.6487 37.959 39.4949C39.6881 38.341 41.721 37.7253 43.8005 37.7256C46.5887 37.726 49.2624 38.8328 51.2338 40.8024C53.2052 42.772 54.3126 45.4432 54.3126 48.2285" fill="#187DFF"/>
<path d="M43.8608 31.3622C44.5483 31.362 45.2351 31.4037 45.9174 31.4873L47.7903 16.2501C46.4506 16.0838 45.1019 16.0003 43.7519 16C38.5611 15.992 33.4457 17.2408 28.8438 19.6396L36.0117 33.29C38.4306 32.0197 41.1232 31.358 43.8559 31.3622" fill="#187DFF"/>
<path d="M73.932 36.8599L59.6416 42.2599C60.8476 45.4618 61.0562 48.9532 60.2399 52.2756L75.0684 55.9363C76.6211 49.6081 76.2244 42.959 73.9303 36.8599" fill="#187DFF"/>
<path d="M57.707 38.6609L70.3 29.9964C66.6025 24.6198 61.3629 20.4868 55.2699 18.1406L49.8156 32.4618C53.0145 33.683 55.7677 35.8445 57.7118 38.6609" fill="#187DFF"/>
<path d="M25.3785 27.4287L32.6147 35.6043C30.7623 37.2424 29.2928 39.2671 28.3104 41.5353C27.3279 43.8034 26.8564 46.2596 26.9292 48.7299C27.002 51.2002 27.6174 53.6244 28.7318 55.8308C29.8463 58.0372 31.4324 59.9721 33.3782 61.4984C35.3239 63.0247 37.5817 64.1052 39.9916 64.6635C42.4016 65.2217 44.905 65.2441 47.3246 64.7289C49.7442 64.2138 52.0209 63.1737 53.9936 61.6824C55.9663 60.191 57.5869 58.2848 58.7405 56.0986L66.6596 60.2432L68.4073 61.1592C66.5093 64.7604 63.8421 67.9008 60.5947 70.3583C57.3472 72.8158 53.5987 74.5302 49.6146 75.3802C45.6304 76.2302 41.5079 76.1951 37.5388 75.2773C33.5697 74.3595 29.8511 72.5814 26.6461 70.069C23.441 67.5565 20.8279 64.3711 18.9917 60.7381C17.1555 57.1051 16.141 53.1133 16.0201 49.0453C15.8991 44.9772 16.6747 40.9324 18.2919 37.1969C19.9091 33.4615 22.3283 30.1267 25.3785 27.4287V27.4287Z" fill="#111111"/>
</svg>
