<svg width="40" height="30" viewBox="0 0 60 60" fill="none" xmlns="http://www.w3.org/2000/svg">
<g clip-path="url(#clip0_12826_12250)">
<path d="M38.3126 32.2275C38.3126 34.3049 37.696 36.3356 36.5406 38.0628C35.3853 39.79 33.7432 41.1362 31.822 41.9311C29.9007 42.726 27.7867 42.9339 25.7472 42.5285C23.7077 42.1231 21.8343 41.1227 20.364 39.6536C18.8937 38.1846 17.8925 36.313 17.487 34.2756C17.0815 32.2381 17.2899 30.1262 18.0859 28.2071C18.8819 26.288 20.2298 24.6478 21.959 23.4939C23.6881 22.34 25.721 21.7243 27.8005 21.7246C30.5887 21.725 33.2624 22.8318 35.2338 24.8014C37.2052 26.7711 38.3126 29.4423 38.3126 32.2275Z" fill="#187DFF"/>
<path d="M27.8608 15.3622C28.5483 15.362 29.2351 15.4037 29.9174 15.4873L31.7903 0.250147C30.4506 0.0837984 29.1019 0.000269915 27.7519 3.89762e-05C22.5611 -0.00804272 17.4457 1.24079 12.8438 3.6396L20.0117 17.29C22.4306 16.0197 25.1232 15.358 27.8559 15.3622" fill="#187DFF"/>
<path d="M57.932 20.8594L43.6416 26.2594C44.8476 29.4613 45.0562 32.9527 44.2399 36.2751L59.0684 39.9358C60.6211 33.6076 60.2244 26.9585 57.9303 20.8594" fill="#187DFF"/>
<path d="M41.7068 22.6609L54.2999 13.9964C50.6024 8.6198 45.3627 4.48675 39.2698 2.14062L33.8154 16.4618C37.0144 17.683 39.7676 19.8445 41.7117 22.6609" fill="#187DFF"/>
<path d="M9.37849 11.4297L16.6147 19.6053C14.7623 21.2434 13.2928 23.2681 12.3104 25.5363C11.3279 27.8044 10.8564 30.2605 10.9292 32.7309C11.002 35.2012 11.6174 37.6253 12.7318 39.8318C13.8463 42.0382 15.4324 43.9731 17.3782 45.4994C19.3239 47.0257 21.5817 48.1062 23.9916 48.6645C26.4016 49.2227 28.905 49.245 31.3246 48.7299C33.7442 48.2148 36.0209 47.1747 37.9936 45.6833C39.9663 44.192 41.5869 42.2858 42.7405 40.0996L50.6596 44.2442L52.4073 45.1602C50.5093 48.7614 47.8421 51.9018 44.5947 54.3593C41.3472 56.8167 37.5987 58.5311 33.6146 59.3812C29.6304 60.2312 25.5079 60.1961 21.5388 59.2783C17.5697 58.3605 13.8511 56.5824 10.6461 54.07C7.44102 51.5575 4.82792 48.3721 2.9917 44.7391C1.15547 41.1061 0.140994 37.1143 0.0200638 33.0463C-0.100867 28.9782 0.674704 24.9333 2.29189 21.1979C3.90907 17.4624 6.32834 14.1277 9.37849 11.4297Z" fill="#111111"/>
</g>
<defs>
<clipPath id="clip0_12826_12250">
<rect width="60" height="60" fill="white"/>
</clipPath>
</defs>
</svg>
