<svg width="288" height="432" viewBox="0 0 288 432" fill="none" xmlns="http://www.w3.org/2000/svg">
<path d="M155.194 192.098C172.167 192.098 185.389 186.77 194.862 176.113C204.73 165.456 209.664 151.444 209.664 134.077C209.664 117.499 203.94 103.487 192.494 92.0406C181.048 80.5942 165.457 74.871 145.722 74.871C135.065 74.871 125.592 76.8445 117.303 80.7916C109.014 84.3439 101.909 89.4751 95.9888 96.185C90.0682 102.5 85.5291 110 82.3715 118.683C79.6086 126.972 78.2271 135.655 78.2271 144.734V169.6H0.0757018V137.629C0.0757018 119.867 3.23333 102.698 9.5486 86.1201C16.2586 69.5425 25.7315 54.9385 37.9673 42.3079C50.5978 29.6774 65.9913 19.6124 84.1477 12.1131C102.699 4.21897 123.618 0.271923 146.906 0.271923C167.825 0.271923 186.968 3.82426 204.335 10.9289C221.702 17.6389 236.503 27.1118 248.739 39.3477C261.37 51.5835 271.04 65.9902 277.75 82.5677C284.46 98.7506 287.815 116.315 287.815 135.261V138.813C287.815 154.996 285.249 170.389 280.118 184.993C275.382 199.597 268.474 212.425 259.396 223.477C250.318 234.529 239.069 243.41 225.649 250.12C212.229 256.83 197.23 260.185 180.653 260.185C175.127 260.185 170.983 261.763 168.22 264.921C165.457 268.079 164.075 272.42 164.075 277.946V297.484H89.4762V246.567C89.4762 231.174 94.6073 218.346 104.87 208.084C115.527 197.427 128.552 192.098 143.945 192.098H155.194ZM183.613 375.043C183.613 382.938 182.034 390.437 178.877 397.542C176.114 404.252 172.167 410.172 167.036 415.303C161.904 420.04 155.786 423.789 148.682 426.552C141.972 429.71 134.867 431.289 127.368 431.289C119.474 431.289 112.172 429.71 105.462 426.552C98.7517 423.789 92.8312 420.04 87.7 415.303C82.5689 410.172 78.4245 404.252 75.2668 397.542C72.5039 390.437 71.1224 382.938 71.1224 375.043C71.1224 367.149 72.5039 359.847 75.2668 353.137C78.4245 346.033 82.5689 340.112 87.7 335.376C92.8312 330.245 98.7517 326.297 105.462 323.535C112.172 320.377 119.474 318.798 127.368 318.798C134.867 318.798 141.972 320.377 148.682 323.535C155.786 326.297 161.904 330.245 167.036 335.376C172.167 340.112 176.114 346.033 178.877 353.137C182.034 359.847 183.613 367.149 183.613 375.043Z" fill="#187DFF" fill-opacity="0.1"/>
</svg>
