<svg xmlns="http://www.w3.org/2000/svg" width="30" height="30" viewBox="0 0 30 30" fill="none">
    <path fill-rule="evenodd" clip-rule="evenodd"
        d="M30 15C30 23.2843 23.2843 30 15 30C6.71573 30 0 23.2843 0 15C0 6.71573 6.71573 0 15 0C23.2843 0 30 6.71573 30 15ZM14.875 4C11.8536 4 11.4748 4.01282 10.2882 4.06694C9.10404 4.12096 8.29533 4.30905 7.58768 4.58401C6.85611 4.86832 6.2357 5.24874 5.61724 5.86721C4.99874 6.48567 4.61832 7.10615 4.33405 7.83771C4.05901 8.54533 3.87099 9.35404 3.8169 10.5382C3.76278 11.7248 3.75 12.1036 3.75 15.125C3.75 18.1464 3.76278 18.5252 3.8169 19.7118C3.87099 20.896 4.05901 21.7047 4.33405 22.4123C4.61835 23.1439 4.99878 23.7643 5.61724 24.3828C6.23573 25.0013 6.85611 25.3817 7.58768 25.666C8.29533 25.941 9.10404 26.129 10.2882 26.1831C11.4748 26.2372 11.8536 26.25 14.875 26.25C17.8964 26.25 18.2752 26.2372 19.4618 26.1831C20.646 26.129 21.4547 25.941 22.1623 25.666C22.8939 25.3817 23.5143 25.0013 24.1328 24.3828C24.7513 23.7643 25.1317 23.1439 25.416 22.4123C25.691 21.7047 25.879 20.896 25.9331 19.7118C25.9872 18.5252 26 18.1464 26 15.125C26 12.1036 25.9872 11.7248 25.9331 10.5382C25.879 9.35404 25.691 8.54533 25.416 7.83771C25.1317 7.10615 24.7513 6.48567 24.1328 5.86721C23.5143 5.24874 22.8939 4.86832 22.1623 4.58401C21.4547 4.30905 20.646 4.12096 19.4618 4.06694C18.2752 4.01282 17.8964 4 14.875 4ZM14.875 6.00449C17.8455 6.00449 18.1974 6.01585 19.3705 6.06937C20.4552 6.11882 21.0442 6.30006 21.4362 6.45241C21.9555 6.65425 22.3261 6.8953 22.7154 7.2846C23.1047 7.6739 23.3457 8.04452 23.5476 8.56378C23.6999 8.9558 23.8812 9.54488 23.9306 10.6295C23.9841 11.8026 23.9955 12.1545 23.9955 15.125C23.9955 18.0955 23.9841 18.4474 23.9306 19.6205C23.8812 20.7052 23.6999 21.2942 23.5476 21.6862C23.3457 22.2055 23.1047 22.5761 22.7154 22.9654C22.3261 23.3547 21.9555 23.5957 21.4362 23.7976C21.0442 23.9499 20.4551 24.1312 19.3705 24.1806C18.1976 24.2341 17.8457 24.2455 14.875 24.2455C11.9043 24.2455 11.5525 24.2341 10.3795 24.1806C9.29485 24.1312 8.7058 23.9499 8.31382 23.7976C7.79449 23.5957 7.4239 23.3547 7.03463 22.9654C6.64533 22.5761 6.40425 22.2055 6.20241 21.6862C6.05006 21.2942 5.86885 20.7051 5.81937 19.6205C5.76585 18.4474 5.75449 18.0955 5.75449 15.125C5.75449 12.1545 5.76585 11.8026 5.81937 10.6295C5.86885 9.54485 6.05006 8.9558 6.20241 8.56382C6.40425 8.04449 6.64533 7.6739 7.0346 7.28463C7.4239 6.8953 7.79452 6.65425 8.31378 6.45241C8.7058 6.30006 9.29488 6.11882 10.3795 6.06937C11.5526 6.01585 11.9045 6.00449 14.875 6.00449H14.875ZM11.1667 15.125C11.1667 17.173 12.8269 18.8333 14.875 18.8333C16.9231 18.8333 18.5833 17.173 18.5833 15.125C18.5833 13.0769 16.9231 11.4166 14.875 11.4166C12.8269 11.4166 11.1667 13.0769 11.1667 15.125ZM9.16217 15.125C9.16217 11.9698 11.7199 9.41212 14.875 9.41212C18.0301 9.41212 20.5878 11.9698 20.5878 15.125C20.5878 18.2801 18.0301 20.8378 14.875 20.8378C11.7199 20.8378 9.16217 18.2801 9.16217 15.125ZM20.8136 10.5214C21.5508 10.5214 22.1486 9.92373 22.1486 9.1864C22.1486 8.44911 21.5508 7.85138 20.8136 7.85138C20.0763 7.85138 19.4786 8.44911 19.4786 9.1864C19.4786 9.92373 20.0763 10.5214 20.8136 10.5214Z"
        fill="white" />
</svg>