<svg xmlns="http://www.w3.org/2000/svg" width="30" height="30" viewBox="0 0 30 30" fill="none">
    <path fill-rule="evenodd" clip-rule="evenodd"
        d="M30 15C30 23.2843 23.2843 30 15 30C6.71573 30 0 23.2843 0 15C0 6.71573 6.71573 0 15 0C23.2843 0 30 6.71573 30 15ZM22.6144 18.3097L22.6948 18.2769L22.6801 3.92643C22.6793 3.13411 21.8053 2.65376 21.1364 3.07765L12.4226 8.59654L12.4652 8.66375L12.4226 8.59654C12.2956 8.67697 12.1883 8.78483 12.1085 8.9122C12.0287 9.03956 11.9785 9.1832 11.9615 9.33254C11.9445 9.48188 11.9612 9.63313 12.0103 9.77518C12.0595 9.91721 12.1398 10.0464 12.2455 10.1533L20.97 18.9809L21.0504 18.9481C21.6272 19.5009 22.5896 19.1068 22.6144 18.3097ZM15.2518 18.7383L15.2467 18.7412L6.52003 24.2559L6.52001 24.2559C5.85198 24.6778 4.98026 24.2 4.97718 23.4093L4.92009 8.8778V8.8778C4.91646 7.97363 6.01505 7.52442 6.64619 8.17176L15.4346 17.1859C15.5391 17.2932 15.6184 17.4225 15.6666 17.5643C15.7149 17.7061 15.7308 17.8569 15.7133 18.0057C15.6958 18.1544 15.6453 18.2974 15.5654 18.4242C15.4856 18.5509 15.3784 18.6582 15.2518 18.7383ZM18.0652 20.2707C17.8425 20.2597 17.6225 20.3231 17.4398 20.4507L17.4356 20.4535L12.6243 23.8485L12.6242 23.8485C11.8224 24.4145 12.2227 25.6763 13.2043 25.6763H21.9445C22.8764 25.6763 23.3071 24.5187 22.6023 23.9094L22.6022 23.9094L18.6736 20.5144L18.6736 20.5144C18.5037 20.3675 18.2895 20.2817 18.0652 20.2707Z"
        fill="white" />
</svg>