<svg xmlns="http://www.w3.org/2000/svg" width="30" height="30" viewBox="0 0 30 30" fill="none">
    <path fill-rule="evenodd" clip-rule="evenodd" d="M15 30C23.2843 30 30 23.2843 30 
    15C30 6.71573 23.2843 0 15 0C6.71573 
        0 0 6.71573 0 15C0 23.2843 6.71573 30 15 30ZM11.7513 13.8962C10.8344 13.032 
        9.91742 12.1677 9 11.3042V22.5339C9.38899 23.0305 9.93468 23.43 10.6702 
        23.7144C10.7862 23.7594 10.8678 23.8925 10.9492 24.0254C10.9868 24.0868 
        11.0244 24.1481 11.0654 24.2007L10.9404 24.3223H4.60277C4.67623 
        24.2251 4.73519 24.131 4.78775 24.0471C4.88534 23.8914 4.96084 
        23.771 5.06606 23.7311C6.95606 23.0239 7.57787 21.5358 7.5868 
        19.6796C7.60131 16.5953 7.59461 13.5099 7.5868 10.4256C7.5868 
        10.2527 7.55219 10.0173 7.43944 9.91803C6.66022 9.23423 5.8743 
        8.55379 5.04819 7.928C4.89191 7.81005 4.68732 7.75983 4.48045 
        7.70905C4.33711 7.67386 4.19267 7.63841 4.06245 7.57997C3.94895 
        7.52982 3.85841 7.42845 3.76794 7.32716C3.7276 7.28199 3.68727 
        7.23683 3.64493 7.19624L3.74652 7.02H4.346C4.71178 7.02 5.07776 
        7.02355 5.44375 7.02711H5.44382H5.44389H5.44389H5.4439C6.32445 7.03567 
        7.20513 7.04424 8.08358 7.00326C8.8561 6.96757 9.42098 7.22524 9.96465 
        7.74952C13.0597 10.7319 16.1658 13.7026 19.272 16.6735C20.1814 17.5433 
        21.0908 18.4131 22 19.2832V8.74091C21.6994 8.38737 21.3128 8.09383 20.8335 
        7.86665C20.7897 7.84583 20.7433 7.82799 20.6969 7.81018C20.6018 7.77359 20.5067 
        7.73705 20.4339 7.67479C20.3309 7.58584 20.2452 7.47652 20.1595 7.36727L20.1594 
        7.36716L20.1593 7.36711C20.1215 7.31885 20.0836 7.2706 20.0443 7.22413C20.0963 7.20251 
        20.1482 7.17543 20.2001 7.14836L20.2001 7.14835C20.3142 7.08883 20.4282 7.02934 20.5433 
        7.0278C21.4082 7.01442 22.2731 7.01609 23.138 7.01776C23.4263 7.01832 23.7146 7.01888 
        24.0029 7.01888H26.2256L26.3551 7.1717C26.314 7.22305 26.2764 7.28294 26.2388 7.34278C26.1588 
        7.47015 26.079 7.5973 25.9666 
        7.64132C24.1547 8.353 23.4883 9.75628 23.4905 11.5979C23.4936 14.3701 
        23.4908 17.1422 23.4881 19.9144L23.4881 19.9275C23.4868 21.1835 23.4856 
        22.4394 23.4849 23.6954V24.6067C23.3525 24.5361 23.2324 24.4802 23.124 
        24.4298C22.9227 24.3361 22.7621 24.2614 22.6387 24.146C19.9034 21.5821 
        17.1759 19.0104 14.4484 16.4387L12.8125 14.8964L11.7528 13.8976L11.752 13.8969L11.7513 13.8962Z"
        fill="white" />
</svg>