<svg xmlns="http://www.w3.org/2000/svg" width="30" height="30" viewBox="0 0 30 30" fill="currentColor">
    <path fill-rule="evenodd" clip-rule="evenodd"
        d="M15 30C23.2843 30 30 23.2843 30 15C30 6.71573 23.2843 0 15 0C6.71573 0 0 6.71573 0 15C0 23.2843 6.71573 30 15 30ZM4 6V11.4214V12.4214V17.8757V18.8756V18.8757H5H13.9145L5.35479 24.2969H25.6847V18.8757H25.6852V17.8757V12.4214V11.4214H25.6847V11.4213L25.6844 11.4214H24.6852H15.7697L24.3299 6H4ZM5.57874 17.8757L14.1908 12.4214H24.1055L15.4935 17.8757H5.57874Z" />
</svg>