<svg xmlns="http://www.w3.org/2000/svg" width="30" height="30" viewBox="0 0 30 30" fill="none">
    <path fill-rule="evenodd" clip-rule="evenodd"
        d="M15 30C23.2843 30 30 23.2843 30 15C30 6.71573 23.2843 0 15 0C6.71573 0 0 6.71573 0 15C0 23.2843 6.71573 30 15 30ZM25.045 6.55376C26.1525 6.85194 27.0257 7.72518 27.3239 8.8327C27.8777 10.8561 27.8564 15.0732 27.8564 15.0732C27.8564 15.0732 27.8564 19.269 27.3239 21.2923C27.0257 22.3998 26.1525 23.2731 25.045 23.5713C23.0216 24.1037 14.9282 24.1037 14.9282 24.1037C14.9282 24.1037 6.85606 24.1037 4.8114 23.55C3.70388 23.2518 2.83064 22.3785 2.53246 21.271C2 19.269 2 15.0519 2 15.0519C2 15.0519 2 10.8561 2.53246 8.8327C2.83064 7.72518 3.72518 6.83064 4.8114 6.53246C6.83476 6 14.9282 6 14.9282 6C14.9282 6 23.0216 6 25.045 6.55376Z"
        fill="white" />
    <path d="M12.3511 11.1755V18.9282L19.0814 15.0519L12.3511 11.1755Z" fill="white" />
</svg>