<svg width="524" height="53" viewBox="0 0 524 53" fill="none" xmlns="http://www.w3.org/2000/svg">
<path d="M19.6604 44.368C21.4844 44.368 22.9724 44.104 24.1244 43.576C25.3244 43 26.2364 42.256 26.8604 41.344C27.5324 40.384 27.9884 39.304 28.2284 38.104C28.4684 36.856 28.5884 35.584 28.5884 34.288V32.992H38.0924V34.288C38.0924 40.288 36.5084 44.92 33.3404 48.184C30.2204 51.4 25.6604 53.008 19.6604 53.008C13.9004 53.008 9.34038 51.256 5.98038 47.752C2.62038 44.248 0.940375 39.136 0.940375 32.416V21.184C0.940375 17.968 1.37238 15.088 2.23637 12.544C3.10038 9.952 4.34838 7.792 5.98038 6.064C7.61238 4.288 9.58038 2.944 11.8844 2.032C14.1884 1.072 16.7804 0.591997 19.6604 0.591997C22.6364 0.591997 25.2764 1.024 27.5804 1.888C29.8844 2.752 31.8044 4 33.3404 5.632C34.9244 7.264 36.1004 9.232 36.8684 11.536C37.6844 13.84 38.0924 16.432 38.0924 19.312V20.608H28.5884V19.312C28.5884 18.112 28.4444 16.912 28.1564 15.712C27.8684 14.512 27.3884 13.432 26.7164 12.472C26.0444 11.512 25.1324 10.744 23.9804 10.168C22.8284 9.544 21.3884 9.232 19.6604 9.232C18.0764 9.232 16.7084 9.544 15.5564 10.168C14.4044 10.744 13.4444 11.56 12.6764 12.616C11.9084 13.624 11.3324 14.824 10.9484 16.216C10.6124 17.56 10.4444 18.976 10.4444 20.464V33.136C10.4444 34.768 10.6124 36.28 10.9484 37.672C11.2844 39.016 11.8124 40.192 12.5324 41.2C13.2524 42.208 14.1884 43 15.3404 43.576C16.5404 44.104 17.9804 44.368 19.6604 44.368ZM45.0263 21.184C45.0263 14.656 46.6583 9.592 49.9223 5.992C53.2343 2.392 57.7943 0.591997 63.6023 0.591997C69.4103 0.591997 73.9463 2.392 77.2103 5.992C80.5223 9.592 82.1783 14.656 82.1783 21.184V32.416C82.1783 39.136 80.5223 44.248 77.2103 47.752C73.9463 51.256 69.4103 53.008 63.6023 53.008C57.7943 53.008 53.2343 51.256 49.9223 47.752C46.6583 44.248 45.0263 39.136 45.0263 32.416V21.184ZM63.6023 44.368C65.3303 44.368 66.7703 44.104 67.9223 43.576C69.0743 43 70.0103 42.208 70.7303 41.2C71.4503 40.192 71.9543 38.992 72.2423 37.6C72.5303 36.208 72.6743 34.672 72.6743 32.992V20.608C72.6743 19.024 72.5063 17.536 72.1703 16.144C71.8343 14.752 71.3063 13.552 70.5863 12.544C69.8663 11.536 68.9303 10.744 67.7783 10.168C66.6263 9.544 65.2343 9.232 63.6023 9.232C61.9703 9.232 60.5783 9.544 59.4263 10.168C58.2743 10.744 57.3383 11.536 56.6183 12.544C55.8983 13.552 55.3703 14.752 55.0343 16.144C54.6983 17.536 54.5303 19.024 54.5303 20.608V32.992C54.5303 34.672 54.6743 36.208 54.9623 37.6C55.2503 38.992 55.7543 40.192 56.4743 41.2C57.1943 42.208 58.1303 43 59.2823 43.576C60.4343 44.104 61.8743 44.368 63.6023 44.368ZM87.2403 1.6H103.944L106.824 39.472V46.816H108.552V39.472L111.432 1.6H128.136V52H119.496V18.304L120.36 6.784H118.632L114.888 52H100.632L96.7443 6.784H95.0163L95.8803 18.304V52H87.2403V1.6ZM144.43 32.992V52H134.926V1.6H154.654C157.246 1.6 159.502 2.032 161.422 2.896C163.342 3.712 164.926 4.816 166.174 6.208C167.47 7.552 168.43 9.112 169.054 10.888C169.726 12.616 170.062 14.392 170.062 16.216V17.944C170.062 19.816 169.726 21.664 169.054 23.488C168.43 25.264 167.47 26.872 166.174 28.312C164.926 29.704 163.342 30.832 161.422 31.696C159.502 32.56 157.246 32.992 154.654 32.992H144.43ZM144.43 23.92H153.718C155.83 23.92 157.486 23.344 158.686 22.192C159.934 21.04 160.558 19.552 160.558 17.728V16.864C160.558 15.04 159.934 13.552 158.686 12.4C157.486 11.248 155.83 10.672 153.718 10.672H144.43V23.92ZM204.428 41.2H187.292L184.844 52H174.908L186.932 1.6H204.788L216.812 52H206.876L204.428 41.2ZM189.308 32.128H202.34L196.508 6.352H195.212L189.308 32.128ZM246.786 47.248H248.082V1.6H257.586V52H239.01L233.106 6.352H231.81V52H222.306V1.6H240.882L246.786 47.248ZM279.28 34.288H277.12L262.648 1.6H273.016L283.384 25.648H284.68L295.048 1.6H305.416L290.944 34.288H288.784V52H279.28V34.288ZM356.076 1.6H365.58V42.928H388.476V52H356.076V1.6ZM397.714 21.184C397.714 14.656 399.346 9.592 402.61 5.992C405.922 2.392 410.482 0.591997 416.29 0.591997C422.098 0.591997 426.634 2.392 429.898 5.992C433.21 9.592 434.866 14.656 434.866 21.184V32.416C434.866 39.136 433.21 44.248 429.898 47.752C426.634 51.256 422.098 53.008 416.29 53.008C410.482 53.008 405.922 51.256 402.61 47.752C399.346 44.248 397.714 39.136 397.714 32.416V21.184ZM416.29 44.368C418.018 44.368 419.458 44.104 420.61 43.576C421.762 43 422.698 42.208 423.418 41.2C424.138 40.192 424.642 38.992 424.93 37.6C425.218 36.208 425.362 34.672 425.362 32.992V20.608C425.362 19.024 425.194 17.536 424.858 16.144C424.522 14.752 423.994 13.552 423.274 12.544C422.554 11.536 421.618 10.744 420.466 10.168C419.314 9.544 417.922 9.232 416.29 9.232C414.658 9.232 413.266 9.544 412.114 10.168C410.962 10.744 410.026 11.536 409.306 12.544C408.586 13.552 408.058 14.752 407.722 16.144C407.386 17.536 407.218 19.024 407.218 20.608V32.992C407.218 34.672 407.362 36.208 407.65 37.6C407.938 38.992 408.442 40.192 409.162 41.2C409.882 42.208 410.818 43 411.97 43.576C413.122 44.104 414.562 44.368 416.29 44.368ZM457.064 26.512H478.664V52H470.024V46.384H468.728C468.152 48.256 467.048 49.84 465.416 51.136C463.784 52.384 461.336 53.008 458.072 53.008C455.768 53.008 453.608 52.576 451.592 51.712C449.576 50.848 447.824 49.576 446.336 47.896C444.848 46.168 443.672 44.056 442.808 41.56C441.944 39.016 441.512 36.064 441.512 32.704V20.896C441.512 17.632 441.968 14.752 442.88 12.256C443.84 9.712 445.136 7.576 446.768 5.848C448.448 4.12 450.44 2.824 452.744 1.96C455.048 1.048 457.592 0.591997 460.376 0.591997C463.256 0.591997 465.824 1.072 468.08 2.032C470.336 2.944 472.256 4.24 473.84 5.92C475.424 7.552 476.624 9.496 477.44 11.752C478.256 13.96 478.664 16.336 478.664 18.88V19.744H469.16V18.88C469.16 15.856 468.368 13.576 466.784 12.04C465.248 10.456 463.064 9.664 460.232 9.664C457.544 9.664 455.336 10.576 453.608 12.4C451.88 14.176 451.016 17.248 451.016 21.616V32.272C451.016 40.048 454.184 43.936 460.52 43.936C463.352 43.936 465.488 43.192 466.928 41.704C468.416 40.168 469.16 38.128 469.16 35.584H457.064V26.512ZM485.886 21.184C485.886 14.656 487.518 9.592 490.782 5.992C494.094 2.392 498.654 0.591997 504.462 0.591997C510.27 0.591997 514.806 2.392 518.07 5.992C521.382 9.592 523.038 14.656 523.038 21.184V32.416C523.038 39.136 521.382 44.248 518.07 47.752C514.806 51.256 510.27 53.008 504.462 53.008C498.654 53.008 494.094 51.256 490.782 47.752C487.518 44.248 485.886 39.136 485.886 32.416V21.184ZM504.462 44.368C506.19 44.368 507.63 44.104 508.782 43.576C509.934 43 510.87 42.208 511.59 41.2C512.31 40.192 512.814 38.992 513.102 37.6C513.39 36.208 513.534 34.672 513.534 32.992V20.608C513.534 19.024 513.366 17.536 513.03 16.144C512.694 14.752 512.166 13.552 511.446 12.544C510.726 11.536 509.79 10.744 508.638 10.168C507.486 9.544 506.094 9.232 504.462 9.232C502.83 9.232 501.438 9.544 500.286 10.168C499.134 10.744 498.198 11.536 497.478 12.544C496.758 13.552 496.23 14.752 495.894 16.144C495.558 17.536 495.39 19.024 495.39 20.608V32.992C495.39 34.672 495.534 36.208 495.822 37.6C496.11 38.992 496.614 40.192 497.334 41.2C498.054 42.208 498.99 43 500.142 43.576C501.294 44.104 502.734 44.368 504.462 44.368Z" fill="white"/>
</svg>
