<svg width="81" height="24" viewBox="0 0 81 24" fill="none" xmlns="http://www.w3.org/2000/svg">
<rect width="81" height="24" fill="#FF6660"/>
<path transform="rotate(-90 24 0) translate(0 -24)" d="M19 5.22V7.86L13.28 7.86L13.28 12.38L19 12.38V15.02L5 15.02V12.38H10.76L10.76 7.86H5V5.22L19 5.22ZM5 27.1061V24.4661L9.2 24.4661C9.52 24.4661 9.78 24.3794 9.98 24.2061C10.18 24.0461 10.28 23.7728 10.28 23.3861V20.3461L5 20.3461L5 17.7061H19L19 23.0661C19 23.7861 18.9 24.4194 18.7 24.9661C18.5 25.5128 18.22 25.9661 17.86 26.3261C17.5133 26.6994 17.1067 26.9794 16.64 27.1661C16.1733 27.3661 15.6733 27.4661 15.14 27.4661H14.66C14.0867 27.4661 13.5467 27.3128 13.04 27.0061C12.5467 26.6994 12.1667 26.2261 11.9 25.5861H11.54C11.4867 26.0528 11.3067 26.4194 11 26.6861C10.6933 26.9661 10.3067 27.1061 9.84 27.1061L5 27.1061ZM12.8 20.3461V22.8661C12.8 23.5061 12.9467 23.9928 13.24 24.3261C13.5467 24.6594 13.9733 24.8261 14.52 24.8261H14.76C15.2267 24.8261 15.6267 24.6594 15.96 24.3261C16.3067 23.9928 16.48 23.5061 16.48 22.8661V20.3461H12.8ZM19 29.4122V34.4922C19 36.2255 18.5933 37.5122 17.78 38.3522C16.98 39.1922 15.7333 39.6122 14.04 39.6122H9.96C8.26667 39.6122 7.01333 39.1922 6.2 38.3522C5.4 37.5122 5 36.2255 5 34.4922V29.4122L7.54 29.4122V30.7322H16.48V29.4122H19ZM7.52 34.4922C7.52 35.4122 7.73333 36.0522 8.16 36.4122C8.6 36.7855 9.28 36.9722 10.2 36.9722H14.04C14.84 36.9722 15.4467 36.7855 15.86 36.4122C16.2733 36.0522 16.48 35.4122 16.48 34.4922V33.3722H7.52V34.4922ZM5 52.3383L5 47.7383L15.64 47.0983H17.56V46.6183H15.64L5 45.9783V41.3783L19 40.8983V43.2983L8.36 43.6183H6.56V44.0983H8.36L19 44.7383V48.9783L8.36 49.6183H6.56V50.0983H8.36L19 50.4183V52.8183L5 52.3383ZM5 63.8444V61.2044H9.2C9.52 61.2044 9.78 61.1177 9.98 60.9444C10.18 60.7844 10.28 60.511 10.28 60.1244L10.28 57.0844H5V54.4444H19V59.8044C19 60.5244 18.9 61.1577 18.7 61.7044C18.5 62.251 18.22 62.7044 17.86 63.0644C17.5133 63.4377 17.1067 63.7177 16.64 63.9044C16.1733 64.1044 15.6733 64.2044 15.14 64.2044H14.66C14.0867 64.2044 13.5467 64.051 13.04 63.7444C12.5467 63.4377 12.1667 62.9644 11.9 62.3244H11.54C11.4867 62.791 11.3067 63.1577 11 63.4244C10.6933 63.7044 10.3067 63.8444 9.84 63.8444H5ZM12.8 57.0844V59.6044C12.8 60.2444 12.9467 60.731 13.24 61.0644C13.5467 61.3977 13.9733 61.5644 14.52 61.5644H14.76C15.2267 61.5644 15.6267 61.3977 15.96 61.0644C16.3067 60.731 16.48 60.2444 16.48 59.6044V57.0844H12.8ZM19 66.8705V75.7105H16.48V69.5105H13.28V75.4705H10.76V69.5105H7.52V75.9505H5V66.8705H19Z" fill="white"/>
</svg>
