<svg width="81" height="24" viewBox="0 0 81 24" fill="none" xmlns="http://www.w3.org/2000/svg">
    <rect width="81" height="24" fill="#187DFF"/>
    <path transform="rotate(-90 24 0) translate(0 -24)" d="M14.72 12.52C15.28 12.52 15.7667 12.3 16.18 11.86C16.5933 11.4333 16.8 10.8267 16.8 10.04C16.8 9.37333 16.66 8.84667 16.38 8.46C16.1133 8.07333 15.7467 7.88 15.28 7.88C15.04 7.88 14.82 7.92667 14.62 8.02C14.4333 8.11333 14.26 8.27333 14.1 8.5C13.9533 8.74 13.82 9.04667 13.7 9.42C13.58 9.80667 13.4667 10.2933 13.36 10.88C13.0933 12.3467 12.6467 13.4667 12.02 14.24C11.3933 15.0133 10.4667 15.4 9.24 15.4H9C8.34667 15.4 7.75333 15.28 7.22 15.04C6.7 14.8133 6.25333 14.48 5.88 14.04C5.50667 13.6 5.22 13.0667 5.02 12.44C4.82 11.8133 4.72 11.1067 4.72 10.32C4.72 9.4 4.84667 8.58667 5.1 7.88C5.36667 7.18667 5.72667 6.60667 6.18 6.14C6.64667 5.67333 7.18667 5.32 7.8 5.08C8.42667 4.84 9.10667 4.72 9.84 4.72H10.44V7.36H9.96C9.12 7.36 8.44667 7.6 7.94 8.08C7.44667 8.57333 7.2 9.33333 7.2 10.36C7.2 11.16 7.37333 11.7533 7.72 12.14C8.06667 12.5267 8.48 12.72 8.96 12.72C9.18667 12.72 9.4 12.68 9.6 12.6C9.81333 12.52 10 12.38 10.16 12.18C10.3333 11.98 10.4867 11.7067 10.62 11.36C10.7533 11.0133 10.8667 10.5733 10.96 10.04C11.08 9.33333 11.2333 8.68667 11.42 8.1C11.62 7.51333 11.88 7 12.2 6.56C12.52 6.13333 12.92 5.8 13.4 5.56C13.88 5.32 14.4667 5.2 15.16 5.2H15.28C15.8533 5.2 16.38 5.31333 16.86 5.54C17.3533 5.78 17.78 6.10667 18.14 6.52C18.5 6.94667 18.78 7.45333 18.98 8.04C19.18 8.64 19.28 9.30667 19.28 10.04C19.28 10.8667 19.16 11.6 18.92 12.24C18.6933 12.88 18.38 13.4133 17.98 13.84C17.58 14.28 17.12 14.6067 16.6 14.82C16.08 15.0467 15.5333 15.16 14.96 15.16H14.24V12.52H14.72ZM19 18.0061L19 26.9661H16.48L16.48 20.6461H13.28V26.8461H10.76V20.6461L5 20.6461L5 18.0061H19ZM19 29.5722V39.6522H16.48V35.9322H5V33.2922H16.48V29.5722H19ZM5 52.3383L5 47.7383L15.64 47.0983H17.56V46.6183H15.64L5 45.9783V41.3783L19 40.8983V43.2983L8.36 43.6183H6.56V44.0983H8.36L19 44.7383V48.9783L8.36 49.6183H6.56V50.0983H8.36L19 50.4183V52.8183L5 52.3383ZM5 63.8444V61.2044H9.2C9.52 61.2044 9.78 61.1177 9.98 60.9444C10.18 60.7844 10.28 60.511 10.28 60.1244L10.28 57.0844H5V54.4444H19V59.8044C19 60.5244 18.9 61.1577 18.7 61.7044C18.5 62.251 18.22 62.7044 17.86 63.0644C17.5133 63.4377 17.1067 63.7177 16.64 63.9044C16.1733 64.1044 15.6733 64.2044 15.14 64.2044H14.66C14.0867 64.2044 13.5467 64.051 13.04 63.7444C12.5467 63.4377 12.1667 62.9644 11.9 62.3244H11.54C11.4867 62.791 11.3067 63.1577 11 63.4244C10.6933 63.7044 10.3067 63.8444 9.84 63.8444H5ZM12.8 57.0844V59.6044C12.8 60.2444 12.9467 60.731 13.24 61.0644C13.5467 61.3977 13.9733 61.5644 14.52 61.5644H14.76C15.2267 61.5644 15.6267 61.3977 15.96 61.0644C16.3067 60.731 16.48 60.2444 16.48 59.6044V57.0844H12.8ZM19 66.8705V75.7105H16.48V69.5105H13.28V75.4705H10.76V69.5105H7.52V75.9505H5V66.8705H19Z" fill="white"/>
</svg>