<svg width="504" height="503" viewBox="0 0 504 503" fill="none" xmlns="http://www.w3.org/2000/svg">
<g clip-path="url(#clip0_3902_10452)">
<path d="M76.0977 101.44C67.5159 101.435 59.0839 103.689 51.6495 107.974C44.2151 112.259 38.0404 118.425 33.746 125.853C11.6578 164.076 0.0248732 207.438 0.016606 251.58C0.00833878 295.722 11.625 339.088 33.6989 377.32C55.7728 415.551 87.526 447.301 125.766 469.376C164.007 491.451 207.387 503.075 251.546 503.078C264.511 503.078 276.944 497.93 286.112 488.766C295.279 479.603 300.429 467.174 300.429 454.215C300.429 441.255 295.279 428.827 286.112 419.663C276.944 410.499 264.511 405.351 251.546 405.351C224.569 405.337 198.069 398.23 174.708 384.743C151.346 371.256 131.944 351.863 118.45 328.512C104.955 305.161 97.8421 278.673 97.8249 251.706C97.8077 224.738 104.887 198.241 118.352 174.872C122.653 167.449 124.924 159.023 124.935 150.444C124.945 141.865 122.697 133.434 118.414 125.999C114.131 118.565 107.966 112.388 100.538 108.091C93.1094 103.793 84.6803 101.527 76.0977 101.519V101.44Z" fill="url(#paint0_linear_3902_10452)" fill-opacity="0.9"/>
<path d="M426.995 101.44C418.413 101.448 409.983 103.715 402.555 108.012C395.127 112.31 388.962 118.486 384.679 125.921C380.396 133.356 378.147 141.787 378.158 150.366C378.169 158.945 380.44 167.37 384.741 174.794C398.206 198.162 405.285 224.66 405.268 251.627C405.251 278.595 398.138 305.083 384.643 328.434C371.149 351.785 351.747 371.177 328.385 384.664C305.024 398.151 278.524 405.259 251.546 405.273C238.582 405.273 226.149 410.421 216.981 419.585C207.814 428.749 202.664 441.177 202.664 454.137C202.664 467.096 207.814 479.525 216.981 488.688C226.149 497.852 238.582 503 251.546 503C295.706 502.997 339.086 491.373 377.327 469.298C415.567 447.222 447.32 415.473 469.394 377.242C491.468 339.01 503.085 295.644 503.076 251.502C503.068 207.36 491.435 163.998 469.347 125.774C465.043 118.362 458.864 112.211 451.43 107.94C443.996 103.669 435.569 101.427 426.995 101.44Z" fill="url(#paint1_linear_3902_10452)" fill-opacity="0.9"/>
<path d="M251.547 0.000213623C207.425 0.0843353 164.095 11.7293 125.879 33.774C87.6634 55.8187 55.8966 87.4928 33.7466 125.638C30.2825 131.2 27.9729 137.402 26.9551 143.875C25.9374 150.348 26.2323 156.959 27.8224 163.315C29.4125 169.672 32.2652 175.644 36.2109 180.876C40.1566 186.108 45.1147 190.493 50.7903 193.771C56.4658 197.049 62.7429 199.152 69.2481 199.956C75.7533 200.76 82.3538 200.248 88.657 198.45C94.9602 196.652 100.837 193.606 105.939 189.491C111.04 185.377 115.262 180.279 118.352 174.501C131.856 151.136 151.273 131.734 174.653 118.245C198.033 104.755 224.552 97.6541 251.547 97.6541C278.542 97.6541 305.061 104.755 328.441 118.245C351.821 131.734 371.238 151.136 384.742 174.501C387.832 180.279 392.054 185.377 397.156 189.491C402.257 193.606 408.134 196.652 414.437 198.45C420.74 200.248 427.341 200.76 433.846 199.956C440.351 199.152 446.628 197.049 452.304 193.771C457.979 190.493 462.937 186.108 466.883 180.876C470.829 175.644 473.682 169.672 475.272 163.315C476.862 156.959 477.157 150.348 476.139 143.875C475.121 137.402 472.812 131.2 469.348 125.638C447.197 87.4928 415.431 55.8187 377.215 33.774C338.999 11.7293 295.669 0.0843353 251.547 0.000213623Z" fill="url(#paint2_linear_3902_10452)" fill-opacity="0.9"/>
<path d="M212.951 249.468H226.645V254.032H212.951V249.468Z" fill="#187DFF"/>
<path d="M212.952 258.597H226.646V263.161H212.952V258.597Z" fill="#187DFF"/>
<path d="M317.936 240.759V235.775C317.936 232 314.864 228.928 311.089 228.928H304.242V233.492H311.089C312.346 233.492 313.371 234.517 313.371 235.775V240.759C310.721 241.703 308.807 244.214 308.807 247.186C308.807 250.961 311.878 254.033 315.653 254.033C319.428 254.033 322.5 250.961 322.5 247.186C322.5 244.215 320.586 241.704 317.936 240.759ZM315.653 249.468C314.396 249.468 313.371 248.443 313.371 247.186C313.371 245.929 314.396 244.904 315.653 244.904C316.911 244.904 317.936 245.929 317.936 247.186C317.936 248.443 316.911 249.468 315.653 249.468Z" fill="#187DFF"/>
<path d="M315.653 210.669C312.682 210.669 310.172 212.584 309.226 215.234H299.517C299.613 214.485 299.677 213.725 299.677 212.951C299.677 202.884 291.487 194.693 281.419 194.693C281.266 194.693 281.114 194.695 280.961 194.701C276.691 186.325 268.084 181 258.597 181C250.673 181 243.326 184.695 238.586 190.972C236.943 190.412 235.238 190.129 233.492 190.129C227.286 190.129 221.681 193.742 219.064 199.274C210.594 199.659 203.823 206.673 203.823 215.234H194.274C193.328 212.584 190.818 210.669 187.847 210.669C184.072 210.669 181 213.741 181 217.516C181 221.291 184.072 224.363 187.847 224.363C190.818 224.363 193.328 222.448 194.274 219.798H204.496C206.465 226.389 212.578 231.209 219.798 231.209H249.468V235.774H203.823V258.597H194.694V313.371H240.568C241.627 318.572 246.239 322.5 251.749 322.5C257.258 322.5 261.871 318.572 262.93 313.371H308.805V258.597H299.676V235.774H254.031V231.209H281.418C289.063 231.209 295.616 226.481 298.332 219.798H309.226C310.17 222.448 312.681 224.363 315.653 224.363C319.428 224.363 322.5 221.291 322.5 217.516C322.499 213.741 319.427 210.669 315.652 210.669L315.653 210.669ZM187.847 219.798C186.59 219.798 185.565 218.773 185.565 217.516C185.565 216.259 186.59 215.234 187.847 215.234C189.104 215.234 190.129 216.259 190.129 217.516C190.129 218.773 189.104 219.798 187.847 219.798ZM208.387 240.339H249.468V242.621C249.468 246.396 252.54 249.468 256.315 249.468H272.29C273.548 249.468 274.573 250.493 274.573 251.75C274.573 253.007 273.548 254.032 272.29 254.032H256.315C252.54 254.032 249.468 257.104 249.468 260.879V263.161H243.239L241.24 269.401C239.479 269.967 237.773 270.669 236.153 271.499L230.335 268.504L218.299 280.541L221.293 286.359C220.465 287.979 219.762 289.684 219.195 291.446L212.951 293.449V299.677H208.387L208.387 240.339ZM277.643 287.494C278.752 289.478 279.64 291.624 280.274 293.875L280.608 295.055L285.984 296.776V299.676H276.739C275.581 286.9 264.823 276.854 251.75 276.854C238.677 276.854 227.919 286.9 226.761 299.676H217.516V296.776L222.893 295.053L223.226 293.873C223.863 291.622 224.748 289.476 225.858 287.492L226.456 286.424L223.879 281.414L231.208 274.086L236.218 276.662L237.285 276.064C239.269 274.955 241.416 274.067 243.667 273.432L244.846 273.099L246.567 267.725H256.931L258.654 273.101L259.834 273.434C262.084 274.071 264.231 274.957 266.215 276.066L267.283 276.664L272.293 274.088L279.621 281.416L277.045 286.426L277.643 287.494ZM258.033 292.449C256.837 291.657 255.486 291.075 254.032 290.778V281.553C257.988 281.993 261.601 283.561 264.556 285.926L258.033 292.449ZM249.468 290.778C248.014 291.074 246.665 291.654 245.467 292.449L238.944 285.926C241.9 283.561 245.513 281.993 249.468 281.553V290.778ZM235.717 289.153L242.24 295.675C241.445 296.874 240.867 298.223 240.569 299.677H231.344C231.784 295.721 233.352 292.106 235.717 289.153H235.717ZM251.75 295.112C254.721 295.112 257.232 297.026 258.177 299.677H245.326C246.269 297.026 248.779 295.112 251.75 295.112ZM262.931 299.677C262.635 298.223 262.055 296.872 261.26 295.675L267.783 289.153C270.148 292.108 271.718 295.721 272.156 299.677H262.931ZM304.241 263.16V308.806H258.596V311.088C258.596 314.863 255.524 317.935 251.749 317.935C247.974 317.935 244.903 314.863 244.903 311.088V308.806H199.257V263.16H203.822V304.241H299.677V263.16H304.241ZM295.112 240.338V299.677H290.548V293.448L284.308 291.449C283.742 289.688 283.04 287.982 282.21 286.362L285.205 280.544L273.168 268.507L267.35 271.502C265.73 270.673 264.024 269.97 262.263 269.404L260.26 263.16H254.031V260.878C254.031 259.621 255.056 258.596 256.314 258.596H272.289C276.064 258.596 279.136 255.524 279.136 251.749C279.136 247.974 276.064 244.902 272.289 244.902H256.314C255.056 244.902 254.031 243.877 254.031 242.62V240.338L295.112 240.338ZM281.419 226.644H219.798C213.505 226.644 208.386 221.526 208.386 215.233C208.386 208.941 213.505 203.822 219.798 203.822C219.939 203.822 220.076 203.833 220.213 203.842L222.163 203.96L222.733 202.335C224.335 197.765 228.658 194.693 233.491 194.693C235.199 194.693 236.858 195.074 238.424 195.827L240.24 196.701L241.333 195.005C245.14 189.094 251.594 185.564 258.596 185.564C266.81 185.564 274.216 190.443 277.468 197.993L278.14 199.552L279.826 199.358C280.348 199.298 280.877 199.257 281.419 199.257C288.97 199.257 295.112 205.399 295.112 212.951C295.112 220.503 288.97 226.644 281.419 226.644L281.419 226.644ZM315.652 219.798C314.395 219.798 313.37 218.773 313.37 217.515C313.37 216.258 314.395 215.233 315.652 215.233C316.91 215.233 317.935 216.258 317.935 217.515C317.935 218.773 316.91 219.798 315.652 219.798Z" fill="#187DFF"/>
<path d="M317.936 199.258V194.274C320.586 193.328 322.5 190.818 322.5 187.847C322.5 184.072 319.428 181 315.653 181C311.878 181 308.807 184.072 308.807 187.847C308.807 190.818 310.721 193.328 313.371 194.274V199.258C313.371 200.515 312.346 201.54 311.089 201.54H304.242V206.105H311.089C314.864 206.105 317.936 203.033 317.936 199.258ZM315.653 185.565C316.911 185.565 317.936 186.589 317.936 187.847C317.936 189.104 316.911 190.129 315.653 190.129C314.396 190.129 313.371 189.104 313.371 187.847C313.371 186.589 314.396 185.565 315.653 185.565Z" fill="#187DFF"/>
<path d="M190.129 240.759V235.775C190.129 234.517 191.154 233.492 192.411 233.492H199.258V228.928H192.411C188.636 228.928 185.565 232 185.565 235.775V240.759C182.914 241.704 181 244.215 181 247.186C181 250.961 184.072 254.033 187.847 254.033C191.622 254.033 194.694 250.961 194.694 247.186C194.694 244.215 192.779 241.704 190.129 240.759ZM187.847 249.468C186.589 249.468 185.565 248.443 185.565 247.186C185.565 245.929 186.589 244.904 187.847 244.904C189.104 244.904 190.129 245.929 190.129 247.186C190.129 248.443 189.104 249.468 187.847 249.468Z" fill="#187DFF"/>
<path d="M185.565 194.274V199.258C185.565 203.033 188.636 206.105 192.411 206.105H199.258V201.54H192.411C191.154 201.54 190.129 200.515 190.129 199.258V194.274C192.779 193.328 194.694 190.818 194.694 187.847C194.694 184.072 191.622 181 187.847 181C184.072 181 181 184.072 181 187.847C181 190.818 182.914 193.328 185.565 194.274ZM187.847 185.565C189.104 185.565 190.129 186.589 190.129 187.847C190.129 189.104 189.104 190.129 187.847 190.129C186.589 190.129 185.565 189.104 185.565 187.847C185.565 186.589 186.589 185.565 187.847 185.565Z" fill="#187DFF"/>
<path d="M258.597 190.129V194.693C263.631 194.693 267.726 198.788 267.726 203.822H272.29C272.29 196.271 266.148 190.129 258.597 190.129Z" fill="#187DFF"/>
<path d="M217.517 215.234H212.952C212.952 219.009 216.024 222.081 219.799 222.081H231.21V217.516H219.799C218.542 217.516 217.517 216.491 217.517 215.234Z" fill="#187DFF"/>
<path d="M235.774 217.516H240.339V222.081H235.774V217.516Z" fill="#187DFF"/>
</g>
<defs>
<linearGradient id="paint0_linear_3902_10452" x1="79.4831" y1="159.749" x2="261.045" y2="452.874" gradientUnits="userSpaceOnUse">
<stop stop-color="#FFBF3C"/>
<stop offset="0.57635" stop-color="#FFBF3C" stop-opacity="0.403509"/>
<stop offset="1" stop-color="#FFBF3C" stop-opacity="0"/>
</linearGradient>
<linearGradient id="paint1_linear_3902_10452" x1="202.664" y1="459.436" x2="271.983" y2="74.4368" gradientUnits="userSpaceOnUse">
<stop stop-color="#FF4B44"/>
<stop offset="1" stop-color="#FF6660" stop-opacity="0"/>
</linearGradient>
<linearGradient id="paint2_linear_3902_10452" x1="383.546" y1="225.375" x2="55.4212" y2="172.875" gradientUnits="userSpaceOnUse">
<stop stop-color="#187DFF"/>
<stop offset="1" stop-color="#187DFF" stop-opacity="0"/>
</linearGradient>
<clipPath id="clip0_3902_10452">
<rect width="503" height="503" fill="white" transform="matrix(1 0 0 -1 0.0566406 503)"/>
</clipPath>
</defs>
</svg>
