<svg width="688" height="689" viewBox="0 0 688 689" fill="none" xmlns="http://www.w3.org/2000/svg">
<g clip-path="url(#clip0_3902_10436)">
<path d="M561.24 267.578C565.535 260.149 567.8 251.72 567.806 243.139C567.812 234.558 565.559 226.127 561.274 218.694C539.216 180.454 507.48 148.698 469.256 126.62C431.032 104.542 387.667 92.9192 343.521 92.9201C299.374 92.9209 256.002 104.545 217.764 126.625C179.526 148.704 147.77 180.461 125.687 218.702C119.205 229.93 117.447 243.272 120.799 255.793C124.151 268.313 132.34 278.988 143.563 285.468C154.786 291.947 168.125 293.701 180.644 290.344C193.164 286.987 203.839 278.793 210.321 267.566C223.823 244.21 243.227 224.814 266.588 211.326C289.949 197.838 316.444 190.731 343.414 190.72C370.384 190.709 396.88 197.793 420.243 211.262C443.606 224.731 463.014 244.11 476.519 267.455C480.798 274.892 486.959 281.071 494.383 285.37C501.807 289.669 510.233 291.937 518.813 291.946C527.393 291.954 535.825 289.703 543.261 285.419C550.697 281.134 556.874 274.968 561.172 267.539L561.24 267.578Z" fill="url(#paint0_linear_3902_10436)" fill-opacity="0.9"/>
<path d="M385.791 571.464C390.076 564.028 392.327 555.594 392.32 547.013C392.312 538.431 390.046 530.003 385.749 522.577C381.451 515.151 375.274 508.988 367.839 504.708C360.404 500.427 351.972 498.181 343.392 498.194C316.422 498.171 289.935 491.053 266.589 477.555C243.244 464.056 223.86 444.652 210.385 421.29C196.91 397.927 189.817 371.429 189.817 344.454C189.818 317.479 196.913 290.976 210.389 267.605C216.871 256.377 218.63 243.036 215.277 230.515C211.925 217.994 203.736 207.319 192.513 200.84C181.29 194.36 167.952 192.606 155.432 195.963C142.912 199.32 132.237 207.514 125.755 218.741C103.678 256.986 92.0545 300.366 92.0521 344.521C92.0496 388.676 103.669 432.05 125.741 470.282C147.814 508.514 179.562 540.258 217.794 562.322C256.026 584.386 299.395 595.992 343.542 595.975C352.113 595.954 360.53 593.678 367.945 589.376C375.361 585.073 381.516 578.896 385.791 571.464Z" fill="url(#paint1_linear_3902_10436)" fill-opacity="0.9"/>
<path d="M561.366 470.242C583.354 431.988 594.934 388.641 594.951 344.523C594.967 300.405 583.42 257.057 561.461 218.802C558.376 213.021 554.159 207.92 549.063 203.802C543.966 199.684 538.093 196.634 531.793 194.833C525.493 193.032 518.895 192.516 512.391 193.317C505.887 194.118 499.61 196.219 493.934 199.496C488.257 202.772 483.297 207.156 479.348 212.388C475.4 217.62 472.543 223.592 470.948 229.95C469.354 236.307 469.054 242.92 470.066 249.395C471.078 255.87 473.382 262.075 476.841 267.641C490.324 291.018 497.418 317.535 497.41 344.527C497.402 371.519 490.293 398.036 476.795 421.415C463.298 444.793 443.888 464.209 420.516 477.712C397.144 491.215 370.633 498.33 343.646 498.341C337.097 498.129 330.571 499.236 324.457 501.597C318.344 503.957 312.767 507.524 308.058 512.084C303.35 516.643 299.606 522.104 297.049 528.139C294.493 534.175 293.176 540.662 293.177 547.217C293.178 553.771 294.497 560.257 297.055 566.29C299.613 572.323 303.359 577.78 308.068 582.335C312.778 586.89 318.356 590.452 324.471 592.807C330.585 595.162 337.111 596.262 343.66 596.043C387.77 595.933 431.084 584.26 469.283 562.186C507.482 540.113 539.232 508.411 561.366 470.242Z" fill="url(#paint2_linear_3902_10436)" fill-opacity="0.9"/>
<path d="M394.326 406.52C394.144 405.792 394.035 405.049 393.915 404.307C406.172 398.162 414 385.614 414 371.79C414 351.727 397.675 335.403 377.613 335.403H376.34C376.613 334.718 377.135 334.134 377.854 333.809L385.77 330.247C390.18 328.264 392.318 323.284 390.742 318.667C389.933 316.292 388.051 314.296 385.584 313.187L377.854 309.707C376.44 309.073 375.764 307.44 376.315 305.989L379.321 298.066C380.281 295.535 380.196 292.792 379.09 290.539C376.938 286.163 371.908 284.146 367.387 285.87L359.27 288.949C357.821 289.492 356.189 288.822 355.552 287.407L352.074 279.676C350.962 277.209 348.965 275.328 346.588 274.515C341.967 272.942 336.993 275.077 335.01 279.489L331.449 287.403C330.812 288.817 329.175 289.489 327.731 288.945L319.805 285.939C317.274 284.977 314.533 285.061 312.28 286.169C307.902 288.322 305.894 293.353 307.608 297.872L310.688 305.988C311.238 307.439 310.561 309.07 309.145 309.706L301.417 313.186C298.95 314.295 297.069 316.292 296.26 318.666C294.684 323.283 296.819 328.264 301.231 330.246L309.145 333.808C309.866 334.133 310.389 334.718 310.662 335.402L309.387 335.403C289.325 335.403 273 351.727 273 371.79C273 381.089 274.491 390.277 277.433 399.101L281.215 410.452H273V415H414V410.452H395.682C395.138 409.173 394.66 407.866 394.326 406.52L394.326 406.52ZM294.215 381.684C292.322 380.424 291.194 378.313 291.194 376.042C291.194 373.12 293.058 370.536 295.831 369.61L298.017 368.882V364.968C298.017 362.459 300.057 360.42 302.565 360.42H318.485C322.246 360.42 325.307 363.481 325.307 367.242V369.036C325.307 371.288 325.969 373.469 327.218 375.343L329.408 378.63C329.701 379.07 329.856 379.582 329.856 380.108C329.856 381.124 329.289 382.039 328.385 382.494L325.307 384.031V392.259C325.307 396.02 322.246 399.081 318.485 399.081H302.565V403.63H311.662V405.986C311.662 407.503 311.915 408.997 312.342 410.452H296.221C296.551 409.522 296.849 408.578 297.087 407.623C297.705 405.161 298.017 402.622 298.017 400.077V384.217L294.215 381.684ZM316.788 409.54C316.404 408.392 316.211 407.193 316.211 405.986V403.629H318.485C324.755 403.629 329.856 398.529 329.856 392.259V386.841L330.417 386.561C332.876 385.331 334.404 382.857 334.404 380.108C334.404 378.679 333.986 377.297 333.192 376.108L331.088 372.951C333.349 371.902 336.392 369.908 338.562 366.301C340.094 366.901 341.757 367.242 343.501 367.242C345.245 367.242 346.908 366.901 348.44 366.303C350.61 369.91 353.651 371.902 355.914 372.953L353.81 376.11C353.016 377.296 352.598 378.679 352.598 380.108C352.598 382.857 354.126 385.331 356.587 386.562L357.146 386.841V392.259C357.146 398.529 362.247 403.629 368.517 403.629H370.791V405.986C370.791 407.193 370.598 408.392 370.214 409.54C370.109 409.856 369.939 410.147 369.805 410.452H317.197C317.063 410.145 316.892 409.854 316.788 409.54L316.788 409.54ZM321.041 318.123C322.565 308.249 330.904 300.275 340.872 299.163C341.764 299.064 342.65 299.016 343.53 299.016C349.139 299.016 354.43 301.024 358.656 304.802C363.477 309.114 366.243 315.295 366.243 321.758C366.243 328.639 363.163 335.078 357.799 339.421C354.782 341.862 352.957 345.325 352.66 349.048H348.207L349.571 328.58H352.598C356.359 328.58 359.42 325.52 359.42 321.758C359.42 317.996 356.359 314.935 352.598 314.935H352.304C348.727 314.935 345.737 317.732 345.498 321.305L345.316 324.032H341.687L341.505 321.305C341.265 317.732 338.274 314.935 334.698 314.935H334.404C330.643 314.935 327.582 317.996 327.582 321.758C327.582 325.52 330.643 328.58 334.404 328.58H337.431L338.795 349.048H334.34C334.034 345.341 332.176 341.85 329.108 339.339C322.802 334.182 319.786 326.252 321.041 318.123L321.041 318.123ZM343.353 349.047L341.988 328.579H345.011L343.646 349.047H343.353ZM349.873 324.031L350.034 321.606C350.114 320.415 351.112 319.482 352.304 319.482H352.598C353.851 319.482 354.872 320.502 354.872 321.757C354.872 323.012 353.851 324.031 352.598 324.031H349.873ZM337.129 324.031H334.404C333.152 324.031 332.13 323.012 332.13 321.757C332.13 320.502 333.152 319.482 334.404 319.482H334.698C335.89 319.482 336.888 320.414 336.968 321.606L337.129 324.031ZM352.598 353.595C352.598 358.612 348.518 362.692 343.501 362.692C338.485 362.692 334.404 358.612 334.404 353.595H352.598ZM375.34 405.985V403.628H384.437V399.08H368.517C364.756 399.08 361.695 396.019 361.695 392.257V384.03L358.62 382.493C357.713 382.037 357.146 381.123 357.146 380.107C357.146 379.582 357.301 379.07 357.594 378.631L359.784 375.344C361.033 373.47 361.695 371.289 361.695 369.037V367.241C361.695 363.48 364.756 360.419 368.517 360.419H384.437C386.945 360.419 388.985 362.458 388.985 364.967V368.881L391.171 369.609C393.945 370.535 395.808 373.118 395.808 376.041C395.808 378.313 394.68 380.422 392.787 381.68L388.985 384.218V400.079C388.985 402.621 389.297 405.159 389.913 407.622C390.152 408.577 390.45 409.521 390.779 410.452H374.658C375.087 408.998 375.34 407.501 375.34 405.984L375.34 405.985ZM409.453 371.789C409.453 383.248 403.299 393.703 393.533 399.347V386.65L395.312 385.465C398.47 383.359 400.356 379.836 400.356 376.039C400.356 371.489 397.652 367.427 393.533 365.646V364.966C393.533 359.949 389.453 355.869 384.436 355.869H368.517C362.247 355.869 357.146 360.97 357.146 367.24V368.491C355.613 367.669 353.737 366.276 352.343 363.968C355.277 361.463 357.146 357.745 357.146 353.595V350.116C357.146 347.37 358.426 344.762 360.658 342.956C361.793 342.037 362.811 341.016 363.772 339.952H377.614C395.171 339.95 409.453 354.231 409.453 371.788L409.453 371.789ZM311.015 329.66L303.099 326.099C300.843 325.085 299.754 322.521 300.568 320.138C300.973 318.953 301.964 317.93 303.288 317.336L311.016 313.857C314.618 312.235 316.344 308.071 314.943 304.378L311.864 296.261C310.986 293.947 312.03 291.368 314.288 290.253C315.416 289.701 316.838 289.68 318.195 290.194L326.12 293.2C329.814 294.608 333.979 292.877 335.599 289.273L339.16 281.359C340.174 279.101 342.738 278.007 345.121 278.826C346.308 279.233 347.331 280.222 347.925 281.546L351.402 289.274C353.022 292.876 357.19 294.608 360.881 293.201L369 290.122C371.32 289.249 373.896 290.285 375.006 292.544C375.558 293.67 375.579 295.096 375.065 296.454L372.059 304.377C370.658 308.071 372.384 312.234 375.986 313.856L383.716 317.335C385.04 317.931 386.031 318.952 386.436 320.137C387.25 322.521 386.161 325.083 383.905 326.098L375.986 329.659C373.587 330.742 372.049 332.957 371.685 335.402H367.098C369.475 331.307 370.792 326.634 370.792 321.758C370.792 314.003 367.474 306.587 361.691 301.413C355.912 296.243 348.146 293.785 340.37 294.643C328.396 295.98 318.379 305.563 316.548 317.433C315.563 323.819 316.819 330.086 319.912 335.403H315.32C314.953 332.956 313.414 330.741 311.015 329.661L311.015 329.66ZM281.747 397.66C278.961 389.302 277.549 380.599 277.549 371.789C277.549 354.232 291.831 339.95 309.388 339.95H323.215C324.142 340.978 325.131 341.963 326.228 342.861C328.532 344.744 329.855 347.394 329.855 350.129V353.596C329.855 357.746 331.725 361.464 334.659 363.969C333.265 366.277 331.39 367.671 329.855 368.491V367.241C329.855 360.97 324.755 355.87 318.484 355.87H302.565C297.549 355.87 293.468 359.95 293.468 364.966V365.647C289.349 367.429 286.646 371.489 286.646 376.04C286.646 379.838 288.531 383.361 291.69 385.467L293.468 386.65V400.075C293.468 402.245 293.202 404.413 292.674 406.518C292.34 407.864 291.863 409.172 291.319 410.45H286.011L281.747 397.66Z" fill="#FFBF3C"/>
</g>
<defs>
<linearGradient id="paint0_linear_3902_10436" x1="509.05" y1="241.356" x2="164.416" y2="252.031" gradientUnits="userSpaceOnUse">
<stop stop-color="#FFBF3C"/>
<stop offset="0.57635" stop-color="#FFBF3C" stop-opacity="0.403509"/>
<stop offset="1" stop-color="#FFBF3C" stop-opacity="0"/>
</linearGradient>
<linearGradient id="paint1_linear_3902_10436" x1="187.924" y1="198.19" x2="486.684" y2="450.721" gradientUnits="userSpaceOnUse">
<stop stop-color="#FF4B44"/>
<stop offset="1" stop-color="#FF6660" stop-opacity="0"/>
</linearGradient>
<linearGradient id="paint2_linear_3902_10436" x1="300.186" y1="471.868" x2="509.715" y2="213.954" gradientUnits="userSpaceOnUse">
<stop stop-color="#187DFF"/>
<stop offset="1" stop-color="#187DFF" stop-opacity="0"/>
</linearGradient>
<clipPath id="clip0_3902_10436">
<rect width="503" height="503" fill="white" transform="matrix(-0.5 0.866025 0.866025 0.5 251.5 0.944611)"/>
</clipPath>
</defs>
</svg>
