<svg width="331" height="331" viewBox="0 0 331 331" fill="none" xmlns="http://www.w3.org/2000/svg">
<g clip-path="url(#clip0_4216_10038)">
<path d="M125.626 274.381C127.683 277.949 130.643 280.913 134.209 282.975C137.774 285.037 141.819 286.124 145.937 286.126C167.125 286.134 187.941 280.564 206.291 269.974C224.641 259.384 239.879 244.148 250.472 225.798C261.066 207.448 266.643 186.631 266.642 165.438C266.641 144.246 261.062 123.425 250.466 105.069C247.355 99.68 242.231 95.7474 236.222 94.136C230.213 92.5247 223.811 93.3666 218.424 96.4766C213.038 99.5866 209.108 104.71 207.499 110.719C205.89 116.729 206.734 123.133 209.845 128.521C216.313 139.738 219.718 152.459 219.718 165.406C219.719 178.353 216.314 191.071 209.847 202.284C203.379 213.497 194.076 222.81 182.871 229.289C171.666 235.768 158.953 239.184 146.008 239.195C141.89 239.189 137.843 240.267 134.275 242.321C130.706 244.376 127.742 247.334 125.679 250.898C123.616 254.462 122.529 258.507 122.525 262.626C122.521 266.745 123.602 270.793 125.658 274.362L125.626 274.381Z" fill="url(#paint0_linear_4216_10038)" fill-opacity="0.9"/>
<path d="M41.4173 128.527C43.4803 132.093 46.4453 135.053 50.0141 137.109C53.583 139.165 57.6299 140.246 61.748 140.242C65.8661 140.237 69.9102 139.149 73.4736 137.086C77.037 135.022 79.9941 132.057 82.0476 128.487C88.5295 117.282 97.8445 107.981 109.058 101.516C120.271 95.052 132.988 91.6518 145.933 91.6572C158.877 91.6625 171.594 95.0733 182.806 101.547C194.019 108.021 203.332 117.33 209.812 128.54C212.923 133.929 218.047 137.862 224.056 139.473C230.065 141.084 236.467 140.242 241.854 137.132C247.24 134.022 251.17 128.899 252.779 122.889C254.388 116.88 253.544 110.476 250.433 105.088C239.834 86.7333 224.593 71.4913 206.24 60.894C187.887 50.2966 167.07 44.7173 145.882 44.7169C124.693 44.7166 103.88 50.2951 85.5336 60.8918C67.1876 71.4885 51.9554 86.7298 41.3684 105.084C39.3202 108.652 38.2465 112.696 38.2551 116.811C38.2637 120.926 39.3542 124.967 41.4173 128.527Z" fill="url(#paint1_linear_4216_10038)" fill-opacity="0.9"/>
<path d="M41.3573 225.798C51.9808 244.118 67.2194 259.333 85.5535 269.928C103.888 280.522 124.677 286.125 145.848 286.178C148.991 286.283 152.123 285.755 155.058 284.624C157.992 283.494 160.67 281.785 162.93 279.598C165.191 277.412 166.988 274.793 168.216 271.898C169.444 269.002 170.077 265.889 170.078 262.743C170.078 259.597 169.446 256.483 168.219 253.586C166.992 250.69 165.195 248.069 162.935 245.88C160.675 243.692 157.998 241.98 155.064 240.847C152.13 239.714 148.998 239.183 145.854 239.285C132.902 239.279 120.177 235.864 108.96 229.383C97.7421 222.902 88.4262 213.583 81.948 202.363C75.4698 191.142 72.0573 178.415 72.0535 165.46C72.0496 152.505 75.4545 139.778 81.926 128.558C83.586 125.886 84.6919 122.908 85.1777 119.8C85.6636 116.693 85.5196 113.519 84.7542 110.467C83.9888 107.416 82.6177 104.549 80.7225 102.038C78.8273 99.5272 76.4466 97.4228 73.7221 95.8504C70.9976 94.2779 67.985 93.2695 64.8633 92.885C61.7417 92.5005 58.5748 92.7479 55.5511 93.6124C52.5274 94.4769 49.7086 95.9408 47.2624 97.9172C44.8162 99.8935 42.7925 102.342 41.3118 105.117C30.7721 123.478 25.2299 144.283 25.2379 165.458C25.2459 186.633 30.8038 207.438 41.3573 225.798Z" fill="url(#paint2_linear_4216_10038)" fill-opacity="0.9"/>
<path d="M138.29 165.25C138.29 169.638 141.862 173.21 146.25 173.21C150.638 173.21 154.21 169.638 154.21 165.25C154.21 160.862 150.638 157.29 146.25 157.29C141.862 157.29 138.29 160.862 138.29 165.25ZM151.935 165.25C151.935 168.385 149.385 170.936 146.25 170.936C143.115 170.936 140.564 168.385 140.564 165.25C140.564 162.115 143.115 159.565 146.25 159.565C149.385 159.565 151.935 162.115 151.935 165.25Z" fill="#FF6660"/>
<path d="M142.839 165.25C142.839 167.131 144.369 168.661 146.25 168.661C148.131 168.661 149.661 167.131 149.661 165.25C149.661 163.369 148.131 161.839 146.25 161.839C144.369 161.839 142.839 163.369 142.839 165.25ZM147.387 165.25C147.387 165.878 146.877 166.387 146.25 166.387C145.622 166.387 145.113 165.878 145.113 165.25C145.113 164.623 145.622 164.113 146.25 164.113C146.877 164.113 147.387 164.623 147.387 165.25Z" fill="#FF6660"/>
<path d="M175.814 130H170.129V139.097H116.685C113.55 139.097 111 141.647 111 144.782V194.815C111 197.95 113.55 200.5 116.685 200.5H122.371V191.403H175.814C178.95 191.403 181.5 188.853 181.5 185.718V135.686C181.5 132.55 178.95 130 175.814 130ZM120.097 198.226H116.685C114.805 198.226 113.274 196.695 113.274 194.815V149.328C114.225 150.043 115.406 150.467 116.685 150.467H120.097V198.226ZM175.814 189.129H122.371V148.194H116.685C114.805 148.194 113.274 146.663 113.274 144.782C113.274 142.902 114.805 141.371 116.685 141.371H170.129V182.307H175.814C177.695 182.307 179.226 183.837 179.226 185.718C179.226 187.599 177.695 189.129 175.814 189.129ZM179.226 181.172C178.275 180.457 177.094 180.032 175.814 180.032H172.403V132.274H175.814C177.695 132.274 179.226 133.805 179.226 135.686V181.172Z" fill="#FF6660"/>
<path d="M149.296 151.5C148.655 150.855 147.772 150.468 146.816 150.468H145.684C144.169 150.468 142.834 151.436 142.362 152.873C142.249 153.218 142.003 153.485 141.684 153.609C141.533 153.668 141.386 153.727 141.239 153.792C140.93 153.925 140.567 153.91 140.246 153.749C138.895 153.069 137.269 153.327 136.197 154.396L135.394 155.198C134.325 156.269 134.065 157.896 134.748 159.246C134.911 159.567 134.925 159.93 134.79 160.241C134.727 160.386 134.668 160.534 134.609 160.685C134.485 161.003 134.216 161.249 133.873 161.363C132.434 161.835 131.467 163.17 131.467 164.684V165.816C131.467 167.331 132.435 168.666 133.873 169.138C134.217 169.252 134.484 169.497 134.608 169.817C134.667 169.967 134.726 170.115 134.791 170.261C134.925 170.57 134.91 170.933 134.748 171.254C134.065 172.605 134.325 174.231 135.395 175.304L136.197 176.106C137.267 177.174 138.893 177.436 140.245 176.752C140.566 176.59 140.929 176.575 141.24 176.71C141.385 176.773 141.533 176.833 141.684 176.892C141.778 176.928 141.849 177 141.929 177.06L134.408 184.581H124.645V186.855H135.349L143.203 179.001C143.845 179.646 144.727 180.033 145.683 180.033H146.816C148.33 180.033 149.665 179.065 150.137 177.627C150.251 177.283 150.497 177.016 150.816 176.892C150.966 176.833 151.114 176.774 151.261 176.709C151.57 176.576 151.933 176.59 152.253 176.752C153.604 177.434 155.232 177.175 156.303 176.105L157.104 175.303C158.174 174.233 158.435 172.606 157.752 171.255C157.589 170.933 157.574 170.571 157.71 170.26C157.773 170.115 157.832 169.967 157.891 169.816C158.015 169.498 158.284 169.252 158.627 169.138C160.065 168.666 161.032 167.331 161.032 165.817V164.684C161.032 163.17 160.064 161.835 158.627 161.363C158.282 161.249 158.015 161.003 157.891 160.684C157.832 160.534 157.773 160.386 157.708 160.239C157.574 159.93 157.59 159.567 157.751 159.247C158.434 157.896 158.174 156.268 157.104 155.197L156.302 154.395C155.231 153.326 153.605 153.064 152.255 153.749C151.935 153.911 151.571 153.928 151.26 153.791C151.114 153.728 150.966 153.668 150.815 153.609C150.721 153.573 150.65 153.501 150.57 153.441L158.091 145.92H167.855V143.646H157.15L149.296 151.5ZM153.279 155.78C153.749 155.539 154.318 155.631 154.694 156.005L155.496 156.807C155.87 157.181 155.96 157.749 155.721 158.222C155.254 159.148 155.218 160.214 155.621 161.145C155.673 161.265 155.725 161.387 155.772 161.509C156.143 162.463 156.927 163.196 157.919 163.523C158.42 163.688 158.758 164.155 158.758 164.684V165.816C158.758 166.346 158.42 166.812 157.916 166.977C156.925 167.304 156.143 168.038 155.771 168.991C155.724 169.114 155.672 169.236 155.621 169.355C155.217 170.287 155.253 171.353 155.72 172.28C155.959 172.752 155.869 173.32 155.495 173.694L154.693 174.495C154.32 174.87 153.753 174.96 153.277 174.721C152.353 174.254 151.284 174.218 150.355 174.621C150.235 174.674 150.113 174.725 149.991 174.773C149.037 175.143 148.304 175.927 147.977 176.92C147.812 177.421 147.346 177.759 146.816 177.759H145.684C145.154 177.759 144.688 177.421 144.523 176.917C144.196 175.926 143.462 175.143 142.509 174.772C142.386 174.725 142.264 174.673 142.145 174.622C141.715 174.436 141.257 174.342 140.796 174.342C140.258 174.342 139.72 174.469 139.219 174.721C138.747 174.96 138.178 174.869 137.804 174.496L137.004 173.694C136.63 173.32 136.539 172.751 136.777 172.278C137.245 171.353 137.281 170.286 136.877 169.356C136.825 169.235 136.774 169.114 136.726 168.992C136.355 168.038 135.572 167.304 134.579 166.978C134.079 166.813 133.742 166.347 133.742 165.817V164.685C133.742 164.155 134.079 163.689 134.583 163.524C135.575 163.197 136.357 162.463 136.728 161.51C136.776 161.387 136.827 161.265 136.878 161.146C137.283 160.214 137.247 159.148 136.779 158.221C136.541 157.749 136.632 157.181 137.005 156.807L137.806 156.006C138.179 155.631 138.748 155.541 139.222 155.78C140.146 156.247 141.217 156.285 142.144 155.88C142.265 155.827 142.387 155.776 142.508 155.728C143.462 155.358 144.196 154.574 144.522 153.582C144.687 153.08 145.154 152.742 145.683 152.742H146.816C147.346 152.742 147.812 153.08 147.977 153.584C148.303 154.575 149.038 155.358 149.99 155.729C150.113 155.777 150.235 155.828 150.354 155.879C151.287 156.283 152.351 156.247 153.279 155.78L153.279 155.78Z" fill="#FF6660"/>
<path d="M165.581 148.193H167.855V150.468H165.581V148.193Z" fill="#FF6660"/>
<path d="M158.758 148.193H163.306V150.468H158.758V148.193Z" fill="#FF6660"/>
<path d="M124.645 180.032H129.193V182.306H124.645V180.032Z" fill="#FF6660"/>
<path d="M131.468 180.032H133.742V182.306H131.468V180.032Z" fill="#FF6660"/>
<path d="M165.581 184.581H167.855V186.855H165.581V184.581Z" fill="#FF6660"/>
<path d="M156.484 184.581H163.306V186.855H156.484V184.581Z" fill="#FF6660"/>
<path d="M156.484 180.032H167.855V182.306H156.484V180.032Z" fill="#FF6660"/>
</g>
<defs>
<linearGradient id="paint0_linear_4216_10038" x1="149.05" y1="258.981" x2="227.318" y2="113.169" gradientUnits="userSpaceOnUse">
<stop stop-color="#FFBF3C"/>
<stop offset="0.57635" stop-color="#FFBF3C" stop-opacity="0.403509"/>
<stop offset="1" stop-color="#FFBF3C" stop-opacity="0"/>
</linearGradient>
<linearGradient id="paint1_linear_4216_10038" x1="244.056" y1="135.86" x2="67.393" y2="199.44" gradientUnits="userSpaceOnUse">
<stop stop-color="#FF4B44"/>
<stop offset="1" stop-color="#FF6660" stop-opacity="0"/>
</linearGradient>
<linearGradient id="paint2_linear_4216_10038" x1="103.359" y1="116.846" x2="160.281" y2="265.833" gradientUnits="userSpaceOnUse">
<stop stop-color="#187DFF"/>
<stop offset="1" stop-color="#187DFF" stop-opacity="0"/>
</linearGradient>
<clipPath id="clip0_4216_10038">
<rect width="241.42" height="241.42" fill="white" transform="matrix(-0.5 -0.866025 -0.866025 0.5 310.786 209.622)"/>
</clipPath>
</defs>
</svg>
